<svg width="94" height="67" viewBox="0 0 94 67" fill="none" xmlns="http://www.w3.org/2000/svg">
<path d="M14.3811 0H14.3716C13.4822 0 12.6467 0.32194 12.0137 0.901432C11.3744 1.4897 11.023 2.27407 11.023 3.10818V49.7514C11.023 51.4606 12.5327 52.8567 14.3906 52.8596C22.2207 52.8772 35.3364 54.3844 44.3882 63.1441V14.3351C44.3882 13.7556 44.2268 13.2112 43.9261 12.7605C36.5011 1.6975 22.2302 0.0175604 14.3811 0Z" fill="#55616C"/>
<path d="M82.9794 49.7513V3.11099C82.9794 2.27688 82.628 1.49252 81.9887 0.904243C81.3589 0.321825 80.5202 0.00281175 79.6308 0.00281175H79.6213C71.7753 0.0203721 57.5013 1.70031 50.0731 12.7604C49.7693 13.2111 49.611 13.7555 49.611 14.335V63.1469C58.6597 54.3902 71.7785 52.88 79.6087 52.8624C81.4665 52.8595 82.9762 51.4634 82.9762 49.7542L82.9794 49.7513Z" fill="#55616C"/>
<path d="M90.639 10.7558H88.1988V49.7515C88.1988 54.1182 84.3502 57.68 79.6217 57.6888C72.9816 57.7034 62.0308 58.9034 54.2766 65.6905C67.6897 62.6525 81.8277 64.6281 89.8857 66.3256C90.8922 66.5363 91.9303 66.3197 92.7374 65.7256C93.5413 65.1344 94.0002 64.2476 94.0002 63.2964V13.8669C94.0002 12.1519 92.4905 10.7558 90.6358 10.7558H90.639Z" fill="#55616C"/>
<path d="M5.80457 49.7515V10.7558H3.36437C1.50969 10.7558 0 12.1519 0 13.8669V63.2993C0 64.2505 0.462086 65.1373 1.26283 65.7285C2.06989 66.3226 3.10801 66.5421 4.11447 66.3285C12.1725 64.631 26.3136 62.6554 39.7236 65.6934C31.9694 58.9063 21.0186 57.7063 14.3785 57.6917C9.65001 57.68 5.8014 54.1211 5.8014 49.7544L5.80457 49.7515Z" fill="#55616C"/>
</svg>
