<svg width="74" height="93" viewBox="0 0 74 93" fill="none" xmlns="http://www.w3.org/2000/svg">
<g clip-path="url(#clip0_11_1294)">
<path d="M13.298 86.3559C13.298 82.6875 10.3217 79.7138 6.64996 79.7138C2.97826 79.7138 0 82.6875 0 86.3559C0 90.0244 2.97632 92.9981 6.64801 92.9981H64.8245C65.7419 92.9981 66.486 92.2547 66.486 91.338V88.016H14.9595C14.0421 88.016 13.298 87.2726 13.298 86.3559Z" fill="#55616C"/>
<path d="M13.298 78.9353V6.64216C13.298 2.9737 10.3197 0 6.64801 0C2.97632 0 0 2.9737 0 6.64216V78.9333C3.78273 75.5432 9.5133 75.5432 13.298 78.9333V78.9353Z" fill="#55616C"/>
<path d="M48.2033 14.9463H24.9324C24.0147 14.9463 23.2708 15.6896 23.2708 16.6064V36.5368C23.2708 37.4536 24.0147 38.1968 24.9324 38.1968H48.2033C49.121 38.1968 49.8648 37.4536 49.8648 36.5368V16.6064C49.8648 15.6896 49.121 14.9463 48.2033 14.9463Z" fill="#55616C"/>
<path d="M71.4726 8.3042H16.6211V84.6959H71.4726C72.39 84.6959 73.1341 83.9525 73.1341 83.0358V9.96426C73.1341 9.04763 72.39 8.3042 71.4726 8.3042ZM19.9461 16.6064C19.9461 13.8546 22.1783 11.6243 24.9326 11.6243H48.2036C50.9578 11.6243 53.1901 13.8546 53.1901 16.6064V36.5349C53.1901 39.2867 50.9578 41.517 48.2036 41.517H24.9326C22.1783 41.517 19.9461 39.2867 19.9461 36.5349V16.6064ZM21.6076 44.839H33.2421C34.1596 44.839 34.9036 45.5824 34.9036 46.4991C34.9036 47.4157 34.1596 48.1591 33.2421 48.1591H21.6076C20.6902 48.1591 19.9461 47.4157 19.9461 46.4991C19.9461 45.5824 20.6902 44.839 21.6076 44.839ZM21.6076 51.4812H51.5266C52.444 51.4812 53.1881 52.2246 53.1881 53.1412C53.1881 54.0579 52.444 54.8013 51.5266 54.8013H21.6076C20.6902 54.8013 19.9461 54.0579 19.9461 53.1412C19.9461 52.2246 20.6902 51.4812 21.6076 51.4812ZM69.8111 76.3917C69.8111 79.1436 67.5788 81.3738 64.8246 81.3738H24.9326C22.1783 81.3738 19.9461 79.1436 19.9461 76.3917V63.1055C19.9461 60.3536 22.1783 58.1234 24.9326 58.1234H64.8246C67.5788 58.1234 69.8111 60.3536 69.8111 63.1055V76.3917ZM68.1496 48.1611H39.8921C38.9747 48.1611 38.2306 47.4177 38.2306 46.501C38.2306 45.5844 38.9747 44.841 39.8921 44.841H68.1496C69.067 44.841 69.8111 45.5844 69.8111 46.501C69.8111 47.4177 69.067 48.1611 68.1496 48.1611Z" fill="#55616C"/>
<path d="M64.8263 61.4454H24.9324C24.0147 61.4454 23.2708 62.1886 23.2708 63.1054V76.3917C23.2708 77.3085 24.0147 78.0517 24.9324 78.0517H64.8263C65.7439 78.0517 66.4878 77.3085 66.4878 76.3917V63.1054C66.4878 62.1886 65.7439 61.4454 64.8263 61.4454Z" fill="#55616C"/>
</g>
<defs>
<clipPath id="clip0_11_1294">
<rect width="73.052" height="92.8933" fill="white" transform="scale(1.00115)"/>
</clipPath>
</defs>
</svg>
