<svg width="424" height="64" viewBox="0 0 424 64" fill="none" xmlns="http://www.w3.org/2000/svg">
<g filter="url(#filter0_dddd_11_1136)">
<rect x="12" y="6" width="400" height="38" rx="8" fill="white"/>
<path d="M51.233 30.5V20.3182H54.7926C55.5019 20.3182 56.0869 20.4408 56.5476 20.6861C57.0083 20.928 57.3513 21.2545 57.5767 21.6655C57.8021 22.0732 57.9148 22.5256 57.9148 23.0227C57.9148 23.4602 57.8369 23.8215 57.6811 24.1065C57.5286 24.3916 57.3265 24.617 57.0746 24.7827C56.826 24.9484 56.5559 25.071 56.2642 25.1506V25.25C56.5758 25.2699 56.889 25.3793 57.2038 25.5781C57.5187 25.777 57.7822 26.062 57.9943 26.4332C58.2064 26.8045 58.3125 27.2585 58.3125 27.7955C58.3125 28.3059 58.1965 28.7649 57.9645 29.1726C57.7325 29.5803 57.3662 29.9034 56.8658 30.142C56.3653 30.3807 55.714 30.5 54.9119 30.5H51.233ZM52.4659 29.4062H54.9119C55.7173 29.4062 56.2891 29.2505 56.6271 28.9389C56.9685 28.6241 57.1392 28.2429 57.1392 27.7955C57.1392 27.4508 57.0514 27.1326 56.8757 26.8409C56.7 26.5459 56.4498 26.3106 56.125 26.1349C55.8002 25.956 55.4157 25.8665 54.9716 25.8665H52.4659V29.4062ZM52.4659 24.7926H54.7528C55.1241 24.7926 55.4588 24.7197 55.7571 24.5739C56.0587 24.428 56.2973 24.2225 56.473 23.9574C56.652 23.6922 56.7415 23.3807 56.7415 23.0227C56.7415 22.5753 56.5857 22.1958 56.2741 21.8842C55.9626 21.5694 55.4688 21.4119 54.7926 21.4119H52.4659V24.7926ZM64.9918 27.3778V22.8636H66.1651V30.5H64.9918V29.2074H64.9123C64.7333 29.5952 64.4549 29.925 64.0771 30.1967C63.6992 30.4652 63.2219 30.5994 62.6452 30.5994C62.168 30.5994 61.7437 30.495 61.3725 30.2862C61.0013 30.0741 60.7096 29.7559 60.4975 29.3317C60.2854 28.9041 60.1793 28.3655 60.1793 27.7159V22.8636H61.3526V27.6364C61.3526 28.1932 61.5084 28.6373 61.82 28.9688C62.1348 29.3002 62.5359 29.4659 63.0231 29.4659C63.3147 29.4659 63.6114 29.3913 63.913 29.2422C64.2179 29.093 64.4731 28.8643 64.6786 28.5561C64.8874 28.2479 64.9918 27.8551 64.9918 27.3778ZM73.7232 24.5739L72.6692 24.8722C72.6029 24.6965 72.5051 24.5258 72.3759 24.3601C72.2499 24.1911 72.0776 24.0518 71.8588 23.9425C71.6401 23.8331 71.36 23.7784 71.0186 23.7784C70.5513 23.7784 70.1619 23.8861 69.8503 24.1016C69.5421 24.3137 69.388 24.5838 69.388 24.9119C69.388 25.2036 69.494 25.4339 69.7061 25.603C69.9183 25.772 70.2497 25.9129 70.7005 26.0256L71.834 26.304C72.5167 26.4697 73.0255 26.7232 73.3603 27.0646C73.695 27.4027 73.8624 27.8385 73.8624 28.3722C73.8624 28.8097 73.7364 29.2008 73.4846 29.5455C73.236 29.8902 72.888 30.1619 72.4405 30.3608C71.9931 30.5597 71.4727 30.6591 70.8794 30.6591C70.1006 30.6591 69.4559 30.4901 68.9455 30.152C68.4351 29.8139 68.1119 29.3201 67.976 28.6705L69.0897 28.392C69.1957 28.803 69.3962 29.1113 69.6912 29.3168C69.9895 29.5223 70.379 29.625 70.8596 29.625C71.4064 29.625 71.8406 29.509 72.1621 29.277C72.4869 29.0417 72.6493 28.7599 72.6493 28.4318C72.6493 28.1667 72.5565 27.9446 72.3709 27.7656C72.1853 27.5833 71.9003 27.4474 71.5158 27.358L70.2431 27.0597C69.5437 26.8939 69.03 26.6371 68.7019 26.2891C68.3771 25.9377 68.2147 25.4986 68.2147 24.9716C68.2147 24.5407 68.3356 24.1596 68.5776 23.8281C68.8229 23.4967 69.156 23.2365 69.5769 23.0476C70.0011 22.8587 70.4817 22.7642 71.0186 22.7642C71.7743 22.7642 72.3676 22.9299 72.7985 23.2614C73.2327 23.5928 73.5409 24.0303 73.7232 24.5739ZM78.7308 30.6591C78.0149 30.6591 77.3984 30.4901 76.8814 30.152C76.3643 29.8139 75.9666 29.3482 75.6882 28.755C75.4098 28.1617 75.2706 27.4839 75.2706 26.7216C75.2706 25.946 75.4131 25.2616 75.6982 24.6683C75.9865 24.0717 76.3875 23.6061 76.9013 23.2713C77.4183 22.9332 78.0215 22.7642 78.7109 22.7642C79.2479 22.7642 79.7318 22.8636 80.1626 23.0625C80.5935 23.2614 80.9465 23.5398 81.2216 23.8977C81.4967 24.2557 81.6674 24.6733 81.7337 25.1506H80.5604C80.4709 24.8026 80.272 24.4943 79.9638 24.2259C79.6589 23.9541 79.2479 23.8182 78.7308 23.8182C78.2734 23.8182 77.8724 23.9375 77.5277 24.1761C77.1863 24.4115 76.9195 24.7446 76.7273 25.1754C76.5384 25.603 76.4439 26.1051 76.4439 26.6818C76.4439 27.2718 76.5367 27.7855 76.7223 28.223C76.9112 28.6605 77.1764 29.0002 77.5178 29.2422C77.8625 29.4841 78.2668 29.6051 78.7308 29.6051C79.0357 29.6051 79.3125 29.5521 79.5611 29.446C79.8097 29.34 80.0201 29.1875 80.1925 28.9886C80.3648 28.7898 80.4875 28.5511 80.5604 28.2727H81.7337C81.6674 28.7235 81.5033 29.1295 81.2415 29.4908C80.983 29.8487 80.6399 30.1338 80.2124 30.3459C79.7881 30.5547 79.2943 30.6591 78.7308 30.6591ZM85.696 30.679C85.2121 30.679 84.773 30.5878 84.3786 30.4055C83.9841 30.2199 83.6709 29.9531 83.4389 29.6051C83.2069 29.2538 83.0909 28.8295 83.0909 28.3324C83.0909 27.8949 83.1771 27.5402 83.3494 27.2685C83.5218 26.9934 83.7521 26.7779 84.0405 26.6222C84.3288 26.4664 84.647 26.3504 84.995 26.2741C85.3464 26.1946 85.6993 26.1316 86.054 26.0852C86.518 26.0256 86.8942 25.9808 87.1825 25.951C87.4742 25.9179 87.6863 25.8632 87.8189 25.7869C87.9548 25.7107 88.0227 25.5781 88.0227 25.3892V25.3494C88.0227 24.8589 87.8885 24.4777 87.62 24.206C87.3549 23.9342 86.9522 23.7983 86.4119 23.7983C85.8518 23.7983 85.4126 23.9209 85.0945 24.1662C84.7763 24.4115 84.5526 24.6733 84.4233 24.9517L83.3097 24.554C83.5085 24.09 83.7737 23.7287 84.1051 23.4702C84.4399 23.2083 84.8045 23.026 85.1989 22.9233C85.5966 22.8172 85.9877 22.7642 86.3722 22.7642C86.6174 22.7642 86.8991 22.794 87.2173 22.8537C87.5388 22.91 87.8487 23.0277 88.147 23.2067C88.4486 23.3857 88.6989 23.6558 88.8977 24.017C89.0966 24.3783 89.196 24.8622 89.196 25.4688V30.5H88.0227V29.4659H87.9631C87.8835 29.6316 87.7509 29.8089 87.5653 29.9979C87.3797 30.1868 87.1328 30.3475 86.8246 30.4801C86.5163 30.6127 86.1402 30.679 85.696 30.679ZM85.875 29.625C86.339 29.625 86.7301 29.5339 87.0483 29.3516C87.3698 29.1693 87.6117 28.9339 87.7741 28.6456C87.9399 28.3572 88.0227 28.054 88.0227 27.7358V26.6619C87.973 26.7216 87.8636 26.7763 87.6946 26.826C87.5289 26.8724 87.3366 26.9138 87.1179 26.9503C86.9025 26.9834 86.692 27.0133 86.4865 27.0398C86.2843 27.063 86.1203 27.0829 85.9943 27.0994C85.6894 27.1392 85.4044 27.2038 85.1392 27.2933C84.8774 27.3795 84.6652 27.5104 84.5028 27.6861C84.3438 27.8584 84.2642 28.0937 84.2642 28.392C84.2642 28.7997 84.415 29.108 84.7166 29.3168C85.0215 29.5223 85.4077 29.625 85.875 29.625Z" fill="#9A9EAC"/>
<path d="M375 6H404C408.418 6 412 9.58172 412 14V36C412 40.4183 408.418 44 404 44H375V6Z" fill="#346933"/>
<path d="M390 33L398 25L390 17" stroke="white" stroke-width="3" stroke-linecap="round" stroke-linejoin="round"/>
</g>
<defs>
<filter id="filter0_dddd_11_1136" x="0" y="0" width="424" height="64" filterUnits="userSpaceOnUse" color-interpolation-filters="sRGB">
<feFlood flood-opacity="0" result="BackgroundImageFix"/>
<feColorMatrix in="SourceAlpha" type="matrix" values="0 0 0 0 0 0 0 0 0 0 0 0 0 0 0 0 0 0 127 0" result="hardAlpha"/>
<feMorphology radius="1" operator="dilate" in="SourceAlpha" result="effect1_dropShadow_11_1136"/>
<feOffset/>
<feComposite in2="hardAlpha" operator="out"/>
<feColorMatrix type="matrix" values="0 0 0 0 0.054902 0 0 0 0 0.0352941 0 0 0 0 0.282353 0 0 0 0.08 0"/>
<feBlend mode="normal" in2="BackgroundImageFix" result="effect1_dropShadow_11_1136"/>
<feColorMatrix in="SourceAlpha" type="matrix" values="0 0 0 0 0 0 0 0 0 0 0 0 0 0 0 0 0 0 127 0" result="hardAlpha"/>
<feOffset dy="1"/>
<feGaussianBlur stdDeviation="1"/>
<feComposite in2="hardAlpha" operator="out"/>
<feColorMatrix type="matrix" values="0 0 0 0 0.054902 0 0 0 0 0.0352941 0 0 0 0 0.282353 0 0 0 0.08 0"/>
<feBlend mode="normal" in2="effect1_dropShadow_11_1136" result="effect2_dropShadow_11_1136"/>
<feColorMatrix in="SourceAlpha" type="matrix" values="0 0 0 0 0 0 0 0 0 0 0 0 0 0 0 0 0 0 127 0" result="hardAlpha"/>
<feOffset dy="4"/>
<feGaussianBlur stdDeviation="5"/>
<feComposite in2="hardAlpha" operator="out"/>
<feColorMatrix type="matrix" values="0 0 0 0 0.0705882 0 0 0 0 0.027451 0 0 0 0 0.560784 0 0 0 0.08 0"/>
<feBlend mode="normal" in2="effect2_dropShadow_11_1136" result="effect3_dropShadow_11_1136"/>
<feColorMatrix in="SourceAlpha" type="matrix" values="0 0 0 0 0 0 0 0 0 0 0 0 0 0 0 0 0 0 127 0" result="hardAlpha"/>
<feOffset dy="8"/>
<feGaussianBlur stdDeviation="6"/>
<feComposite in2="hardAlpha" operator="out"/>
<feColorMatrix type="matrix" values="0 0 0 0 0.0705882 0 0 0 0 0.027451 0 0 0 0 0.560784 0 0 0 0.04 0"/>
<feBlend mode="normal" in2="effect3_dropShadow_11_1136" result="effect4_dropShadow_11_1136"/>
<feBlend mode="normal" in="SourceGraphic" in2="effect4_dropShadow_11_1136" result="shape"/>
</filter>
</defs>
</svg>
