<svg width="56" height="56" viewBox="0 0 56 56" fill="none" xmlns="http://www.w3.org/2000/svg">
<path d="M46.3754 0H9.62464C4.30447 0 0 4.32307 0 9.62464V46.3754C0 51.6781 4.30447 56 9.62464 56H46.3754C51.6781 56 56 51.6769 56 46.3754V9.62464C56 4.32191 51.6769 0 46.3754 0ZM21.0006 5.25044H23.6258C25.061 5.25044 26.251 6.42301 26.251 7.87565C26.251 9.3283 25.061 10.5009 23.6258 10.5009H21.0006C19.5479 10.5009 18.3754 9.3283 18.3754 7.87565C18.3754 6.42301 19.5479 5.25044 21.0006 5.25044ZM36.0151 26.5822C36.4707 26.9146 36.7496 27.4399 36.7496 28C36.7496 28.5601 36.4695 29.1028 36.0151 29.4352L23.7653 38.1848C23.4503 38.3951 23.1005 38.4997 22.7507 38.4997C22.4707 38.4997 22.1906 38.4474 21.9454 38.3068C21.3678 38.0093 21.0006 37.4143 21.0006 36.7496V19.2493C21.0006 18.602 21.3678 18.007 21.9454 17.7095C22.523 17.412 23.2225 17.4468 23.7653 17.8315L36.0151 26.5811V26.5822ZM12.2499 50.7507H9.62464C8.17199 50.7507 6.99942 49.5782 6.99942 48.1255C6.99942 46.6729 8.17199 45.5003 9.62464 45.5003H12.2499C13.6851 45.5003 14.8751 46.6729 14.8751 48.1255C14.8751 49.5782 13.6851 50.7507 12.2499 50.7507ZM12.2499 10.4997H9.62464C8.17199 10.4997 6.99942 9.32714 6.99942 7.87449C6.99942 6.42185 8.17199 5.24927 9.62464 5.24927H12.2499C13.6851 5.24927 14.8751 6.42185 14.8751 7.87449C14.8751 9.32714 13.6851 10.4997 12.2499 10.4997ZM23.6246 50.7507H20.9994C19.5468 50.7507 18.3742 49.5782 18.3742 48.1255C18.3742 46.6729 19.5468 45.5003 20.9994 45.5003H23.6246C25.0598 45.5003 26.2499 46.6729 26.2499 48.1255C26.2499 49.5782 25.0598 50.7507 23.6246 50.7507ZM35.0006 50.7507H32.3754C30.9227 50.7507 29.7501 49.5782 29.7501 48.1255C29.7501 46.6729 30.9227 45.5003 32.3754 45.5003H35.0006C36.4358 45.5003 37.6258 46.6729 37.6258 48.1255C37.6258 49.5782 36.4358 50.7507 35.0006 50.7507ZM35.0006 10.4997H32.3754C30.9227 10.4997 29.7501 9.32714 29.7501 7.87449C29.7501 6.42185 30.9227 5.24927 32.3754 5.24927H35.0006C36.4358 5.24927 37.6258 6.42185 37.6258 7.87449C37.6258 9.32714 36.4358 10.4997 35.0006 10.4997ZM46.3754 50.7507H43.7501C42.2975 50.7507 41.1249 49.5782 41.1249 48.1255C41.1249 46.6729 42.2975 45.5003 43.7501 45.5003H46.3754C47.8106 45.5003 49.0006 46.6729 49.0006 48.1255C49.0006 49.5782 47.8106 50.7507 46.3754 50.7507ZM46.3754 10.4997H43.7501C42.2975 10.4997 41.1249 9.32714 41.1249 7.87449C41.1249 6.42185 42.2975 5.24927 43.7501 5.24927H46.3754C47.8106 5.24927 49.0006 6.42185 49.0006 7.87449C49.0006 9.32714 47.8106 10.4997 46.3754 10.4997Z" fill="#808B94"/>
</svg>
