<svg width="27" height="16" viewBox="0 0 27 16" fill="none" xmlns="http://www.w3.org/2000/svg">
<path d="M13.2107 0.0016072C18.3942 -0.0753044 22.8912 2.61555 26.0998 6.4933C26.3543 6.80094 26.9433 7.47287 26.9925 7.84275C27.0723 8.4444 26.4801 9.04117 26.116 9.48201C22.1331 14.3051 16.2186 17.1816 9.87845 15.5315C6.36059 14.6159 3.16082 12.2473 0.882243 9.48201C0.639377 9.1873 0.0664826 8.53006 0.0109505 8.18116C-0.0881638 7.55887 0.508279 6.96525 0.882243 6.51252C3.91507 2.83965 8.30246 0.0743236 13.2107 0.0016072ZM12.9296 2.37888C9.4493 2.65121 7.12258 6.19264 8.0262 9.50788C9.1003 13.4479 14.0701 14.9749 17.1901 12.2802C21.3754 8.665 18.4968 1.94328 12.9299 2.37922L12.9296 2.37888Z" fill="white"/>
<path d="M13.175 4.96566C15.3524 4.74366 17.0703 6.7951 16.417 8.88955C15.6954 11.2028 12.6562 11.7916 11.1094 9.90128C9.60267 8.0603 10.8209 5.20548 13.175 4.96566Z" fill="white"/>
</svg>
