<svg width="20" height="21" viewBox="0 0 20 21" fill="none" xmlns="http://www.w3.org/2000/svg">
<path d="M12.2408 16.3255L6.59328 13.2453C6.05118 13.7834 5.36189 14.149 4.61232 14.296C3.86274 14.4429 3.08645 14.3646 2.3813 14.071C1.67614 13.7774 1.0737 13.2816 0.649923 12.6461C0.226144 12.0106 0 11.2639 0 10.5C0 9.73618 0.226144 8.98944 0.649923 8.35394C1.0737 7.71844 1.67614 7.22263 2.3813 6.92902C3.08645 6.63541 3.86274 6.55714 4.61232 6.70408C5.36189 6.85103 6.05118 7.2166 6.59328 7.75471L12.2408 4.67453C12.0471 3.76577 12.187 2.81765 12.6349 2.00356C13.0828 1.18946 13.8088 0.563794 14.6801 0.240968C15.5514 -0.0818572 16.5098 -0.0802672 17.38 0.245447C18.2502 0.571162 18.9741 1.19924 19.4193 2.01481C19.8645 2.83039 20.0013 3.77897 19.8046 4.68708C19.6078 5.5952 19.0908 6.40216 18.348 6.96041C17.6053 7.51866 16.6863 7.79088 15.7594 7.7273C14.8324 7.66372 13.9592 7.26859 13.2996 6.61415L7.65206 9.69433C7.76456 10.2252 7.76456 10.7737 7.65206 11.3046L13.2996 14.3859C13.9592 13.7315 14.8324 13.3363 15.7594 13.2727C16.6863 13.2092 17.6053 13.4814 18.348 14.0396C19.0908 14.5979 19.6078 15.4048 19.8046 16.313C20.0013 17.2211 19.8645 18.1697 19.4193 18.9852C18.9741 19.8008 18.2502 20.4289 17.38 20.7546C16.5098 21.0803 15.5514 21.0819 14.6801 20.7591C13.8088 20.4362 13.0828 19.8106 12.6349 18.9965C12.187 18.1824 12.0471 17.2343 12.2408 16.3255Z" fill="white"/>
</svg>
