<svg width="59" height="42" viewBox="0 0 59 42" fill="none" xmlns="http://www.w3.org/2000/svg">
<path d="M9.02625 0H9.02029C8.46208 0 7.93763 0.202069 7.54033 0.565793C7.13905 0.935029 6.91854 1.42734 6.91854 1.95088V31.227C6.91854 32.2998 7.86612 33.1761 9.03221 33.1779C13.9469 33.1889 22.1791 34.135 27.8606 39.6331V8.99758C27.8606 8.63386 27.7592 8.29218 27.5705 8.00928C22.9101 1.06546 13.9529 0.0110219 9.02625 0Z" fill="#808B94"/>
<path d="M52.0831 31.2269V1.95261C52.0831 1.42907 51.8626 0.936753 51.4613 0.567518C51.066 0.201956 50.5396 0.00172434 49.9814 0.00172434H49.9754C45.0508 0.0127463 36.0915 1.06718 31.4291 8.00917C31.2384 8.29207 31.1391 8.63375 31.1391 8.99747V39.6348C36.8186 34.1385 45.0528 33.1907 49.9675 33.1796C51.1335 33.1778 52.0811 32.3015 52.0811 31.2287L52.0831 31.2269Z" fill="#808B94"/>
<path d="M56.8903 6.75104H55.3587V31.2271C55.3587 33.9679 52.9431 36.2035 49.9752 36.209C45.8074 36.2182 38.934 36.9714 34.067 41.2314C42.486 39.3246 51.3598 40.5645 56.4175 41.63C57.0492 41.7623 57.7008 41.6263 58.2074 41.2534C58.7119 40.8823 59 40.3257 59 39.7287V8.70376C59 7.62728 58.0524 6.75104 56.8883 6.75104H56.8903Z" fill="#808B94"/>
<path d="M3.6433 31.2271V6.75104H2.11168C0.947575 6.75104 0 7.62728 0 8.70376V39.7305C0 40.3276 0.290034 40.8842 0.792626 41.2552C1.29919 41.6282 1.95077 41.7659 2.58249 41.6318C7.6402 40.5664 16.516 39.3264 24.933 41.2332C20.066 36.9732 13.1926 36.2201 9.02481 36.2109C6.05693 36.2035 3.64131 33.9697 3.64131 31.229L3.6433 31.2271Z" fill="#808B94"/>
</svg>
