<svg width="218" height="14" viewBox="0 0 218 14" fill="none" xmlns="http://www.w3.org/2000/svg">
<path d="M4.40131 12.0111C1.87153 12.0111 0 9.93742 0 7.29821C0 4.65899 1.85862 2.55839 4.42712 2.55839C6.01469 2.55839 6.96982 3.15087 7.8475 4.01265L7.17633 4.76671C6.44063 4.03958 5.61457 3.51444 4.42712 3.51444C2.49106 3.51444 1.03257 5.14374 1.03257 7.27127C1.03257 9.3988 2.49106 11.055 4.42712 11.055C5.62748 11.055 6.41482 10.5703 7.25378 9.73544L7.89913 10.3952C6.98273 11.3648 5.98888 11.9976 4.3884 11.9976L4.40131 12.0111Z" fill="#231F20"/>
<path d="M13.4617 12.0111C10.7899 12.0111 9.00874 9.8297 9.00874 7.29821C9.00874 4.76672 10.8286 2.55839 13.4875 2.55839C16.1464 2.55839 17.9404 4.73978 17.9404 7.27127C17.9404 9.80276 16.1205 12.0111 13.4617 12.0111ZM13.4617 3.50096C11.4611 3.50096 10.0284 5.17068 10.0284 7.25781C10.0284 9.34495 11.474 11.0416 13.4875 11.0416C15.501 11.0416 16.9208 9.37188 16.9208 7.28475C16.9208 5.19762 15.4623 3.50096 13.4617 3.50096Z" fill="#231F20"/>
<path d="M24.2398 9.34491H24.1881L21.0001 4.45697V11.8495H20.0321V2.70647H21.0388L24.2269 7.70213L27.4149 2.70647H28.4217V11.8495H27.4278V4.44351L24.2398 9.34491Z" fill="#231F20"/>
<path d="M34.0231 8.63136H31.8934V11.863H30.8996V2.72006H34.178C36.1527 2.72006 37.4564 3.81074 37.4564 5.62857C37.4564 7.60798 35.8817 8.63136 34.0102 8.63136H34.0231ZM34.1005 3.66264H31.8805V7.68877H34.0489C35.5074 7.68877 36.4496 6.88085 36.4496 5.66896C36.4496 4.34936 35.5074 3.67609 34.1005 3.67609V3.66264Z" fill="#231F20"/>
<path d="M45.6009 3.64916H40.2574V6.77313H45.0459V7.71571H40.2574V10.9205H45.6655V11.863H39.2636V2.72006H45.6009V3.66264V3.64916Z" fill="#231F20"/>
<path d="M54.1064 2.70647H55.0744V11.8495H54.2871L48.6338 4.34925V11.8495H47.6658V2.70647H48.5951L54.1193 10.0316V2.70647H54.1064Z" fill="#231F20"/>
<path d="M60.6887 6.78653C62.6376 7.23088 63.5411 7.97149 63.5411 9.38535C63.5411 10.9608 62.2891 11.9842 60.5467 11.9842C59.1527 11.9842 58.0169 11.4994 56.9714 10.5164L57.591 9.76238C58.5074 10.6242 59.3851 11.055 60.5983 11.055C61.8116 11.055 62.5473 10.4087 62.5473 9.49308C62.5473 8.63129 62.1084 8.14654 60.2627 7.74258C58.2492 7.28475 57.3199 6.61148 57.3199 5.0899C57.3199 3.56831 58.5332 2.58533 60.1982 2.58533C61.476 2.58533 62.3924 2.96237 63.283 3.70296L62.7022 4.49742C61.889 3.81068 61.0759 3.50097 60.1724 3.50097C59.0366 3.50097 58.3009 4.14731 58.3009 4.99563C58.3009 5.84395 58.7526 6.35563 60.6758 6.78653H60.6887Z" fill="#231F20"/>
<path d="M73.5312 11.8496H72.4729L71.4403 9.43925H66.6647L65.6192 11.8496H64.5996L68.5878 2.63923H69.5171L73.5054 11.8496H73.5312ZM69.0654 3.85112L67.0648 8.51013H71.0531L69.0654 3.85112Z" fill="#231F20"/>
<path d="M74.8743 7.29821C74.8743 4.68592 76.7329 2.55839 79.3014 2.55839C80.889 2.55839 81.8441 3.15087 82.7218 4.01265L82.0506 4.76671C81.3149 4.03958 80.4888 3.51444 79.3014 3.51444C77.3653 3.51444 75.9068 5.14374 75.9068 7.27127C75.9068 9.3988 77.3782 11.055 79.3014 11.055C80.5018 11.055 81.2891 10.5703 82.128 9.73544L82.7734 10.3952C81.8957 11.3244 80.9406 11.9438 79.4692 11.9976L78.6431 13.8693L77.7009 13.425L78.669 11.9572C76.4489 11.661 74.8743 9.70852 74.8743 7.28475V7.29821Z" fill="#231F20"/>
<path d="M92.6726 11.8495H91.6143L90.5817 9.43918H85.8061L84.7606 11.8495H83.7409L87.7292 2.63916H88.6585L92.6468 11.8495H92.6726ZM89.0716 1.89858C88.5036 1.89858 87.8196 1.37343 87.3936 1.37343C87.071 1.37343 86.929 1.54848 86.7483 2.01977L86.1546 1.84471C86.3998 0.861737 86.7483 0.471235 87.342 0.471235C87.9099 0.471235 88.594 0.996384 89.0199 0.996384C89.3426 0.996384 89.4846 0.82134 89.6653 0.350051L90.259 0.525108C90.0138 1.50808 89.6653 1.89858 89.0716 1.89858ZM88.1939 3.85106L86.1933 8.51007H90.1816L88.1939 3.85106Z" fill="#231F20"/>
<path d="M98.4676 12.0111C95.7958 12.0111 94.0147 9.8297 94.0147 7.29821C94.0147 4.76672 95.8346 2.55839 98.4934 2.55839C101.152 2.55839 102.946 4.73978 102.946 7.27127C102.946 9.80276 101.126 12.0111 98.4676 12.0111ZM98.4676 3.50096C96.467 3.50096 95.0343 5.17068 95.0343 7.25781C95.0343 9.34495 96.4799 11.0416 98.4934 11.0416C100.507 11.0416 101.927 9.37188 101.927 7.28475C101.927 5.19762 100.468 3.50096 98.4676 3.50096Z" fill="#231F20"/>
<path d="M115.131 3.64916H109.788V6.77313H114.576V7.71571H109.788V10.9205H115.196V11.863H108.794V2.72006H115.131V3.66264V3.64916Z" fill="#231F20"/>
<path d="M120.332 6.78653C122.281 7.23088 123.185 7.97149 123.185 9.38535C123.185 10.9608 121.933 11.9842 120.19 11.9842C118.796 11.9842 117.66 11.4994 116.615 10.5164L117.234 9.76238C118.151 10.6242 119.029 11.055 120.242 11.055C121.455 11.055 122.191 10.4087 122.191 9.49308C122.191 8.63129 121.752 8.14654 119.906 7.74258C117.893 7.28475 116.963 6.61148 116.963 5.0899C116.963 3.56831 118.177 2.58533 119.842 2.58533C121.119 2.58533 122.036 2.96237 122.926 3.70296L122.346 4.49742C121.533 3.81068 120.719 3.50097 119.816 3.50097C118.68 3.50097 117.944 4.14731 117.944 4.99563C117.944 5.84395 118.396 6.35563 120.319 6.78653H120.332Z" fill="#231F20"/>
<path d="M128.322 8.63136H126.192V11.863H125.198V2.72006H128.477C130.452 2.72006 131.755 3.81074 131.755 5.62857C131.755 7.60798 130.181 8.63136 128.309 8.63136H128.322ZM128.412 3.66264H126.192V7.68877H128.361C129.819 7.68877 130.761 6.88085 130.761 5.66896C130.761 4.34936 129.819 3.67609 128.412 3.67609V3.66264Z" fill="#231F20"/>
<path d="M139.9 3.64916H134.556V6.77313H139.345V7.71571H134.556V10.9205H139.964V11.863H133.562V2.72006H139.9V3.66264V3.64916Z" fill="#231F20"/>
<path d="M141.952 2.70647H142.946V10.8934H147.876V11.8495H141.952V2.70647Z" fill="#231F20"/>
<path d="M156.047 3.64916H150.703V6.77313H155.492V7.71571H150.703V10.9205H156.111V11.863H149.709V2.72006H156.047V3.66264V3.64916Z" fill="#231F20"/>
<path d="M162.165 12.0111C159.493 12.0111 157.712 9.8297 157.712 7.29821C157.712 4.76672 159.532 2.55839 162.191 2.55839C164.849 2.55839 166.643 4.73978 166.643 7.27127C166.643 9.80276 164.824 12.0111 162.165 12.0111ZM162.165 3.50096C160.164 3.50096 158.731 5.17068 158.731 7.25781C158.731 9.34495 160.19 11.0416 162.191 11.0416C164.191 11.0416 165.624 9.37188 165.624 7.28475C165.624 5.19762 164.165 3.50096 162.165 3.50096Z" fill="#231F20"/>
<path d="M168.747 2.70647H169.741V10.8934H174.671V11.8495H168.747V2.70647Z" fill="#231F20"/>
<path d="M180.557 12.0111C177.885 12.0111 176.104 9.82972 176.104 7.29823C176.104 4.76674 177.923 2.55841 180.582 2.55841C183.241 2.55841 185.035 4.7398 185.035 7.27129C185.035 9.80279 183.215 12.0111 180.557 12.0111ZM180.557 3.50099C178.556 3.50099 177.123 5.1707 177.123 7.25784C177.123 9.34497 178.569 11.0416 180.582 11.0416C182.596 11.0416 184.016 9.37191 184.016 7.28477C184.016 5.19764 182.557 3.50099 180.557 3.50099ZM180.247 1.89862L181.434 0L182.441 0.484754L181.021 1.89862H180.247Z" fill="#231F20"/>
<path d="M191.206 12.0111C188.456 12.0111 186.753 9.92395 186.753 7.29821C186.753 4.67246 188.521 2.55839 191.154 2.55839C192.638 2.55839 193.542 3.00276 194.419 3.77028L193.774 4.55128C193.103 3.93187 192.341 3.50096 191.102 3.50096C189.166 3.50096 187.772 5.21108 187.772 7.25781C187.772 9.45267 189.115 11.0685 191.244 11.0685C192.251 11.0685 193.167 10.6645 193.774 10.1529V7.87721H191.102V6.94811H194.716V10.5972C193.903 11.3513 192.677 11.9976 191.193 11.9976L191.206 12.0111Z" fill="#231F20"/>
<path d="M198.034 2.70647V11.8495H197.039V2.70647H198.034Z" fill="#231F20"/>
<path d="M204.603 12.0111C202.074 12.0111 200.202 9.93742 200.202 7.29821C200.202 4.65899 202.061 2.55839 204.629 2.55839C206.217 2.55839 207.172 3.15087 208.049 4.01265L207.378 4.76671C206.643 4.03958 205.817 3.51444 204.629 3.51444C202.693 3.51444 201.235 5.14374 201.235 7.27127C201.235 9.3988 202.693 11.055 204.629 11.055C205.829 11.055 206.617 10.5703 207.456 9.73544L208.101 10.3952C207.185 11.3648 206.191 11.9976 204.59 11.9976L204.603 12.0111Z" fill="#231F20"/>
<path d="M218 11.8496H216.942L215.909 9.43925H211.134L210.088 11.8496H209.069L213.057 2.63923H213.986L217.975 11.8496H218ZM213.535 3.85112L211.534 8.51013H215.522L213.535 3.85112Z" fill="#231F20"/>
</svg>
