<svg width="24" height="85" viewBox="0 0 24 85" fill="none" xmlns="http://www.w3.org/2000/svg">
<path d="M2.61922 40.9417C2.72295 40.874 2.83965 40.8064 2.94338 40.7252C4.57715 39.5348 5.27733 38.4391 4.73274 36.6806C2.65812 30.0657 2.83965 23.3832 4.17519 16.7007C4.62901 14.4282 3.7473 12.2638 3.34534 10.0588C3.29347 9.73419 2.98228 9.17957 2.77482 9.16604C1.6597 9.13899 0.816886 9.03077 0.181532 8.88197C0.0648338 11.0869 0 13.3189 0 15.5645C0 24.276 0.90765 32.7576 2.61922 40.9281V40.9417Z" fill="#72808A"/>
<path d="M23.4437 0.143297C23.301 -0.0190304 23.1195 -0.0460852 22.8991 0.0756604C16.8438 0.616752 13.5114 4.28265 9.05095 6.64993C7.93584 7.24513 8.31187 8.40848 8.35076 9.32833C8.54526 14.2793 7.85804 19.1627 6.69106 24.046C5.44629 29.3081 7.09302 34.6244 7.78024 39.8459C8.67492 46.6501 7.88397 53.4679 9.14172 60.2586C9.32325 61.219 9.45291 62.1795 9.55664 63.1399C12.8371 70.9046 16.8827 78.2228 21.6024 85C21.5246 79.0074 21.1097 73.0013 21.8229 67.0764C23.2232 55.3752 21.4209 43.62 23.3918 31.9324C24.0142 28.2665 21.5895 24.8577 21.5506 21.1647C21.4857 14.1035 24.1698 7.20455 23.4307 0.143297H23.4437Z" fill="#72808A"/>
</svg>
