<svg width="26" height="18" viewBox="0 0 26 18" fill="none" xmlns="http://www.w3.org/2000/svg">
<path d="M23.5386 17.4454C24.4021 17.4454 25.2134 17.4181 25.9854 17.4045H23.5386V17.4454Z" fill="#203232"/>
<path d="M21.9295 12.9955C21.7986 12.9682 21.6416 12.6542 21.5893 12.4358C21.0659 10.2654 20.464 8.12226 20.0846 5.91089C19.7967 4.24554 19.4042 3.04431 17.978 2.97606C17.7163 2.97606 17.3499 2.85321 17.206 2.6075C16.0415 0.641841 14.7592 -0.368288 12.7181 0.123126C10.3629 0.696443 9.05442 2.8532 7.71981 5.03727C7.05251 6.14295 6.84315 8.32702 6.08426 8.66828C3.28419 9.95141 1.98883 13.0364 0.510292 15.9849L0 17.4045H23.5258V16.8039C23.4735 15.3297 23.6566 13.3367 21.9164 12.9818L21.9295 12.9955Z" fill="#203232"/>
</svg>
