<svg width="7" height="3" viewBox="0 0 7 3" fill="none" xmlns="http://www.w3.org/2000/svg">
<path d="M5.95809 2.45847C5.94801 2.35766 6.16981 2.36774 6.40168 2.37782C6.40168 2.33749 6.41176 2.29717 6.42185 2.25684H6.40168C6.22021 2.277 6.04883 2.23668 5.8976 2.23668C5.68589 2.29716 6.08915 2.35765 5.82703 2.41814C5.66573 2.36774 5.5145 2.32741 5.48426 2.25684C5.44393 2.17619 5.27255 2.15602 5.07091 2.18627C4.68781 2.24676 4.43577 2.18627 4.11316 2.12578C3.87121 2.08546 3.52843 1.98464 3.27639 2.03505C2.80256 2.12578 2.16742 2.06529 1.77424 2.20643C1.73391 2.21651 1.69359 2.22659 1.64318 2.23668C1.76416 2.37782 1.88514 2.50888 2.00612 2.65002C2.00612 2.65002 2.15734 2.82141 2.16742 2.82141C2.36905 2.79116 2.2884 2.59961 2.53036 2.57945C2.69166 2.73067 2.98403 2.5492 3.14533 2.57945C3.74015 2.70043 4.33496 2.57945 4.89953 2.63994C4.92977 2.57945 4.66765 2.58953 4.73822 2.52904C5.2423 2.52904 5.78671 2.51896 6.26054 2.55929C6.47225 2.57945 6.64364 2.63994 6.89568 2.59961C6.94609 2.59961 7.01666 2.54921 6.9965 2.54921C6.85535 2.47863 6.57307 2.50888 6.36136 2.47864C6.2303 2.45847 5.98834 2.55929 5.96817 2.43831L5.95809 2.45847Z" fill="#266726"/>
<path d="M0.433508 0.825208C0.463752 0.744555 0.584731 0.694147 0.977913 0.71431C1.01824 0.563086 1.27028 0.613495 1.51224 0.663903C1.61305 0.684066 1.73403 0.704228 1.83485 0.684064C1.96591 0.65382 1.84493 0.623575 1.8046 0.59333C1.72395 0.532841 1.61305 0.472352 1.6433 0.381618C1.75419 0.3917 1.82476 0.401782 1.89534 0.411863C2.19778 0.462271 2.42966 0.542923 2.80268 0.563087C3.20594 0.593331 3.1757 0.381618 3.59912 0.46227C3.65961 0.472352 3.67978 0.421944 3.67978 0.3917C3.67978 0.361455 3.67978 0.331211 3.54871 0.321129C3.0648 0.321129 3.02447 0.21023 2.97406 0.0993331C2.93374 0.00859896 2.843 -0.031727 2.48007 0.0287624C2.12721 0.0892519 1.68362 0.159823 1.22995 0.0993331C0.796444 0.0489253 0.806525 0.0388446 0.544405 0.13966C0.403263 0.20015 0.211713 0.230395 0 0.250558C0.141142 0.442108 0.292366 0.633658 0.443589 0.815126L0.433508 0.825208Z" fill="#266726"/>
</svg>
