<svg width="15" height="4" viewBox="0 0 15 4" fill="none" xmlns="http://www.w3.org/2000/svg">
<path d="M14.3286 2.34626C14.102 2.23638 14.0986 2.1162 14.3183 1.98572C14.2153 1.87241 14.0196 1.91362 13.8651 1.91362C13.6797 1.91362 13.5458 1.86211 13.4325 1.7488C13.6076 1.7282 13.7621 1.7179 13.9887 1.687C13.6488 1.54278 13.35 1.40887 13.144 1.23375C13.0204 1.13074 12.8041 1.11014 12.6393 1.13074C12.1345 1.18225 11.9594 0.996831 11.774 0.811413C11.5783 0.708404 11.1456 0.811414 11.0941 0.574492C11.0941 0.543589 10.9396 0.543589 10.8675 0.595094C10.8057 0.646599 10.7336 0.739307 10.6306 0.584793C10.507 0.399376 10.1567 0.564191 10.1052 0.584793C9.73441 0.759909 9.6108 0.801114 9.39448 0.615696C9.16785 0.409677 8.85883 0.533287 8.72491 0.553889C8.03475 0.625996 7.65361 0.461181 7.41669 0.141851C7.38579 0.0903464 7.34458 0.0903467 7.29308 0.0697448C6.79863 -0.0332648 6.22178 -0.0126629 5.82004 0.0697448C5.3977 0.141851 4.95476 0.141852 4.55302 0.183056C3.97617 0.234561 3.74955 0.512687 3.28601 0.605395C3.2242 0.615696 3.2345 0.636298 3.2551 0.6672C3.44052 1.04834 3.2345 1.24405 2.57524 1.24405C2.34862 1.24405 2.30741 1.47068 2.03959 1.34707C2.01899 1.34707 1.99839 1.36766 1.98808 1.36766C1.81297 1.59429 1.49364 1.46038 1.34943 1.39857C1.20521 1.33676 1.13311 1.30586 0.978591 1.35736C0.741669 1.43977 0.576854 1.56339 0.257524 1.58399C0.0824077 1.59429 0.0824075 1.7488 0.206019 1.84151C0.103009 1.84151 0.0412038 1.87241 0 1.91362C0.556252 2.53168 1.14341 3.12913 1.74086 3.70598C1.84387 3.70598 1.94688 3.68538 2.04989 3.59267C2.22501 3.43816 2.67825 3.53087 2.81216 3.72659C2.90487 3.8708 3.01818 3.93261 3.32721 3.8811C3.84226 3.78839 4.43971 3.8502 4.93416 3.70598C5.3565 3.58237 5.61402 3.56177 5.59342 3.8914C5.59342 3.9223 5.67583 3.96351 5.73763 3.97381C6.13937 4.08712 7.38579 3.80899 7.34459 3.59267C7.27248 3.28364 7.59181 3.34545 7.88024 3.34545C8.09656 3.34545 8.25107 3.31455 8.37468 3.21154C8.39528 3.19094 8.46739 3.19093 8.50859 3.19093C8.6322 3.26304 8.51889 3.39695 8.76612 3.42786C8.78672 3.39695 8.79702 3.36605 8.81762 3.33515C8.88973 3.23214 8.85883 3.04672 9.09575 3.05702C9.43568 3.05702 9.15755 3.22184 9.20906 3.30425C9.22966 3.33515 9.32237 3.39695 9.34297 3.39695C9.6314 3.33515 9.71381 3.48966 9.88892 3.54117C10.5894 3.75749 11.0529 3.60297 11.1353 3.16003C11.1559 3.06732 11.1868 2.97461 11.228 2.8407C11.5989 3.32141 12.138 3.63731 12.8453 3.78839C12.8247 3.53087 12.6702 3.25274 13.1543 3.06732C13.1749 3.06732 13.1543 3.00552 13.1337 2.98492C12.835 2.7892 13.1852 2.76859 13.3706 2.74799C13.6282 2.71709 13.9063 2.7377 14.1741 2.72739C14.5553 2.65529 14.6274 2.51107 14.3595 2.37716L14.3286 2.34626ZM3.01818 2.59348C2.85337 2.61408 2.74006 2.52137 2.69885 2.44927C2.62674 2.31536 2.51343 2.22264 2.26621 2.18144C2.1426 2.16084 1.96748 2.18144 2.01899 2.05783C2.06019 1.96512 2.24561 2.00633 2.35892 1.98572C2.59584 1.96512 3.2242 2.25355 3.2036 2.37716C3.183 2.44927 3.183 2.57288 3.02848 2.59348H3.01818ZM7.36519 1.85181C7.33428 1.92392 7.19007 1.96512 7.10766 1.95482C6.76773 1.91362 6.469 2.14024 6.10847 1.99602C6.02606 1.96512 5.88185 1.97542 5.80974 2.04753C5.75824 2.09903 5.83034 2.25355 5.56252 2.12994C5.3153 2.01663 5.02687 1.92392 4.78995 1.84151C4.85175 1.66639 4.94446 1.60459 5.16078 1.52218C5.65523 1.33676 6.17027 1.63549 6.62352 1.43977C6.62352 1.43977 6.75743 1.50158 6.80893 1.54278C6.90164 1.60459 6.92225 1.7076 7.10766 1.7179C7.24158 1.7282 7.39609 1.7385 7.35489 1.85181H7.36519ZM11.0117 1.96512C10.5379 2.10934 9.45628 2.05783 9.06485 1.84151C8.93093 1.7694 8.83822 1.79001 8.71461 1.80031C8.18926 1.86211 8.28197 1.7179 8.43649 1.52218C8.5292 1.58399 8.591 1.62519 8.65281 1.66639C8.95154 1.48098 9.25026 1.97542 9.54899 1.66639C9.59019 1.68699 9.6314 1.7076 9.6829 1.7282C10.0331 1.86211 10.3731 1.87241 10.7027 1.7076C10.9396 1.59429 10.9499 1.7282 11.0529 1.79C11.1971 1.87241 11.2177 1.91362 11.0117 1.97542V1.96512Z" fill="#539536"/>
</svg>
