<svg width="166" height="14" viewBox="0 0 166 14" fill="none" xmlns="http://www.w3.org/2000/svg">
<path d="M10.8453 4.99625H8.46754V2.92952H7.11314V9.94234H8.45751V12.0893H2.44796V9.94234H3.77227V2.92952H2.37773V4.99625H0V0.792572H10.8453V4.99625Z" fill="#56666E"/>
<path d="M21.9314 10.0728C20.8278 11.2867 19.1523 12.3502 17.0355 12.3502C13.6043 12.3502 11.3269 10.153 11.3269 6.55132C11.3269 2.9496 14.126 0.601964 16.2429 0.601964C17.8581 0.601964 18.5905 1.5049 18.731 1.70555L19.1022 0.802617H21.6404V5.39757H18.751C18.7009 4.34414 18.1892 3.36094 17.0355 3.36094C15.8817 3.36094 15.1092 4.79561 15.1092 6.56135C15.1092 8.16657 15.9319 9.60124 17.4669 9.60124C18.8213 9.60124 19.8948 8.17661 20.0352 8.01608L21.9214 10.0828L21.9314 10.0728Z" fill="#56666E"/>
<path d="M33.0173 10.0728C31.9137 11.2867 30.2382 12.3502 28.1213 12.3502C24.6902 12.3502 22.4128 10.153 22.4128 6.55132C22.4128 2.9496 25.2119 0.601964 27.3288 0.601964C28.944 0.601964 29.6764 1.5049 29.8168 1.70555L30.1881 0.802617H32.7263V5.39757H29.8369C29.7867 4.34414 29.2751 3.36094 28.1213 3.36094C26.9676 3.36094 26.1951 4.79561 26.1951 6.56135C26.1951 8.16657 27.0177 9.60124 28.5527 9.60124C29.9071 9.60124 30.9806 8.17661 31.1211 8.01608L33.0072 10.0828L33.0173 10.0728Z" fill="#56666E"/>
<path d="M43.4113 0.792572V4.36419H40.6122V2.92952H38.0238V5.15677H41.0937V7.30375H38.0238V9.94234H40.6122V8.43744H43.4113V12.0893H33.6696V9.94234H34.6829V2.92952H33.6696V0.792572H43.4113Z" fill="#56666E"/>
<path d="M53.6246 0.792572V2.92952H52.6213V9.94234H53.6246V12.0893H48.2571V9.94234H49.2704V2.92952H48.2571V0.792572H53.6246Z" fill="#56666E"/>
<path d="M64.8812 10.0728C63.7776 11.2867 62.1021 12.3502 59.9852 12.3502C56.5541 12.3502 54.2767 10.153 54.2767 6.55132C54.2767 2.9496 57.0758 0.601964 59.1927 0.601964C60.8079 0.601964 61.5403 1.5049 61.6808 1.70555L62.052 0.802617H64.5902V5.39757H61.7008C61.6507 4.34414 61.139 3.36094 59.9852 3.36094C58.8315 3.36094 58.059 4.79561 58.059 6.56135C58.059 8.16657 58.8817 9.60124 60.4167 9.60124C61.7711 9.60124 62.8446 8.17661 62.985 8.01608L64.8712 10.0828L64.8812 10.0728Z" fill="#56666E"/>
<path d="M76.7397 3.64185C76.6093 4.3642 76.3886 5.43769 76.2682 5.8089L74.5727 12.0994H71.1917L69.3858 5.64838C69.3055 5.3775 69.0948 4.45449 69.0447 3.64185H68.9845V10.0126H69.9075V12.0994H65.5232V10.0126H66.3961V2.8894H65.5433V0.802614H71.6732L73.3085 6.8523L74.8636 0.802614H81.0236V2.8894H80.1307V10.0025H81.0236V12.0994H75.917V10.0025H76.82V3.65188H76.7598L76.7397 3.64185Z" fill="#56666E"/>
<path d="M81.816 9.9925H82.749V2.87936H81.816V0.792572H87.8456C90.5243 0.792572 91.8085 1.79584 91.8085 3.55155C91.8085 4.90595 91.4373 5.56811 90.2233 6.05971C91.3871 6.38075 92.3603 7.24356 92.3603 8.80865C92.3603 11.0861 91.0861 12.0893 87.966 12.0893H81.826V9.9925H81.816ZM86.0999 5.34739H87.0831C87.9359 5.34739 88.1867 4.87586 88.1867 4.10334C88.1867 3.33083 87.7352 2.91949 87.1232 2.91949H86.1099V5.34739H86.0999ZM87.3941 9.9925C88.0763 9.9925 88.7084 9.4708 88.7084 8.59797C88.7084 7.77529 88.2369 7.17333 87.354 7.17333H86.1099V9.98247H87.4041L87.3941 9.9925Z" fill="#56666E"/>
<path d="M92.9224 12.0893V9.97244H93.6046V6.10988H92.9224V4.01306H96.6746V9.97244H97.4471V12.0893H92.9224ZM95.1196 0C96.2332 0 96.8953 0.902938 96.8953 1.64535C96.8953 2.53826 96.2633 3.28067 95.1196 3.28067C94.1063 3.28067 93.3739 2.4279 93.3739 1.64535C93.3739 0.862807 93.9859 0 95.1196 0Z" fill="#56666E"/>
<path d="M98.0289 8.01608C98.049 5.3173 100.226 3.81241 102.453 3.81241C105.012 3.8425 106.898 5.3775 106.948 8.07628C106.978 10.755 104.992 12.3 102.534 12.3C100.226 12.3 97.9888 10.8754 98.0289 8.01608ZM103.637 8.08631C103.637 6.87236 103.216 5.93933 102.453 5.91926C101.821 5.91926 101.34 6.8523 101.34 8.03615C101.34 9.36046 101.861 10.2333 102.534 10.2333C103.206 10.2333 103.637 9.30026 103.637 8.08631Z" fill="#56666E"/>
<path d="M116.7 0.94307L112.707 13.1327H110.48L114.473 0.94307H116.7Z" fill="#56666E"/>
<path d="M127.063 8.46754C127.093 8.01607 127.324 7.22349 127.645 6.41085L129.12 2.88939H128.267V0.792572H132.862V2.88939H132.07L128.187 12.0893H125.217L120.933 2.88939H120.04V0.792572H125.99V2.88939H125.117L126.491 6.51118C126.752 7.30375 126.963 8.01607 126.993 8.46754H127.073H127.063Z" fill="#56666E"/>
<path d="M139.263 12.0893V9.97244H140.798L140.457 8.86885H137.146L136.805 9.97244H138.069V12.0893H132.932V9.97244H134.036L136.223 2.87936H135.561V0.792572H141.771L144.631 9.97244H145.764V12.0893H139.283H139.263ZM139.865 6.93255L138.802 3.44119L137.748 6.93255H139.865Z" fill="#56666E"/>
<path d="M151.503 0.792572V2.92952H150.65V9.94234H152.737V7.88565H155.456V12.0893H146.406V9.94234H147.299V2.92952H146.406V0.792572H151.513H151.503Z" fill="#56666E"/>
<path d="M166 0.792572V4.36419H163.201V2.92952H160.613V5.15677H163.682V7.30375H160.613V9.94234H163.201V8.43744H166V12.0893H156.258V9.94234H157.272V2.92952H156.258V0.792572H166Z" fill="#56666E"/>
</svg>
