<svg width="15" height="4" viewBox="0 0 15 4" fill="none" xmlns="http://www.w3.org/2000/svg">
<path d="M14.3289 2.3463C14.1023 2.23642 14.0989 2.11624 14.3186 1.98576C14.2156 1.87245 14.0199 1.91366 13.8654 1.91366C13.6799 1.91366 13.546 1.86215 13.4327 1.74884C13.6078 1.72823 13.7624 1.71793 13.989 1.68703C13.649 1.54281 13.3503 1.4089 13.1443 1.23378C13.0207 1.13077 12.8043 1.11016 12.6395 1.13076C12.1348 1.18227 11.9597 0.99685 11.7742 0.811429C11.5785 0.708418 11.1459 0.81143 11.0944 0.574503C11.0944 0.543599 10.9398 0.5436 10.8677 0.595106C10.8059 0.646612 10.7338 0.739322 10.6308 0.584804C10.5072 0.399383 10.1569 0.564202 10.1054 0.584804C9.7346 0.759924 9.61099 0.801129 9.39466 0.615709C9.16803 0.409685 8.859 0.533298 8.72509 0.5539C8.03491 0.626008 7.65376 0.46119 7.41684 0.141854C7.38593 0.0903482 7.34473 0.0903485 7.29322 0.0697461C6.79877 -0.0332655 6.2219 -0.0126632 5.82016 0.0697461C5.39781 0.141854 4.95486 0.141855 4.55311 0.18306C3.97625 0.234565 3.74962 0.512697 3.28607 0.605407C3.22426 0.615708 3.23457 0.63631 3.25517 0.667214C3.44059 1.04836 3.23457 1.24408 2.57529 1.24408C2.34867 1.24408 2.30746 1.47071 2.03963 1.34709C2.01903 1.34709 1.99842 1.36769 1.98812 1.36769C1.813 1.59432 1.49367 1.4604 1.34945 1.3986C1.20524 1.33679 1.13313 1.30589 0.97861 1.35739C0.741684 1.4398 0.576865 1.56342 0.257529 1.58402C0.0824093 1.59432 0.0824091 1.74884 0.206023 1.84155C0.103011 1.84155 0.0412047 1.87245 0 1.91366C0.556263 2.53172 1.14343 3.12919 1.7409 3.70606C1.84391 3.70606 1.94692 3.68545 2.04993 3.59274C2.22505 3.43822 2.6783 3.53094 2.81222 3.72666C2.90493 3.87087 3.01824 3.93268 3.32728 3.88118C3.84233 3.78847 4.4398 3.85027 4.93426 3.70606C5.3566 3.58244 5.61413 3.56184 5.59353 3.89148C5.59353 3.92238 5.67594 3.96359 5.73775 3.97389C6.13949 4.0872 7.38593 3.80907 7.34473 3.59274C7.27262 3.28371 7.59196 3.34552 7.88039 3.34552C8.09671 3.34552 8.25123 3.31461 8.37485 3.2116C8.39545 3.191 8.46756 3.191 8.50876 3.191C8.63237 3.26311 8.51906 3.39702 8.76629 3.42792C8.78689 3.39702 8.79719 3.36612 8.8178 3.33521C8.8899 3.2322 8.859 3.04678 9.09593 3.05709C9.43586 3.05709 9.15773 3.2219 9.20924 3.30431C9.22984 3.33521 9.32255 3.39702 9.34315 3.39702C9.63159 3.33521 9.714 3.48973 9.88912 3.54124C10.5896 3.75756 11.0531 3.60305 11.1356 3.1601C11.1562 3.06738 11.1871 2.97467 11.2283 2.84076C11.5991 3.32148 12.1382 3.63738 12.8456 3.78847C12.8249 3.53094 12.6704 3.25281 13.1546 3.06738C13.1752 3.06738 13.1546 3.00558 13.134 2.98498C12.8352 2.78926 13.1855 2.76865 13.3709 2.74805C13.6284 2.71714 13.9066 2.73775 14.1744 2.72745C14.5555 2.65534 14.6277 2.51112 14.3598 2.37721L14.3289 2.3463ZM3.01824 2.59353C2.85342 2.61413 2.74011 2.52142 2.6989 2.44932C2.6268 2.3154 2.51348 2.22269 2.26626 2.18148C2.14264 2.16088 1.96752 2.18148 2.01903 2.05787C2.06023 1.96516 2.24565 2.00637 2.35897 1.98576C2.59589 1.96516 3.22426 2.25359 3.20366 2.37721C3.18306 2.44932 3.18306 2.57293 3.02854 2.59353H3.01824ZM7.36533 1.85185C7.33443 1.92396 7.19021 1.96516 7.1078 1.95486C6.76786 1.91366 6.46913 2.14028 6.10859 1.99606C6.02618 1.96516 5.88196 1.97546 5.80986 2.04757C5.75835 2.09907 5.83046 2.25359 5.56263 2.12998C5.3154 2.01667 5.02697 1.92396 4.79004 1.84155C4.85185 1.66643 4.94456 1.60462 5.16088 1.52221C5.65534 1.33679 6.1704 1.63552 6.62365 1.4398C6.62365 1.4398 6.75756 1.50161 6.80907 1.54281C6.90178 1.60462 6.92238 1.70763 7.1078 1.71793C7.24172 1.72823 7.39624 1.73853 7.35503 1.85185H7.36533ZM11.0119 1.96516C10.5381 2.10938 9.45647 2.05787 9.06502 1.84155C8.93111 1.76944 8.8384 1.79004 8.71478 1.80034C8.18942 1.86215 8.28214 1.71793 8.43665 1.52221C8.52936 1.58402 8.59117 1.62522 8.65298 1.66643C8.95171 1.481 9.25044 1.97546 9.54918 1.66643C9.59038 1.68703 9.63159 1.70763 9.68309 1.72823C10.0333 1.86215 10.3733 1.87245 10.7029 1.70763C10.9398 1.59432 10.9501 1.72823 11.0531 1.79004C11.1974 1.87245 11.218 1.91365 11.0119 1.97546V1.96516Z" fill="#539536"/>
</svg>
