<svg width="17" height="5" viewBox="0 0 17 5" fill="none" xmlns="http://www.w3.org/2000/svg">
<path d="M2.88402 4.48012C2.97467 4.48012 3.07539 4.50026 3.13582 4.4499C3.13582 4.39954 3.12575 4.33911 3.11568 4.28875C3.09553 4.28875 3.08546 4.26861 3.06532 4.25854C3.08546 4.25854 3.11568 4.26861 3.13582 4.27868C3.33726 4.31897 3.52862 4.25854 3.68978 4.25854C3.92143 4.34919 3.47826 4.42976 3.77035 4.52041C3.94157 4.45998 4.12287 4.38947 4.15308 4.29882C4.19337 4.17796 4.39481 4.15782 4.61639 4.19811C5.03941 4.27868 5.32143 4.1981 5.67394 4.11753C5.94589 4.0571 6.31855 3.92616 6.60056 3.9866C7.1243 4.10746 7.81926 4.02688 8.26243 4.21825C8.39336 4.27868 8.5243 4.27868 8.71566 4.19811C8.89696 4.11753 8.80631 3.82544 9.47106 3.99667C9.56171 4.01681 9.57178 3.96645 9.55163 3.92616C9.52142 3.88588 9.53149 3.81537 9.64228 3.83552C9.91422 3.88588 10.1862 3.67436 10.4581 3.83552C10.5185 3.8758 10.8912 3.88587 10.8509 3.8053C10.7301 3.59379 11.2437 3.70458 11.3646 3.63408C11.3847 3.51321 10.9818 3.483 11.0826 3.32185C11.1732 3.1607 11.4552 3.21106 11.6567 3.1607C11.7574 3.14055 11.848 3.11034 11.7977 3.07005C11.7272 3.00962 11.5862 3.01969 11.4653 3.0499C10.9516 3.17077 10.8006 3.08012 10.8006 2.88875C10.8006 2.80818 10.861 2.70746 10.4682 2.74775C10.297 2.76789 10.2466 2.68732 10.2567 2.64703C10.3171 2.48588 10.3272 2.34487 9.743 2.34487C9.743 2.18372 9.69264 2.04271 9.11854 2.09307C9.07825 1.88156 8.79624 1.96214 8.53437 2.02257C8.42358 2.05279 8.29264 2.083 8.17178 2.04271C8.03078 2.00242 8.15164 1.95207 8.202 1.91178C8.29264 1.82113 8.41351 1.74055 8.38329 1.61969C8.26243 1.63984 8.18185 1.63984 8.11135 1.65998C7.7689 1.73048 7.52718 1.84127 7.10416 1.87149C6.66099 1.91178 6.69121 1.60962 6.21783 1.73048C6.14732 1.75063 6.12718 1.67005 6.12718 1.62976C6.12718 1.58948 6.12718 1.53912 6.27826 1.53912C6.81207 1.53912 6.86243 1.37797 6.91279 1.22689C6.95308 1.09595 7.0538 1.03552 7.46675 1.13624C7.85955 1.22689 8.343 1.31753 8.8466 1.23696C9.33005 1.16646 9.31998 1.15638 9.61207 1.29739C9.98473 1.48876 10.6495 1.52904 11.2639 1.39811C11.425 1.36789 11.5862 1.27725 11.7574 1.36789C11.9185 1.46861 11.6164 1.47869 11.5056 1.52905C11.3747 1.58948 11.0221 1.6902 11.2135 1.73048C11.8279 1.88156 11.5761 2.05279 11.3948 2.25422C11.8178 2.11322 12.5531 2.45566 12.7344 2.09307C13.0567 2.12329 12.7847 2.35494 13.0869 2.27437C13.389 2.19379 13.52 2.27437 13.7315 2.27437C13.7919 2.25422 13.8523 2.22401 13.9128 2.20386C13.5703 2.13336 13.7013 2.10314 13.9833 2.083C14.1545 2.06286 14.497 2.12329 14.4567 1.98228C14.4164 1.86142 14.1545 1.93192 13.9833 1.93192C13.7214 1.93192 13.5905 1.88156 13.5502 1.78084C13.4696 1.60962 13.4696 1.60962 13.0768 1.61969C13.1977 1.42497 12.9694 1.30411 12.3919 1.2571C12.3919 1.2571 12.3113 1.24703 12.2811 1.23696C12.5329 1.0053 11.8178 1.07581 11.6768 0.954944C11.5257 0.834081 11.3545 1.02545 11.1128 0.975089C11.1027 0.914657 11.0826 0.844155 11.0725 0.773651C10.5018 0.807225 10.2332 0.773651 10.2667 0.672932C10.0552 0.642716 10.025 0.753507 9.84372 0.753507C9.76315 0.602428 8.76603 0.270054 8.41351 0.320414C7.83941 0.400989 7.65811 0.239838 7.39624 0.118975C7.26531 0.0585432 7.14445 -0.0522481 6.89265 0.0283273C6.62071 0.108903 6.92286 0.169335 7.04373 0.229767C7.13437 0.280126 7.39624 0.320414 7.24517 0.390917C7.06387 0.471493 6.91279 0.390918 6.78186 0.330486C6.66099 0.270055 6.53006 0.219695 6.4797 0.35063C6.44948 0.441278 6.31855 0.370773 6.26819 0.360701C5.82502 0.270053 5.7243 0.330486 5.88545 0.501709C5.60344 0.501709 5.38186 0.411061 5.11999 0.471493C5.02934 0.541996 5.19049 0.582283 5.28114 0.622571C5.68402 0.793794 5.44229 0.954946 5.22071 1.09595C5.10992 1.16646 5.09984 1.19667 5.29121 1.21681C5.61351 1.2571 5.21063 1.33768 5.34157 1.38804C5.0797 1.36789 4.97898 1.49883 4.78761 1.47868C4.53582 1.45854 4.33438 1.37797 4.27395 1.27725C4.24373 1.22689 4.40488 1.14631 4.1128 1.16646C3.94157 1.16646 3.84085 1.23696 3.89121 1.29739C3.96172 1.38804 3.92143 1.46861 3.70992 1.5089C3.45812 1.55926 3.38762 1.45854 3.26675 1.41825C3.21639 1.39811 3.12575 1.38804 3.05524 1.37797C2.87395 1.56933 2.52143 1.41825 2.25956 1.42833C2.11855 1.5794 2.52143 1.62976 2.57179 1.75063C2.14877 1.75063 1.87683 1.94199 1.35309 1.86142C1.66532 1.99235 1.91712 2.083 1.49409 2.24415C1.32287 2.30458 1.65525 2.31466 1.75597 2.3348C1.96748 2.38516 1.61496 2.46573 1.83654 2.51609C1.65525 2.56645 1.69553 2.47581 1.61496 2.45566C1.34302 2.39523 1.40345 2.54631 1.12143 2.51609C1.45381 2.60674 1.67539 2.66717 1.98762 2.74775C1.6351 2.74775 1.28259 2.74775 1.46388 2.93911C1.10129 2.86861 0.88978 2.75782 0.527191 2.78804C0.396256 2.86861 0.597694 2.89883 0.67827 2.92904C0.88978 3.01969 1.03079 3.08012 0.67827 3.18084C0.265321 3.29163 0.507048 3.42257 0.708486 3.54343C0.46676 3.58372 -0.046909 3.54343 0.00345063 3.66429C0.0638822 3.8053 0.255249 3.76501 0.537263 3.82544C0.587623 3.90602 0.648053 3.86573 0.658125 3.93623C0.658125 3.98659 0.688342 4.07724 0.799134 4.0571C1.28259 3.96645 1.64517 4.18803 2.09841 4.11753C2.68258 4.11753 2.49122 4.39954 2.91424 4.45997L2.88402 4.48012Z" fill="#539536"/>
<path d="M16.5518 3.9161C15.7763 3.85567 15.6655 3.58373 15.2122 3.40243C15.6655 3.44272 15.7662 3.20099 16.2194 3.30171C16.1288 3.18085 15.9374 3.18085 15.7863 3.1607C15.7259 3.1607 15.6453 3.14056 15.6252 3.12042C15.3633 2.87869 15.3633 2.87869 14.6281 2.75783C14.7791 2.71754 14.9101 2.68732 15.0611 2.64704C14.7791 2.53624 14.3561 2.58661 14.064 2.50603C14.0137 2.40531 14.3058 2.46574 14.336 2.40531C14.1345 2.37509 14.0237 2.25423 13.7115 2.29452C13.5101 2.29452 13.3691 2.21394 13.0669 2.29452C12.7647 2.37509 13.0266 2.14344 12.7144 2.11323C12.5432 2.48589 11.8079 2.13337 11.3748 2.27438C11.5561 2.07294 11.8079 1.90171 11.1935 1.75064C11.0022 1.70028 11.3547 1.60963 11.4856 1.5492C11.5964 1.49884 11.8986 1.47869 11.7374 1.38805C11.5763 1.28733 11.405 1.38805 11.2439 1.41826C10.6295 1.53912 9.96475 1.49884 9.59209 1.31754C9.30001 1.17654 9.31008 1.17654 8.82663 1.25711C8.32303 1.33769 7.83958 1.24704 7.44677 1.15639C7.03382 1.06574 6.94318 1.1161 6.89282 1.24704C6.84246 1.40819 6.80217 1.5492 6.25829 1.55927C6.11728 1.55927 6.10721 1.60963 6.10721 1.64992C6.10721 1.6902 6.13742 1.77078 6.19785 1.75064C6.67123 1.63984 6.64102 1.93193 7.08418 1.89164C7.49713 1.85135 7.74893 1.74056 8.09138 1.68013C8.16188 1.67006 8.25252 1.65999 8.36332 1.63984C8.39353 1.75063 8.27267 1.84128 8.18202 1.93193C8.14174 1.97222 8.0108 2.02258 8.15181 2.06286C8.27267 2.10315 8.40361 2.06286 8.5144 2.04272C8.78634 1.98229 9.05828 1.90171 9.09857 2.11323C9.6626 2.07294 9.71295 2.21394 9.72303 2.36502C10.3072 2.36502 10.2971 2.49596 10.2367 2.66718C10.2166 2.70747 10.277 2.78804 10.4482 2.7679C10.8309 2.72761 10.7705 2.82833 10.7806 2.90891C10.7806 3.10027 10.9417 3.19092 11.4453 3.07006C11.5561 3.03984 11.6971 3.02977 11.7777 3.0902C11.8281 3.14056 11.7374 3.1607 11.6367 3.18085C11.4453 3.22114 11.1633 3.18085 11.0626 3.342C10.9719 3.50315 11.3648 3.53337 11.3446 3.65423C11.2237 3.72473 10.7201 3.61394 10.8309 3.82545C10.8712 3.90603 10.5086 3.89596 10.4381 3.85567C10.1662 3.68445 9.90432 3.89596 9.62231 3.85567C9.52159 3.83552 9.50145 3.90603 9.53166 3.94632C9.56188 3.97653 9.54173 4.03696 9.45108 4.01682C8.78634 3.8456 8.87698 4.13768 8.69569 4.21826C8.50432 4.3089 8.37339 4.29883 8.24245 4.2384C7.79929 4.03696 7.10433 4.12761 6.58059 4.00675C6.29857 3.93624 5.91584 4.06718 5.65397 4.13768C5.30145 4.21826 5.01944 4.29883 4.59642 4.21826C4.37483 4.17797 4.1734 4.19811 4.13311 4.31898C4.10289 4.40962 3.93167 4.47006 3.75037 4.54056C3.73023 4.54056 3.72016 4.53049 3.70002 4.52041C3.71009 4.47006 3.70002 4.43984 3.67987 4.4197C3.73023 4.37941 3.78059 4.32905 3.65973 4.28876C3.55901 4.28876 3.44822 4.3089 3.32735 4.31898C3.25685 4.26862 3.22663 4.19811 3.1662 4.14775C3.10577 4.09739 2.99498 4.01682 2.98491 4.02689C2.55182 4.25854 2.04822 3.90603 1.5547 4.11754C1.33311 4.21826 1.25254 4.28876 1.19211 4.50027C1.41369 4.60099 1.6957 4.71178 1.9475 4.84272C2.20937 4.98372 2.11872 4.99379 2.16908 4.93336C2.23959 4.84272 2.38059 4.83264 2.46117 4.87293C2.47124 4.87293 2.49138 4.87293 2.50146 4.883C2.48131 4.883 2.46117 4.90315 2.44103 4.91322C2.42088 4.92329 2.49139 4.98372 2.55182 4.9938C2.83383 5.04416 3.03527 4.77221 3.27699 4.75207C3.80073 4.69164 4.40505 4.71178 4.95901 4.70171C5.03958 4.79236 4.7475 4.78228 4.77771 4.86286C5.40217 4.78228 6.05685 4.95351 6.71152 4.78228C6.88274 4.742 7.39641 4.883 7.56764 4.68157C7.82951 4.70171 7.72879 4.83264 7.95037 4.87293C8.16188 4.84271 8.12159 4.75207 8.21224 4.68157C8.42375 4.742 8.62519 4.79236 8.82663 4.84272C9.07842 4.91322 9.31008 4.96358 9.47123 4.80243C9.57195 4.70171 9.77339 4.70171 9.88418 4.79236C10.0655 4.94344 10.2971 4.90315 10.559 4.84272C10.6899 4.8125 10.7806 4.742 10.9115 4.87293C11.0324 4.99379 11.3043 4.87293 11.4353 4.8125C11.6065 4.72185 11.6871 4.69164 11.9288 4.8125C12.1504 4.92329 13.0669 4.8125 13.2079 4.65135C13.3288 4.51034 13.4194 4.53049 13.6209 4.61106C13.8626 4.70171 14.0439 4.67149 14.195 4.57077C14.487 4.37941 14.7892 4.24847 15.2928 4.50027C15.4137 4.5607 15.6453 4.59092 15.7964 4.52041C15.9878 4.42977 15.7259 4.38948 15.5748 4.35926C15.3834 4.31898 15.182 4.29883 15.0209 4.22833C15.6252 4.22833 15.7763 3.88588 16.5115 3.93624L16.5518 3.9161Z" fill="#266726"/>
</svg>
