<svg width="119" height="35" viewBox="0 0 119 35" fill="none" xmlns="http://www.w3.org/2000/svg">
<path d="M31.6761 1.18863H25.3942L17.2159 23.3264C16.7418 24.6041 16.4455 25.4659 16.4455 25.4659H16.3566C16.3566 25.4659 9.92656 9.27114 6.60783 1.18863H0L11.6156 29.6557C12.2675 31.3198 14.4009 34.0536 18.5493 34.0536L31.6465 1.15891L31.6761 1.18863Z" fill="#7D7C7C"/>
<path d="M91.8575 33.6078V28.4968H77.4566V1.18861H71.5599V33.6078H91.8575Z" fill="#7D7C7C"/>
<path d="M118.289 33.6078V28.4968H104.629V19.196H116.185V14.2633H104.629V6.29962H112.481C118.645 6.29962 119 1.18861 119 1.18861H98.7025V33.6078H118.259H118.289Z" fill="#7D7C7C"/>
<path d="M52.2106 0H46.225L31.9723 34.529H38.6986L42.1359 25.7333H55.4108L58.8481 34.529H65.9004L52.2106 0ZM44.3583 20.2954L48.8326 8.6471L48.8919 8.43909L53.3662 20.2954H44.3583Z" fill="#7D7C7C"/>
</svg>
