<svg width="126" height="8" viewBox="0 0 126 8" fill="none" xmlns="http://www.w3.org/2000/svg">
<path d="M2.53624 6.65638C1.07264 6.65638 0 5.50355 0 4.03994C0 2.57634 1.07264 1.41348 2.56631 1.41348C3.48858 1.41348 4.03994 1.73427 4.54117 2.21545L4.15021 2.63649C3.71915 2.2355 3.24799 1.94479 2.55629 1.94479C1.43352 1.94479 0.591452 2.84701 0.591452 4.02992C0.591452 5.21283 1.43352 6.12508 2.55629 6.12508C3.24799 6.12508 3.70912 5.85441 4.1903 5.39328L4.57125 5.76419C4.03994 6.2955 3.46853 6.65638 2.54626 6.65638H2.53624Z" fill="#231F20"/>
<path d="M7.7693 6.65638C6.2255 6.65638 5.19295 5.4434 5.19295 4.03994C5.19295 2.63649 6.24555 1.41348 7.78935 1.41348C9.33315 1.41348 10.3657 2.62647 10.3657 4.02992C10.3657 5.43337 9.3131 6.65638 7.7693 6.65638ZM7.7693 1.94479C6.60644 1.94479 5.78441 2.86706 5.78441 4.02992C5.78441 5.19278 6.62648 6.12508 7.77932 6.12508C8.93216 6.12508 9.76421 5.20281 9.76421 4.03994C9.76421 2.87708 8.92214 1.94479 7.7693 1.94479Z" fill="#231F20"/>
<path d="M14.0045 5.18275H13.9744L12.1299 2.47609V6.57617H11.5685V1.51372H12.1499L13.9945 4.28053L15.839 1.51372H16.4205V6.57617H15.849V2.47609L14.0045 5.19277V5.18275Z" fill="#231F20"/>
<path d="M19.6584 4.78177H18.4254V6.56616H17.854V1.5037H19.7487C20.8915 1.5037 21.6433 2.11521 21.6433 3.11767C21.6433 4.22039 20.7311 4.78177 19.6484 4.78177H19.6584ZM19.7086 2.03501H18.4254V4.26048H19.6785C20.5206 4.26048 21.0719 3.80938 21.0719 3.13772C21.0719 2.40592 20.5306 2.03501 19.7086 2.03501Z" fill="#231F20"/>
<path d="M26.355 2.02498H23.2674V3.75924H26.0342V4.28053H23.2674V6.05489H26.3951V6.57617H22.696V1.51372H26.355V2.035V2.02498Z" fill="#231F20"/>
<path d="M31.2669 1.5037H31.8283V6.56616H31.3772L28.1091 2.41594V6.56616H27.5478V1.5037H28.0791L31.2669 5.56369V1.5037Z" fill="#231F20"/>
<path d="M35.0762 3.75925C36.2089 4.00987 36.7302 4.42088 36.7302 5.20281C36.7302 6.07495 36.0085 6.64636 34.996 6.64636C34.194 6.64636 33.5324 6.37569 32.9209 5.83436L33.2717 5.41332C33.803 5.89451 34.3043 6.12508 35.006 6.12508C35.7077 6.12508 36.1388 5.77421 36.1388 5.25293C36.1388 4.77174 35.8882 4.51111 34.8255 4.28054C33.6627 4.02992 33.1213 3.64898 33.1213 2.80691C33.1213 1.96484 33.8231 1.41348 34.7854 1.41348C35.5273 1.41348 36.0486 1.624 36.5698 2.03501L36.239 2.4761C35.7679 2.09516 35.2967 1.92474 34.7754 1.92474C34.1138 1.92474 33.6928 2.28563 33.6928 2.74676C33.6928 3.2079 33.9534 3.49861 35.0661 3.7392L35.0762 3.75925Z" fill="#231F20"/>
<path d="M42.5046 6.56616H41.8931L41.3017 5.22286H38.5449L37.9434 6.56616H37.362L39.6676 1.46361H40.1989L42.5046 6.56616ZM39.9183 2.13526L38.7554 4.72163H41.0611L39.9082 2.13526H39.9183Z" fill="#231F20"/>
<path d="M43.2764 4.03994C43.2764 2.59639 44.3491 1.41348 45.8427 1.41348C46.765 1.41348 47.3164 1.73427 47.8176 2.21545L47.4266 2.63649C46.9956 2.2355 46.5244 1.94479 45.8327 1.94479C44.7099 1.94479 43.8679 2.84701 43.8679 4.02992C43.8679 5.21283 44.7099 6.12508 45.8327 6.12508C46.5244 6.12508 46.9855 5.85441 47.4667 5.39328L47.8477 5.76419C47.3364 6.27545 46.7951 6.61628 45.9329 6.65638L45.4518 7.68892L44.9104 7.43831L45.4718 6.62631C44.1887 6.45589 43.2764 5.38325 43.2764 4.02992V4.03994Z" fill="#231F20"/>
<path d="M53.5616 6.56616H52.9501L52.3586 5.22285H49.6019L49.0004 6.56616H48.419L50.7246 1.4636H51.2559L53.5616 6.56616ZM51.4865 1.05259C51.1657 1.05259 50.7647 0.761873 50.5141 0.761873C50.3236 0.761873 50.2434 0.852094 50.1332 1.11273L49.7923 1.02251C49.9327 0.481181 50.1332 0.26064 50.484 0.26064C50.8148 0.26064 51.2058 0.551354 51.4564 0.551354C51.6469 0.551354 51.7271 0.461132 51.8374 0.20049L52.1782 0.290712C52.0379 0.832045 51.8374 1.05259 51.4865 1.05259ZM50.9752 2.13525L49.8124 4.72162H52.118L50.9652 2.13525H50.9752Z" fill="#231F20"/>
<path d="M56.9102 6.65638C55.3664 6.65638 54.3339 5.4434 54.3339 4.03994C54.3339 2.63649 55.3865 1.41348 56.9303 1.41348C58.4741 1.41348 59.5066 2.62647 59.5066 4.02992C59.5066 5.43337 58.454 6.65638 56.9102 6.65638ZM56.9102 1.94479C55.7474 1.94479 54.9254 2.86706 54.9254 4.02992C54.9254 5.19278 55.7674 6.12508 56.9203 6.12508C58.0731 6.12508 58.9051 5.20281 58.9051 4.03994C58.9051 2.87708 58.0631 1.94479 56.9102 1.94479Z" fill="#231F20"/>
<path d="M66.5437 2.02498H63.4561V3.75924H66.2229V4.28053H63.4561V6.05489H66.5838V6.57617H62.8847V1.51372H66.5437V2.035V2.02498Z" fill="#231F20"/>
<path d="M69.5511 3.75925C70.6839 4.00987 71.2052 4.42088 71.2052 5.20281C71.2052 6.07495 70.4834 6.64636 69.4709 6.64636C68.669 6.64636 68.0073 6.37569 67.3958 5.83436L67.7467 5.41332C68.278 5.89451 68.7792 6.12508 69.481 6.12508C70.1827 6.12508 70.6138 5.77421 70.6138 5.25293C70.6138 4.77174 70.3631 4.51111 69.3005 4.28054C68.1376 4.02992 67.5963 3.64898 67.5963 2.80691C67.5963 1.96484 68.298 1.41348 69.2604 1.41348C70.0022 1.41348 70.5235 1.624 71.0448 2.03501L70.714 2.4761C70.2428 2.09516 69.7717 1.92474 69.2504 1.92474C68.5888 1.92474 68.1677 2.28563 68.1677 2.74676C68.1677 3.2079 68.4284 3.49861 69.5411 3.7392L69.5511 3.75925Z" fill="#231F20"/>
<path d="M74.1627 4.78177H72.9296V6.56616H72.3582V1.5037H74.2529C75.3957 1.5037 76.1476 2.11521 76.1476 3.11767C76.1476 4.22039 75.2353 4.78177 74.1527 4.78177H74.1627ZM74.2128 2.03501H72.9296V4.26048H74.1827C75.0248 4.26048 75.5762 3.80938 75.5762 3.13772C75.5762 2.40592 75.0348 2.03501 74.2128 2.03501Z" fill="#231F20"/>
<path d="M80.8588 2.02498H77.7712V3.75924H80.538V4.28053H77.7712V6.05489H80.8988V6.57617H77.1997V1.51372H80.8588V2.035V2.02498Z" fill="#231F20"/>
<path d="M82.052 1.5037H82.6234V6.04487H85.4804V6.57618H82.052V1.51373V1.5037Z" fill="#231F20"/>
<path d="M90.1918 2.02498H87.1042V3.75924H89.871V4.28053H87.1042V6.05489H90.2319V6.57617H86.5328V1.51372H90.1918V2.035V2.02498Z" fill="#231F20"/>
<path d="M93.7308 6.65638C92.187 6.65638 91.1545 5.4434 91.1545 4.03994C91.1545 2.63649 92.2071 1.41348 93.7509 1.41348C95.2947 1.41348 96.3272 2.62647 96.3272 4.02992C96.3272 5.43337 95.2746 6.65638 93.7308 6.65638ZM93.7308 1.94479C92.568 1.94479 91.7459 2.86706 91.7459 4.02992C91.7459 5.19278 92.588 6.12508 93.7409 6.12508C94.8937 6.12508 95.7257 5.20281 95.7257 4.03994C95.7257 2.87708 94.8837 1.94479 93.7308 1.94479Z" fill="#231F20"/>
<path d="M97.53 1.5037H98.1015V6.04487H100.958V6.57618H97.53V1.51373V1.5037Z" fill="#231F20"/>
<path d="M104.367 6.65638C102.823 6.65638 101.791 5.44339 101.791 4.03994C101.791 2.63649 102.843 1.41348 104.387 1.41348C105.931 1.41348 106.963 2.62646 106.963 4.02992C106.963 5.43337 105.911 6.65638 104.367 6.65638ZM104.367 1.94478C103.204 1.94478 102.382 2.86706 102.382 4.02992C102.382 5.19278 103.224 6.12507 104.377 6.12507C105.53 6.12507 106.362 5.2028 106.362 4.03994C106.362 2.87708 105.52 1.94478 104.367 1.94478ZM104.186 1.05259L104.878 0L105.46 0.270665L104.638 1.05259H104.186Z" fill="#231F20"/>
<path d="M110.512 6.65638C108.918 6.65638 107.936 5.49352 107.936 4.03994C107.936 2.58637 108.958 1.41348 110.472 1.41348C111.324 1.41348 111.855 1.6641 112.356 2.08513L111.985 2.5162C111.595 2.17536 111.163 1.93477 110.442 1.93477C109.319 1.93477 108.517 2.88711 108.517 4.01989C108.517 5.23288 109.289 6.1351 110.522 6.1351C111.103 6.1351 111.635 5.91456 111.985 5.62384V4.36073H110.442V3.84948H112.537V5.86443C112.066 6.28547 111.354 6.63633 110.502 6.63633L110.512 6.65638Z" fill="#231F20"/>
<path d="M114.462 1.5037V6.56616H113.89V1.5037H114.462Z" fill="#231F20"/>
<path d="M118.261 6.65638C116.797 6.65638 115.725 5.50355 115.725 4.03994C115.725 2.57634 116.797 1.41348 118.291 1.41348C119.213 1.41348 119.765 1.73427 120.266 2.21545L119.875 2.63649C119.444 2.2355 118.973 1.94479 118.281 1.94479C117.158 1.94479 116.316 2.84701 116.316 4.02992C116.316 5.21283 117.158 6.12508 118.281 6.12508C118.973 6.12508 119.434 5.85441 119.915 5.39328L120.296 5.76419C119.765 6.2955 119.193 6.65638 118.271 6.65638H118.261Z" fill="#231F20"/>
<path d="M126 6.56616H125.389L124.797 5.22286H122.04L121.439 6.56616H120.857L123.163 1.46361H123.694L126 6.56616ZM123.424 2.13526L122.261 4.72163H124.567L123.414 2.13526H123.424Z" fill="#231F20"/>
</svg>
