<svg width="17" height="5" viewBox="0 0 17 5" fill="none" xmlns="http://www.w3.org/2000/svg">
<path d="M2.88399 4.48006C2.97463 4.48006 3.07535 4.50021 3.13578 4.44985C3.13578 4.39949 3.12571 4.33906 3.11564 4.2887C3.09549 4.2887 3.08542 4.26856 3.06528 4.25849C3.08542 4.25849 3.11564 4.26855 3.13578 4.27863C3.33722 4.31891 3.52858 4.25849 3.68973 4.25849C3.92138 4.34913 3.47822 4.4297 3.7703 4.52035C3.94152 4.45992 4.12282 4.38942 4.15303 4.29877C4.19332 4.17791 4.39476 4.15777 4.61634 4.19805C5.03935 4.27863 5.32136 4.19805 5.67387 4.11748C5.94581 4.05705 6.31847 3.92612 6.60048 3.98655C7.12421 4.10741 7.81917 4.02683 8.26233 4.2182C8.39326 4.27863 8.52419 4.27863 8.71556 4.19805C8.89685 4.11748 8.8062 3.8254 9.47094 3.99662C9.56159 4.01676 9.57166 3.9664 9.55152 3.92611C9.5213 3.88583 9.53137 3.81532 9.64216 3.83547C9.9141 3.88583 10.186 3.67432 10.458 3.83547C10.5184 3.87576 10.8911 3.88583 10.8508 3.80525C10.7299 3.59374 11.2436 3.70453 11.3644 3.63403C11.3846 3.51317 10.9817 3.48296 11.0824 3.32181C11.1731 3.16066 11.4551 3.21102 11.6565 3.16066C11.7572 3.14051 11.8479 3.1103 11.7975 3.07001C11.727 3.00958 11.586 3.01965 11.4652 3.04987C10.9515 3.17073 10.8004 3.08008 10.8004 2.88872C10.8004 2.80814 10.8609 2.70743 10.4681 2.74771C10.2968 2.76786 10.2465 2.68728 10.2565 2.647C10.317 2.48585 10.327 2.34484 9.74288 2.34484C9.74288 2.18369 9.69252 2.04269 9.11843 2.09305C9.07814 1.88154 8.79613 1.96211 8.53426 2.02255C8.42348 2.05276 8.29254 2.08297 8.17168 2.04269C8.03068 2.0024 8.15154 1.95204 8.2019 1.91175C8.29254 1.82111 8.4134 1.74053 8.38319 1.61967C8.26233 1.63981 8.18175 1.63982 8.11125 1.65996C7.76881 1.73046 7.52709 1.84125 7.10407 1.87147C6.66091 1.91175 6.69113 1.6096 6.21775 1.73046C6.14725 1.75061 6.12711 1.67003 6.12711 1.62974C6.12711 1.58946 6.12711 1.5391 6.27818 1.5391C6.81199 1.5391 6.86235 1.37795 6.91271 1.22687C6.95299 1.09594 7.05371 1.03551 7.46666 1.13623C7.85946 1.22687 8.3429 1.31752 8.84649 1.23694C9.32994 1.16644 9.31987 1.15637 9.61195 1.29737C9.98461 1.48874 10.6493 1.52903 11.2637 1.39809C11.4249 1.36788 11.586 1.27723 11.7572 1.36788C11.9184 1.46859 11.6162 1.47867 11.5054 1.52903C11.3745 1.58946 11.022 1.69017 11.2134 1.73046C11.8277 1.88154 11.5759 2.05276 11.3947 2.2542C11.8177 2.11319 12.5529 2.45563 12.7342 2.09305C13.0565 2.12326 12.7846 2.35491 13.0867 2.27434C13.3889 2.19377 13.5198 2.27434 13.7313 2.27434C13.7917 2.2542 13.8522 2.22398 13.9126 2.20384C13.5702 2.13334 13.7011 2.10312 13.9831 2.08298C14.1543 2.06283 14.4968 2.12326 14.4565 1.98226C14.4162 1.8614 14.1543 1.9319 13.9831 1.9319C13.7212 1.9319 13.5903 1.88154 13.55 1.78082C13.4694 1.6096 13.4694 1.6096 13.0766 1.61967C13.1975 1.42495 12.9692 1.30409 12.3918 1.25709C12.3918 1.25709 12.3112 1.24702 12.281 1.23694C12.5328 1.00529 11.8177 1.07579 11.6767 0.954933C11.5256 0.834071 11.3544 1.02544 11.1126 0.975077C11.1026 0.914646 11.0824 0.844144 11.0724 0.773642C10.5016 0.807215 10.233 0.773642 10.2666 0.672923C10.0551 0.642708 10.0249 0.753498 9.8436 0.753498C9.76303 0.602421 8.76592 0.270051 8.4134 0.32041C7.83931 0.400984 7.65802 0.239835 7.39615 0.118973C7.26522 0.0585425 7.14436 -0.0522475 6.89256 0.0283269C6.62062 0.108901 6.92278 0.169333 7.04364 0.229764C7.13429 0.280123 7.39615 0.32041 7.24508 0.390912C7.06378 0.471487 6.91271 0.390913 6.78177 0.330482C6.66091 0.270051 6.52998 0.219693 6.47962 0.350626C6.4494 0.441272 6.31847 0.370768 6.26811 0.360696C5.82495 0.27005 5.72423 0.330482 5.88538 0.501703C5.60337 0.501703 5.38179 0.411056 5.11993 0.471487C5.02928 0.541989 5.19043 0.582276 5.28107 0.622563C5.68395 0.793784 5.44222 0.954934 5.22064 1.09594C5.10985 1.16644 5.09978 1.19666 5.29115 1.2168C5.61344 1.25709 5.21057 1.33766 5.3415 1.38802C5.07964 1.36788 4.97892 1.49881 4.78756 1.47867C4.53576 1.45852 4.33432 1.37795 4.27389 1.27723C4.24368 1.22687 4.40483 1.1463 4.11275 1.16644C3.94152 1.16644 3.84081 1.23694 3.89117 1.29737C3.96167 1.38802 3.92138 1.4686 3.70987 1.50888C3.45808 1.55924 3.38758 1.45852 3.26671 1.41824C3.21635 1.39809 3.12571 1.38802 3.05521 1.37795C2.87391 1.56931 2.5214 1.41824 2.25953 1.42831C2.11853 1.57939 2.5214 1.62974 2.57176 1.75061C2.14874 1.75061 1.87681 1.94197 1.35307 1.8614C1.6653 1.99233 1.91709 2.08298 1.49408 2.24412C1.32286 2.30455 1.65523 2.31463 1.75594 2.33477C1.96745 2.38513 1.61494 2.4657 1.83652 2.51606C1.65523 2.56642 1.69551 2.47578 1.61494 2.45563C1.343 2.3952 1.40343 2.54628 1.12142 2.51606C1.45379 2.60671 1.67537 2.66714 1.98759 2.74771C1.63508 2.74771 1.28257 2.74771 1.46386 2.93908C1.10128 2.86858 0.88977 2.75779 0.527185 2.788C0.396251 2.86858 0.597687 2.89879 0.678261 2.92901C0.889769 3.01965 1.03077 3.08008 0.678261 3.1808C0.265317 3.29159 0.507041 3.42253 0.708477 3.54339C0.466754 3.58367 -0.0469084 3.54339 0.00345058 3.66425C0.0638814 3.80525 0.255246 3.76497 0.537257 3.8254C0.587616 3.90597 0.648045 3.86568 0.658117 3.93618C0.658117 3.98654 0.688334 4.07719 0.799124 4.05705C1.28257 3.9664 1.64515 4.18798 2.09839 4.11748C2.68255 4.11748 2.49118 4.39949 2.9142 4.45992L2.88399 4.48006Z" fill="#539536"/>
<path d="M16.5516 3.91608C15.7761 3.85565 15.6653 3.58371 15.212 3.40242C15.6653 3.44271 15.766 3.20098 16.2192 3.3017C16.1286 3.18084 15.9372 3.18084 15.7861 3.1607C15.7257 3.1607 15.6451 3.14055 15.625 3.12041C15.3631 2.87869 15.3631 2.87869 14.6279 2.75782C14.7789 2.71754 14.9099 2.68732 15.061 2.64703C14.779 2.53624 14.3559 2.5866 14.0639 2.50603C14.0135 2.40531 14.3056 2.46574 14.3358 2.40531C14.1344 2.3751 14.0236 2.25423 13.7113 2.29452C13.5099 2.29452 13.3689 2.21395 13.0667 2.29452C12.7646 2.3751 13.0265 2.14345 12.7142 2.11323C12.543 2.48589 11.8078 2.13337 11.3747 2.27438C11.556 2.07294 11.8078 1.90172 11.1934 1.75064C11.002 1.70029 11.3545 1.60964 11.4855 1.54921C11.5963 1.49885 11.8984 1.47871 11.7373 1.38806C11.5761 1.28734 11.4049 1.38806 11.2437 1.41828C10.6294 1.53914 9.96463 1.49885 9.59197 1.31756C9.29989 1.17655 9.30996 1.17655 8.82652 1.25713C8.32293 1.3377 7.83948 1.24705 7.44668 1.15641C7.03374 1.06576 6.94309 1.11612 6.89273 1.24705C6.84237 1.4082 6.80209 1.54921 6.25821 1.55928C6.1172 1.55928 6.10713 1.60964 6.10713 1.64993C6.10713 1.69021 6.13735 1.77079 6.19778 1.75064C6.67115 1.63985 6.64094 1.93194 7.0841 1.89165C7.49704 1.85136 7.74883 1.74057 8.09128 1.68014C8.16178 1.67007 8.25242 1.66 8.36321 1.63985C8.39343 1.75064 8.27257 1.84129 8.18192 1.93194C8.14164 1.97222 8.0107 2.02258 8.15171 2.06287C8.27257 2.10316 8.4035 2.06287 8.51429 2.04273C8.78623 1.98229 9.05817 1.90172 9.09846 2.11323C9.66248 2.07294 9.71283 2.21395 9.72291 2.36502C10.3071 2.36502 10.297 2.49596 10.2366 2.66718C10.2164 2.70747 10.2769 2.78804 10.4481 2.7679C10.8308 2.72761 10.7704 2.82833 10.7804 2.9089C10.7804 3.10027 10.9416 3.19091 11.4452 3.07005C11.556 3.03983 11.697 3.02976 11.7776 3.09019C11.8279 3.14055 11.7373 3.1607 11.6366 3.18084C11.4452 3.22113 11.1632 3.18084 11.0625 3.34199C10.9718 3.50314 11.3646 3.53335 11.3445 3.65421C11.2236 3.72472 10.72 3.61393 10.8308 3.82544C10.8711 3.90601 10.5085 3.89594 10.438 3.85565C10.1661 3.68443 9.9042 3.89594 9.62219 3.85565C9.52147 3.83551 9.50133 3.90601 9.53154 3.9463C9.56176 3.97651 9.54161 4.03694 9.45097 4.0168C8.78623 3.84558 8.87687 4.13766 8.69558 4.21824C8.50422 4.30888 8.37329 4.29881 8.24235 4.23838C7.79919 4.03694 7.10424 4.12759 6.58051 4.00673C6.2985 3.93623 5.91577 4.06716 5.6539 4.13766C5.30139 4.21823 5.01938 4.29881 4.59636 4.21824C4.37478 4.17795 4.17335 4.19809 4.13306 4.31895C4.10284 4.4096 3.93162 4.47003 3.75033 4.54053C3.73018 4.54053 3.72011 4.53046 3.69997 4.52039C3.71004 4.47003 3.69997 4.43982 3.67983 4.41967C3.73019 4.37939 3.78054 4.32903 3.65968 4.28874C3.55896 4.28874 3.44817 4.30888 3.32731 4.31895C3.25681 4.26859 3.22659 4.19809 3.16616 4.14773C3.10573 4.09738 2.99495 4.0168 2.98487 4.02687C2.55179 4.25852 2.0482 3.90601 1.55468 4.11752C1.3331 4.21823 1.25252 4.28874 1.19209 4.50025C1.41367 4.60096 1.69568 4.71175 1.94748 4.84269C2.20934 4.98369 2.1187 4.99376 2.16906 4.93333C2.23956 4.84269 2.38056 4.83261 2.46114 4.8729C2.47121 4.8729 2.49135 4.8729 2.50143 4.88298C2.48128 4.88298 2.46114 4.90312 2.441 4.91319C2.42085 4.92326 2.49135 4.98369 2.55179 4.99377C2.8338 5.04412 3.03523 4.77218 3.27695 4.75204C3.80069 4.69161 4.405 4.71175 4.95895 4.70168C5.03952 4.79233 4.74744 4.78226 4.77765 4.86283C5.4021 4.78226 6.05677 4.95348 6.71144 4.78225C6.88266 4.74197 7.39632 4.88297 7.56754 4.68154C7.82941 4.70168 7.72869 4.83261 7.95027 4.8729C8.16178 4.84269 8.12149 4.75204 8.21214 4.68154C8.42364 4.74197 8.62508 4.79233 8.82652 4.84269C9.07831 4.91319 9.30996 4.96355 9.47111 4.8024C9.57183 4.70168 9.77327 4.70168 9.88406 4.79233C10.0653 4.94341 10.297 4.90312 10.5589 4.84269C10.6898 4.81247 10.7804 4.74197 10.9114 4.8729C11.0322 4.99376 11.3042 4.8729 11.4351 4.81247C11.6063 4.72183 11.6869 4.69161 11.9286 4.81247C12.1502 4.92326 13.0667 4.81247 13.2077 4.65132C13.3286 4.51032 13.4193 4.53046 13.6207 4.61104C13.8624 4.70168 14.0437 4.67147 14.1948 4.57075C14.4869 4.37938 14.789 4.24845 15.2926 4.50025C15.4135 4.56068 15.6451 4.59089 15.7962 4.52039C15.9876 4.42974 15.7257 4.38946 15.5746 4.35924C15.3833 4.31895 15.1818 4.29881 15.0207 4.22831C15.625 4.22831 15.7761 3.88586 16.5113 3.93622L16.5516 3.91608Z" fill="#266726"/>
</svg>
