<svg width="13" height="7" viewBox="0 0 13 7" fill="none" xmlns="http://www.w3.org/2000/svg">
<path d="M4.29163 1.71695L4.30226 1.70632L4.29163 1.71695Z" fill="#539536"/>
<path d="M11.3413 0.111497C11.2456 0.132763 11.1925 0.154028 11.1393 0.260359C10.7778 0.951504 10.1717 1.30239 9.08715 1.15353C8.87449 1.12163 8.396 0.845176 8.03448 1.29176C7.70486 1.70645 7.51346 1.61075 6.91801 1.23859C6.83295 1.18543 6.28003 0.845172 6.08864 1.23859C5.92914 1.56822 5.82281 1.36619 5.71648 1.2705C5.59952 1.1429 5.36559 1.15353 5.35496 1.21733C5.28053 1.73834 4.61065 1.52569 4.29166 1.72772C3.99393 2.13177 3.71747 2.52519 2.93063 2.41886C2.6648 2.38696 2.32455 2.41886 2.13315 2.65279C1.81416 3.03558 1.34631 3.32266 0.804028 3.63102C1.15492 3.68419 1.39948 3.71609 1.67593 3.75862C1.50581 3.99255 1.29315 4.08824 0.995422 4.09888C0.74023 4.09888 0.442505 4.02444 0.272377 4.25837C0.612634 4.53483 0.605548 4.79002 0.251115 5.02395C-0.174206 5.30041 -0.0466132 5.60876 0.538202 5.76826C0.963523 5.76826 1.38885 5.74699 1.80353 5.81079C2.10126 5.85332 2.64354 5.89585 2.17569 6.31054C2.12252 6.35307 2.11189 6.48067 2.13315 6.4913C2.23948 6.54447 2.33518 6.60827 2.39898 6.67206C3.9833 6.00218 5.51445 5.22597 6.99244 4.35407C6.40762 4.3966 5.82281 4.35407 5.46129 4.19457C5.13166 4.05634 5.16356 3.97128 5.38686 3.80115C5.54635 3.67355 5.56762 3.37583 5.93977 3.62039C6.45016 3.96065 7.00307 3.95001 7.54536 3.66292C7.61979 3.62039 7.68359 3.57786 7.74739 3.54596C7.83245 3.66292 7.90688 3.72672 7.99195 3.75862C9.75703 2.64215 11.4264 1.39809 13.0001 0.026431C12.4684 -0.026734 11.8624 -0.00546737 11.3307 0.143395L11.3413 0.111497Z" fill="#539536"/>
</svg>
