<svg width="8" height="27" viewBox="0 0 8 27" fill="none" xmlns="http://www.w3.org/2000/svg">
<path d="M0.869509 13.0069C0.869509 13.0069 0.940284 12.9665 0.970615 12.9362C1.51659 12.5621 1.74913 12.2082 1.56714 11.6521C0.87962 9.54911 0.940284 7.42589 1.38515 5.31278C1.53681 4.59493 1.2436 3.90741 1.11216 3.19967C1.09194 3.09857 0.990836 2.91658 0.920062 2.91658C0.556082 2.91658 0.272986 2.87613 0.0606635 2.82558C0.0202212 3.52321 0 4.23095 0 4.9488C0 7.7191 0.303317 10.4085 0.869509 13.0069Z" fill="#72808A"/>
<path d="M7.76473 0.0451759C7.71418 -0.00537703 7.65352 -0.0154876 7.58274 0.0249547C5.58085 0.196834 4.46869 1.35955 2.99254 2.10773C2.62856 2.28972 2.74989 2.66382 2.76 2.95702C2.82066 4.53427 2.59823 6.08119 2.21403 7.63822C1.7995 9.30646 2.34547 10.9949 2.57801 12.6632C2.88133 14.8268 2.60834 16.9905 3.03299 19.1441C3.09365 19.4474 3.13409 19.7507 3.17453 20.054C4.25637 22.521 5.60107 24.8464 7.16821 27C7.13788 25.0992 7.00644 23.1883 7.23898 21.3077C7.70407 17.587 7.10755 13.8562 7.75462 10.1456C7.95684 8.98293 7.1581 7.90109 7.14799 6.72827C7.12777 4.48372 8.0175 2.29983 7.77484 0.0552864L7.76473 0.0451759Z" fill="#72808A"/>
</svg>
