<svg width="126" height="8" viewBox="0 0 126 8" fill="none" xmlns="http://www.w3.org/2000/svg">
<path d="M2.53624 6.65641C1.07264 6.65641 0 5.50358 0 4.03997C0 2.57637 1.07264 1.41351 2.56631 1.41351C3.48858 1.41351 4.03994 1.7343 4.54117 2.21549L4.15021 2.63652C3.71915 2.23553 3.24799 1.94482 2.55629 1.94482C1.43352 1.94482 0.591452 2.84704 0.591452 4.02995C0.591452 5.21286 1.43352 6.12511 2.55629 6.12511C3.24799 6.12511 3.70912 5.85444 4.1903 5.39331L4.57125 5.76422C4.03994 6.29553 3.46853 6.65641 2.54626 6.65641H2.53624Z" fill="#231F20"/>
<path d="M7.7693 6.65641C6.2255 6.65641 5.19295 5.44343 5.19295 4.03997C5.19295 2.63652 6.24555 1.41351 7.78935 1.41351C9.33315 1.41351 10.3657 2.6265 10.3657 4.02995C10.3657 5.43341 9.3131 6.65641 7.7693 6.65641ZM7.7693 1.94482C6.60644 1.94482 5.78441 2.86709 5.78441 4.02995C5.78441 5.19281 6.62648 6.12511 7.77932 6.12511C8.93216 6.12511 9.76421 5.20284 9.76421 4.03997C9.76421 2.87711 8.92214 1.94482 7.7693 1.94482Z" fill="#231F20"/>
<path d="M14.0045 5.18276H13.9744L12.1299 2.4761V6.57619H11.5685V1.51373H12.1499L13.9945 4.28054L15.839 1.51373H16.4205V6.57619H15.849V2.4761L14.0045 5.19279V5.18276Z" fill="#231F20"/>
<path d="M19.6584 4.78177H18.4254V6.56616H17.854V1.5037H19.7487C20.8915 1.5037 21.6433 2.11521 21.6433 3.11767C21.6433 4.22039 20.7311 4.78177 19.6484 4.78177H19.6584ZM19.7086 2.03501H18.4254V4.26048H19.6785C20.5206 4.26048 21.0719 3.80938 21.0719 3.13772C21.0719 2.40592 20.5306 2.03501 19.7086 2.03501Z" fill="#231F20"/>
<path d="M26.355 2.02499H23.2674V3.75926H26.0342V4.28054H23.2674V6.05491H26.3951V6.57619H22.696V1.51373H26.355V2.03502V2.02499Z" fill="#231F20"/>
<path d="M31.2669 1.5037H31.8283V6.56616H31.3772L28.1091 2.41594V6.56616H27.5478V1.5037H28.0791L31.2669 5.56369V1.5037Z" fill="#231F20"/>
<path d="M35.0762 3.75929C36.2089 4.0099 36.7302 4.42091 36.7302 5.20284C36.7302 6.07498 36.0085 6.64639 34.996 6.64639C34.194 6.64639 33.5324 6.37572 32.9209 5.83439L33.2717 5.41335C33.803 5.89454 34.3043 6.12511 35.006 6.12511C35.7077 6.12511 36.1388 5.77424 36.1388 5.25296C36.1388 4.77177 35.8882 4.51114 34.8255 4.28057C33.6627 4.02995 33.1213 3.64901 33.1213 2.80694C33.1213 1.96487 33.8231 1.41351 34.7854 1.41351C35.5273 1.41351 36.0486 1.62403 36.5698 2.03504L36.239 2.47613C35.7679 2.09519 35.2967 1.92477 34.7754 1.92477C34.1138 1.92477 33.6928 2.28566 33.6928 2.74679C33.6928 3.20793 33.9534 3.49864 35.0661 3.73924L35.0762 3.75929Z" fill="#231F20"/>
<path d="M42.5046 6.56612H41.8931L41.3017 5.22281H38.5449L37.9434 6.56612H37.362L39.6676 1.46356H40.1989L42.5046 6.56612ZM39.9183 2.13522L38.7554 4.72158H41.0611L39.9082 2.13522H39.9183Z" fill="#231F20"/>
<path d="M43.2764 4.03997C43.2764 2.59642 44.3491 1.41351 45.8427 1.41351C46.765 1.41351 47.3164 1.7343 47.8176 2.21549L47.4266 2.63652C46.9956 2.23553 46.5244 1.94482 45.8327 1.94482C44.7099 1.94482 43.8679 2.84704 43.8679 4.02995C43.8679 5.21286 44.7099 6.12511 45.8327 6.12511C46.5244 6.12511 46.9855 5.85444 47.4667 5.39331L47.8477 5.76422C47.3364 6.27548 46.7951 6.61632 45.9329 6.65641L45.4518 7.68895L44.9104 7.43834L45.4718 6.62634C44.1887 6.45592 43.2764 5.38328 43.2764 4.02995V4.03997Z" fill="#231F20"/>
<path d="M53.5616 6.56611H52.9501L52.3586 5.2228H49.6019L49.0004 6.56611H48.419L50.7246 1.46355H51.2559L53.5616 6.56611ZM51.4865 1.05254C51.1657 1.05254 50.7647 0.761827 50.5141 0.761827C50.3236 0.761827 50.2434 0.852048 50.1332 1.11269L49.7923 1.02247C49.9327 0.481135 50.1332 0.260594 50.484 0.260594C50.8148 0.260594 51.2058 0.551308 51.4564 0.551308C51.6469 0.551308 51.7271 0.461086 51.8374 0.200444L52.1782 0.290667C52.0379 0.831999 51.8374 1.05254 51.4865 1.05254ZM50.9752 2.13521L49.8124 4.72157H52.118L50.9652 2.13521H50.9752Z" fill="#231F20"/>
<path d="M56.9102 6.65641C55.3664 6.65641 54.3339 5.44343 54.3339 4.03997C54.3339 2.63652 55.3865 1.41351 56.9303 1.41351C58.4741 1.41351 59.5066 2.6265 59.5066 4.02995C59.5066 5.43341 58.454 6.65641 56.9102 6.65641ZM56.9102 1.94482C55.7474 1.94482 54.9254 2.86709 54.9254 4.02995C54.9254 5.19281 55.7674 6.12511 56.9203 6.12511C58.0731 6.12511 58.9051 5.20284 58.9051 4.03997C58.9051 2.87711 58.0631 1.94482 56.9102 1.94482Z" fill="#231F20"/>
<path d="M66.5437 2.02499H63.4561V3.75926H66.2229V4.28054H63.4561V6.05491H66.5838V6.57619H62.8847V1.51373H66.5437V2.03502V2.02499Z" fill="#231F20"/>
<path d="M69.5511 3.75929C70.6839 4.0099 71.2052 4.42091 71.2052 5.20284C71.2052 6.07498 70.4834 6.64639 69.4709 6.64639C68.669 6.64639 68.0073 6.37572 67.3958 5.83439L67.7467 5.41335C68.278 5.89454 68.7792 6.12511 69.481 6.12511C70.1827 6.12511 70.6138 5.77424 70.6138 5.25296C70.6138 4.77177 70.3631 4.51114 69.3005 4.28057C68.1376 4.02995 67.5963 3.64901 67.5963 2.80694C67.5963 1.96487 68.298 1.41351 69.2604 1.41351C70.0022 1.41351 70.5235 1.62403 71.0448 2.03504L70.714 2.47613C70.2428 2.09519 69.7717 1.92477 69.2504 1.92477C68.5888 1.92477 68.1677 2.28566 68.1677 2.74679C68.1677 3.20793 68.4284 3.49864 69.5411 3.73924L69.5511 3.75929Z" fill="#231F20"/>
<path d="M74.1627 4.78177H72.9296V6.56616H72.3582V1.5037H74.2529C75.3957 1.5037 76.1476 2.11521 76.1476 3.11767C76.1476 4.22039 75.2353 4.78177 74.1527 4.78177H74.1627ZM74.2128 2.03501H72.9296V4.26048H74.1827C75.0248 4.26048 75.5762 3.80938 75.5762 3.13772C75.5762 2.40592 75.0348 2.03501 74.2128 2.03501Z" fill="#231F20"/>
<path d="M80.8588 2.02499H77.7712V3.75926H80.538V4.28054H77.7712V6.05491H80.8988V6.57619H77.1997V1.51373H80.8588V2.03502V2.02499Z" fill="#231F20"/>
<path d="M82.052 1.5037H82.6234V6.04487H85.4804V6.57618H82.052V1.51373V1.5037Z" fill="#231F20"/>
<path d="M90.1918 2.02499H87.1042V3.75926H89.871V4.28054H87.1042V6.05491H90.2319V6.57619H86.5328V1.51373H90.1918V2.03502V2.02499Z" fill="#231F20"/>
<path d="M93.7308 6.65641C92.187 6.65641 91.1545 5.44343 91.1545 4.03997C91.1545 2.63652 92.2071 1.41351 93.7509 1.41351C95.2947 1.41351 96.3272 2.6265 96.3272 4.02995C96.3272 5.43341 95.2746 6.65641 93.7308 6.65641ZM93.7308 1.94482C92.568 1.94482 91.7459 2.86709 91.7459 4.02995C91.7459 5.19281 92.588 6.12511 93.7409 6.12511C94.8937 6.12511 95.7257 5.20284 95.7257 4.03997C95.7257 2.87711 94.8837 1.94482 93.7308 1.94482Z" fill="#231F20"/>
<path d="M97.53 1.5037H98.1015V6.04487H100.958V6.57618H97.53V1.51373V1.5037Z" fill="#231F20"/>
<path d="M104.367 6.65638C102.823 6.65638 101.791 5.44339 101.791 4.03994C101.791 2.63649 102.843 1.41348 104.387 1.41348C105.931 1.41348 106.963 2.62646 106.963 4.02992C106.963 5.43337 105.911 6.65638 104.367 6.65638ZM104.367 1.94478C103.204 1.94478 102.382 2.86706 102.382 4.02992C102.382 5.19278 103.224 6.12507 104.377 6.12507C105.53 6.12507 106.362 5.2028 106.362 4.03994C106.362 2.87708 105.52 1.94478 104.367 1.94478ZM104.186 1.05259L104.878 0L105.46 0.270665L104.638 1.05259H104.186Z" fill="#231F20"/>
<path d="M110.512 6.65641C108.918 6.65641 107.936 5.49355 107.936 4.03997C107.936 2.5864 108.958 1.41351 110.472 1.41351C111.324 1.41351 111.855 1.66413 112.356 2.08517L111.985 2.51623C111.595 2.17539 111.163 1.9348 110.442 1.9348C109.319 1.9348 108.517 2.88714 108.517 4.01992C108.517 5.23291 109.289 6.13513 110.522 6.13513C111.103 6.13513 111.635 5.91459 111.985 5.62387V4.36076H110.442V3.84951H112.537V5.86446C112.066 6.2855 111.354 6.63636 110.502 6.63636L110.512 6.65641Z" fill="#231F20"/>
<path d="M114.462 1.5037V6.56616H113.89V1.5037H114.462Z" fill="#231F20"/>
<path d="M118.261 6.65641C116.797 6.65641 115.725 5.50358 115.725 4.03997C115.725 2.57637 116.797 1.41351 118.291 1.41351C119.213 1.41351 119.765 1.7343 120.266 2.21549L119.875 2.63652C119.444 2.23553 118.973 1.94482 118.281 1.94482C117.158 1.94482 116.316 2.84704 116.316 4.02995C116.316 5.21286 117.158 6.12511 118.281 6.12511C118.973 6.12511 119.434 5.85444 119.915 5.39331L120.296 5.76422C119.765 6.29553 119.193 6.65641 118.271 6.65641H118.261Z" fill="#231F20"/>
<path d="M126 6.56612H125.389L124.797 5.22281H122.04L121.439 6.56612H120.857L123.163 1.46356H123.694L126 6.56612ZM123.424 2.13522L122.261 4.72158H124.567L123.414 2.13522H123.424Z" fill="#231F20"/>
</svg>
