<svg width="47" height="62" viewBox="0 0 47 62" fill="none" xmlns="http://www.w3.org/2000/svg">
<path d="M8.68343 58.3236H41.2838V59.0514C41.2838 60.6752 39.9501 62 38.3117 62H2.96843C1.33366 62 0 60.6752 0 59.0514V8.62672C0 7.00285 1.33366 5.67809 2.96843 5.67809H3.70109V53.3733C3.70109 56.1027 5.93687 58.3236 8.68343 58.3236ZM30.1573 48.1251H38.2715V43.1372H30.1573V48.1251ZM47 16.1297V53.3733C47 54.9972 45.6663 56.3219 44.0279 56.3219H8.68343C7.04866 56.3219 5.715 54.9972 5.715 53.3733V2.94863C5.715 1.32598 7.04988 0 8.68343 0H30.7583C30.8998 0 31.0387 0.00726563 31.1728 0.0242188V14.7189C31.1728 15.2711 31.6251 15.718 32.1786 15.718H46.9756C46.9902 15.856 47 15.9892 47 16.1297ZM12.4296 7.19902C12.4296 7.75121 12.8782 8.19805 13.4354 8.19805H24.4594C25.0153 8.19805 25.4651 7.75121 25.4651 7.19902C25.4651 6.64684 25.0153 6.2 24.4594 6.2H13.4354C12.8795 6.2 12.4296 6.64563 12.4296 7.19902ZM12.4296 14.1873C12.4296 14.7395 12.8782 15.1864 13.4354 15.1864H24.4594C25.0153 15.1864 25.4651 14.7395 25.4651 14.1873C25.4651 13.6352 25.0153 13.1847 24.4594 13.1847H13.4354C12.8795 13.1847 12.4296 13.6352 12.4296 14.1873ZM25.4651 49.1241C25.4651 48.5719 25.0153 48.1251 24.4594 48.1251H13.4354C12.8795 48.1251 12.4296 48.5719 12.4296 49.1241C12.4296 49.6763 12.8782 50.1268 13.4354 50.1268H24.4594C25.0153 50.1268 25.4651 49.6763 25.4651 49.1241ZM25.4651 42.1382C25.4651 41.586 25.0153 41.1355 24.4594 41.1355H13.4354C12.8795 41.1355 12.4296 41.5848 12.4296 42.1382C12.4296 42.6916 12.8782 43.1372 13.4354 43.1372H24.4594C25.0153 43.1372 25.4651 42.688 25.4651 42.1382ZM40.2817 43.0246C40.2817 42.5063 40.0672 42.0328 39.7258 41.6889C39.3808 41.3487 38.9066 41.1368 38.3812 41.1368H30.0427C29.5173 41.1368 29.0443 41.3499 28.6981 41.6889C28.3556 42.0316 28.1422 42.5063 28.1422 43.0246V48.2389C28.1422 48.7572 28.3568 49.2307 28.6981 49.5709C29.0431 49.9136 29.5173 50.1268 30.0427 50.1268H38.3812C38.9066 50.1268 39.3796 49.9136 39.7258 49.5709C40.0684 49.2307 40.2817 48.7572 40.2817 48.2389V43.0246ZM40.2817 35.1499C40.2817 34.5977 39.8319 34.1472 39.276 34.1472H13.4354C12.8795 34.1472 12.4296 34.5965 12.4296 35.1499C12.4296 35.7033 12.8782 36.1489 13.4354 36.1489H39.2772C39.8331 36.1489 40.2817 35.7021 40.2817 35.1499ZM40.2817 28.1616C40.2817 27.6094 39.8319 27.1625 39.276 27.1625H13.4354C12.8795 27.1625 12.4296 27.6094 12.4296 28.1616C12.4296 28.7137 12.8782 29.1606 13.4354 29.1606H39.2772C39.8331 29.1606 40.2817 28.7137 40.2817 28.1616ZM40.2817 21.172C40.2817 20.6223 39.8319 20.173 39.276 20.173H13.4354C12.8795 20.173 12.4296 20.6223 12.4296 21.172C12.4296 21.7218 12.8782 22.1747 13.4354 22.1747H39.2772C39.8331 22.1747 40.2817 21.7254 40.2817 21.172ZM33.1879 0.999023V13.7199H45.9906L33.1879 0.999023Z" fill="#808B94"/>
</svg>
