<svg width="67" height="89" viewBox="0 0 67 89" fill="none" xmlns="http://www.w3.org/2000/svg">
<path d="M12.3785 83.4685H58.8515V84.51C58.8515 86.834 56.9503 88.7299 54.6146 88.7299H4.23161C1.90118 88.7299 0 86.834 0 84.51V12.3459C0 10.022 1.90118 8.12606 4.23161 8.12606H5.27604V76.384C5.27604 80.2902 8.46321 83.4685 12.3785 83.4685ZM42.9903 68.8731H54.5573V61.7349H42.9903V68.8731ZM67.0001 23.0836V76.384C67.0001 78.7079 65.0989 80.6038 62.7633 80.6038H12.3785C10.0481 80.6038 8.14693 78.7079 8.14693 76.384V4.21987C8.14693 1.89764 10.0498 0 12.3785 0H43.8471C44.0487 0 44.2468 0.010398 44.4379 0.0346601V21.0647C44.4379 21.8549 45.0827 22.4944 45.8716 22.4944H66.9654C66.9862 22.692 67.0001 22.8826 67.0001 23.0836ZM17.7189 10.3027C17.7189 11.093 18.3584 11.7324 19.1526 11.7324H34.8677C35.6602 11.7324 36.3014 11.093 36.3014 10.3027C36.3014 9.51247 35.6602 8.87299 34.8677 8.87299H19.1526C18.3601 8.87299 17.7189 9.51074 17.7189 10.3027ZM17.7189 20.3039C17.7189 21.0941 18.3584 21.7336 19.1526 21.7336H34.8677C35.6602 21.7336 36.3014 21.0941 36.3014 20.3039C36.3014 19.5136 35.6602 18.869 34.8677 18.869H19.1526C18.3601 18.869 17.7189 19.5136 17.7189 20.3039ZM36.3014 70.3029C36.3014 69.5126 35.6602 68.8731 34.8677 68.8731H19.1526C18.3601 68.8731 17.7189 69.5126 17.7189 70.3029C17.7189 71.0931 18.3584 71.7378 19.1526 71.7378H34.8677C35.6602 71.7378 36.3014 71.0931 36.3014 70.3029ZM36.3014 60.3051C36.3014 59.5149 35.6602 58.8702 34.8677 58.8702H19.1526C18.3601 58.8702 17.7189 59.5132 17.7189 60.3051C17.7189 61.0971 18.3584 61.7349 19.1526 61.7349H34.8677C35.6602 61.7349 36.3014 61.0919 36.3014 60.3051ZM57.423 61.5737C57.423 60.832 57.1171 60.1544 56.6305 59.6622C56.1387 59.1752 55.4627 58.8719 54.7137 58.8719H42.827C42.078 58.8719 41.4037 59.177 40.9102 59.6622C40.4218 60.1526 40.1177 60.832 40.1177 61.5737V69.036C40.1177 69.7777 40.4236 70.4554 40.9102 70.9423C41.402 71.4328 42.078 71.7378 42.827 71.7378H54.7137C55.4627 71.7378 56.137 71.4328 56.6305 70.9423C57.1188 70.4554 57.423 69.7777 57.423 69.036V61.5737ZM57.423 50.304C57.423 49.5137 56.7817 48.869 55.9893 48.869H19.1526C18.3601 48.869 17.7189 49.512 17.7189 50.304C17.7189 51.0959 18.3584 51.7337 19.1526 51.7337H55.991C56.7835 51.7337 57.423 51.0942 57.423 50.304ZM57.423 40.3028C57.423 39.5125 56.7817 38.8731 55.9893 38.8731H19.1526C18.3601 38.8731 17.7189 39.5125 17.7189 40.3028C17.7189 41.093 18.3584 41.7325 19.1526 41.7325H55.991C56.7835 41.7325 57.423 41.093 57.423 40.3028ZM57.423 30.2999C57.423 29.5131 56.7817 28.8701 55.9893 28.8701H19.1526C18.3601 28.8701 17.7189 29.5131 17.7189 30.2999C17.7189 31.0867 18.3584 31.7348 19.1526 31.7348H55.991C56.7835 31.7348 57.423 31.0919 57.423 30.2999ZM47.3106 1.42973V19.635H65.5612L47.3106 1.42973Z" fill="#55616C"/>
</svg>
