<svg width="52" height="66" viewBox="0 0 52 66" fill="none" xmlns="http://www.w3.org/2000/svg">
<g clip-path="url(#clip0_198_244)">
<path d="M9.45492 61.2848C9.45492 58.6814 7.33875 56.571 4.72815 56.571C2.11756 56.571 0 58.6814 0 61.2848C0 63.8883 2.11617 65.9986 4.72677 65.9986H46.0905C46.7428 65.9986 47.2718 65.471 47.2718 64.8205V62.4629H10.6363C9.98397 62.4629 9.45492 61.9353 9.45492 61.2848Z" fill="#808B94"/>
<path d="M9.45492 56.0186V4.71379C9.45492 2.11036 7.33736 0 4.72677 0C2.11617 0 0 2.11036 0 4.71379V56.0172C2.68954 53.6113 6.764 53.6113 9.45492 56.0172V56.0186Z" fill="#808B94"/>
<path d="M34.273 10.6071H17.7272C17.0748 10.6071 16.5459 11.1345 16.5459 11.7852V25.9293C16.5459 26.5799 17.0748 27.1074 17.7272 27.1074H34.273C34.9255 27.1074 35.4544 26.5799 35.4544 25.9293V11.7852C35.4544 11.1345 34.9255 10.6071 34.273 10.6071Z" fill="#808B94"/>
<path d="M50.817 5.89331H11.8174V60.1068H50.817C51.4693 60.1068 51.9984 59.5792 51.9984 58.9287V7.07141C51.9984 6.4209 51.4693 5.89331 50.817 5.89331ZM14.1815 11.7852C14.1815 9.83229 15.7686 8.24952 17.7269 8.24952H34.2727C36.2309 8.24952 37.8181 9.83229 37.8181 11.7852V25.928C37.8181 27.8809 36.2309 29.4637 34.2727 29.4637H17.7269C15.7686 29.4637 14.1815 27.8809 14.1815 25.928V11.7852ZM15.3628 31.8212H23.635C24.2873 31.8212 24.8163 32.3488 24.8163 32.9993C24.8163 33.6499 24.2873 34.1774 23.635 34.1774H15.3628C14.7105 34.1774 14.1815 33.6499 14.1815 32.9993C14.1815 32.3488 14.7105 31.8212 15.3628 31.8212ZM15.3628 36.535H36.6353C37.2876 36.535 37.8167 37.0626 37.8167 37.7131C37.8167 38.3636 37.2876 38.8912 36.6353 38.8912H15.3628C14.7105 38.8912 14.1815 38.3636 14.1815 37.7131C14.1815 37.0626 14.7105 36.535 15.3628 36.535ZM49.6357 54.2135C49.6357 56.1664 48.0486 57.7492 46.0903 57.7492H17.7269C15.7686 57.7492 14.1815 56.1664 14.1815 54.2135V44.7845C14.1815 42.8316 15.7686 41.2488 17.7269 41.2488H46.0903C48.0486 41.2488 49.6357 42.8316 49.6357 44.7845V54.2135ZM48.4543 34.1788H28.3632C27.7108 34.1788 27.1818 33.6512 27.1818 33.0007C27.1818 32.3502 27.7108 31.8226 28.3632 31.8226H48.4543C49.1066 31.8226 49.6357 32.3502 49.6357 33.0007C49.6357 33.6512 49.1066 34.1788 48.4543 34.1788Z" fill="#808B94"/>
<path d="M46.092 43.6063H17.7272C17.0748 43.6063 16.5459 44.1338 16.5459 44.7844V54.2134C16.5459 54.864 17.0748 55.3915 17.7272 55.3915H46.092C46.7444 55.3915 47.2734 54.864 47.2734 54.2134V44.7844C47.2734 44.1338 46.7444 43.6063 46.092 43.6063Z" fill="#808B94"/>
</g>
<defs>
<clipPath id="clip0_198_244">
<rect width="52" height="66" fill="white"/>
</clipPath>
</defs>
</svg>
