<svg width="286" height="24" viewBox="0 0 286 24" fill="none" xmlns="http://www.w3.org/2000/svg">
<path d="M18.691 8.97806H14.6004V5.26066H12.2592V17.8756H14.5746V21.7407H4.20645V17.8756H6.4962V5.26066H4.10354V8.97806H0V1.42249H18.691V8.97806Z" fill="#495965"/>
<path d="M37.7939 18.1038C35.9029 20.2779 33.0086 22.197 29.3553 22.197C23.4508 22.197 19.5273 18.2514 19.5273 11.7695C19.5273 5.28754 24.3513 1.07361 27.9917 1.07361C30.7703 1.07361 32.0309 2.69744 32.2753 3.04637L32.9185 1.42253H37.2922V9.67595H32.3011C32.2239 7.7837 31.3234 6.01224 29.3424 6.01224C27.3614 6.01224 26.0235 8.60233 26.0235 11.7695C26.0235 14.6414 27.4386 17.2315 30.0885 17.2315C32.4297 17.2315 34.2692 14.6683 34.5136 14.3864L37.7682 18.1038H37.7939Z" fill="#495965"/>
<path d="M56.8964 18.1038C55.0054 20.2779 52.1111 22.197 48.4578 22.197C42.5533 22.197 38.6299 18.2514 38.6299 11.7695C38.6299 5.28754 43.4538 1.07361 47.0942 1.07361C49.8728 1.07361 51.1335 2.69744 51.3779 3.04637L52.0211 1.42253H56.3947V9.67595H51.4036C51.3264 7.7837 50.4259 6.01224 48.4578 6.01224C46.4896 6.01224 45.1389 8.60233 45.1389 11.7695C45.1389 14.6414 46.554 17.2315 49.2039 17.2315C51.5451 17.2315 53.3846 14.6683 53.629 14.3864L56.8836 18.1038H56.8964Z" fill="#495965"/>
<path d="M74.8028 1.42259V7.83745H69.9789V5.24736H65.5281V9.25999H70.8151V13.125H65.5281V17.8623H69.9789V15.1649H74.8028V21.7273H58.0156V17.8623H59.7651V5.24736H58.0156V1.40918H74.8028V1.42259Z" fill="#495965"/>
<path d="M92.4004 1.42249V5.26066H90.6767V17.8756H92.4004V21.7407H83.1514V17.8756H84.9008V5.26066H83.1514V1.42249H92.4004Z" fill="#495965"/>
<path d="M111.773 18.1038C109.882 20.2779 106.988 22.197 103.335 22.197C97.4303 22.197 93.5068 18.2514 93.5068 11.7695C93.5068 5.28754 98.3307 1.07361 101.971 1.07361C104.75 1.07361 106.01 2.69744 106.255 3.04637L106.898 1.42253H111.272V9.67595H106.281C106.203 7.7837 105.303 6.01224 103.322 6.01224C101.341 6.01224 100.003 8.60233 100.003 11.7695C100.003 14.6414 101.418 17.2315 104.068 17.2315C106.409 17.2315 108.249 14.6683 108.493 14.3864L111.748 18.1038H111.773Z" fill="#495965"/>
<path d="M132.214 6.53559C131.995 7.83735 131.596 9.75643 131.404 10.4274L128.483 21.7272H122.669L119.556 10.1322C119.415 9.63564 119.054 7.98497 118.977 6.53559H118.861V17.983H120.444V21.7272H112.893V17.983H114.398V5.16672H112.918V1.42249H123.467L126.284 12.2928L128.959 1.42249H139.572V5.16672H138.041V17.9562H139.572V21.7272H130.773V17.9562H132.33V6.53559H132.214Z" fill="#495965"/>
<path d="M140.961 17.9562H142.582V5.16672H140.961V1.42249H151.355C155.973 1.42249 158.173 3.2208 158.173 6.38796C158.173 8.83044 157.529 10.0248 155.446 10.8972C157.452 11.4742 159.125 13.0175 159.125 15.8358C159.125 19.9289 156.925 21.7272 151.548 21.7272H140.961V17.9562ZM148.345 9.62223H150.043C151.522 9.62223 151.934 8.77676 151.934 7.38106C151.934 5.98536 151.149 5.26066 150.094 5.26066H148.345V9.62223ZM150.57 17.9562C151.741 17.9562 152.821 17.0302 152.821 15.46C152.821 13.9838 152.011 12.8967 150.48 12.8967H148.332V17.9562H150.557H150.57Z" fill="#495965"/>
<path d="M160.09 21.7407V17.9294H161.26V10.9911H160.09V7.22006H166.547V17.9428H167.885V21.7541H160.09V21.7407ZM163.872 0C165.788 0 166.933 1.62384 166.933 2.96586C166.933 4.56287 165.853 5.90489 163.872 5.90489C162.122 5.90489 160.862 4.36156 160.862 2.96586C160.862 1.57016 161.917 0 163.872 0Z" fill="#495965"/>
<path d="M168.888 14.4132C168.914 9.55512 172.67 6.85767 176.516 6.85767C180.916 6.91135 184.17 9.6759 184.26 14.534C184.312 19.3519 180.89 22.1164 176.658 22.1164C172.67 22.1164 168.837 19.5532 168.888 14.4132ZM178.549 14.534C178.549 12.3599 177.829 10.669 176.516 10.6422C175.436 10.6422 174.6 12.3331 174.6 14.4535C174.6 16.8423 175.487 18.399 176.658 18.399C177.829 18.399 178.549 16.7081 178.549 14.534Z" fill="#495965"/>
<path d="M201.06 1.70435L194.178 23.6195H190.332L197.214 1.70435H201.06Z" fill="#495965"/>
<path d="M218.916 15.2319C218.967 14.4132 219.366 12.9907 219.919 11.5413L222.453 5.20698H220.974V1.43591H228.885V5.20698H227.521L220.832 21.7407H215.712L208.329 5.20698H206.798V1.43591H217.05V5.20698H215.545L217.912 11.7158C218.362 13.1383 218.723 14.4132 218.774 15.2319H218.916Z" fill="#495965"/>
<path d="M239.948 21.7407V17.9293H242.597L242.006 15.9566H236.294L235.715 17.9293H237.889V21.7407H229.039V17.9293H230.93L234.686 5.18015H233.541V1.43591H244.231L249.158 17.9428H251.113V21.7541H239.948V21.7407ZM240.977 12.4673L239.137 6.18666L237.323 12.4673H240.977Z" fill="#495965"/>
<path d="M261.019 1.42249V5.26066H259.539V17.8756H263.128V14.1851H267.811V21.7407H252.22V17.8756H253.75V5.26066H252.22V1.42249H261.019Z" fill="#495965"/>
<path d="M286 1.42259V7.83745H281.176V5.24736H276.725V9.25999H282.012V13.125H276.725V17.8623H281.176V15.1649H286V21.7273H269.213V17.8623H270.962V5.24736H269.213V1.40918H286V1.42259Z" fill="#495965"/>
</svg>
