<svg width="50" height="16" viewBox="0 0 50 16" fill="none" xmlns="http://www.w3.org/2000/svg">
<path d="M8.83235 13.9948C9.11609 14.0083 9.42562 14.0487 9.58038 13.9007C9.56749 13.7257 9.54169 13.5643 9.52879 13.3894C9.4772 13.3625 9.43851 13.3356 9.38692 13.2952C9.46431 13.3086 9.5288 13.3356 9.60618 13.349C10.2123 13.4701 10.7798 13.2952 11.2828 13.2817C11.9792 13.5508 10.6508 13.8334 11.5149 14.1025C12.0437 13.9007 12.5596 13.7123 12.6628 13.4163C12.7917 13.0396 13.385 12.9723 14.0556 13.1203C15.3453 13.3759 16.1708 13.1203 17.2412 12.8646C18.0537 12.6628 19.1758 12.2592 20.0399 12.461C21.6262 12.8377 23.7155 12.5821 25.0568 13.201C25.4566 13.3894 25.8435 13.4028 26.4368 13.1337C26.9785 12.8781 26.7076 11.9766 28.7067 12.5014C28.9775 12.5686 29.0291 12.3937 28.9517 12.2861C28.8485 12.1515 28.9001 11.9362 29.2096 11.9901C30.035 12.165 30.8476 11.4788 31.6472 12.017C31.8406 12.1515 32.9627 12.165 32.8208 11.9228C32.4597 11.2635 33.9944 11.6133 34.3555 11.3846C34.42 11.0213 33.2206 10.9002 33.5043 10.4024C33.7881 9.90456 34.6393 10.0391 35.2196 9.90456C35.5292 9.82383 35.8 9.75656 35.6452 9.60856C35.426 9.42019 35.0004 9.46055 34.6522 9.54128C33.1174 9.91801 32.666 9.62201 32.6402 9.04345C32.6402 8.78781 32.8079 8.47834 31.6472 8.61289C31.1313 8.66671 30.9636 8.43798 31.0152 8.30343C31.1958 7.79214 31.2216 7.34813 29.4676 7.37504C29.4676 6.87721 29.3128 6.4332 27.5975 6.56775C27.4685 5.895 26.6431 6.15065 25.8306 6.35248C25.4953 6.4332 25.1084 6.52738 24.7473 6.41974C24.3217 6.2852 24.6957 6.13719 24.8376 6.00265C25.1213 5.72009 25.4695 5.45099 25.3792 5.08771C25.0181 5.14153 24.7731 5.16844 24.5409 5.2088C23.5221 5.41063 22.7611 5.76045 21.523 5.88155C20.1817 6.00264 20.272 5.07426 18.8533 5.42409C18.6599 5.47791 18.5825 5.22226 18.5696 5.10117C18.5696 4.96662 18.5954 4.81862 19.021 4.80516C20.646 4.77825 20.775 4.30732 20.9298 3.80949C21.0587 3.39239 21.3554 3.21749 22.5935 3.51349C23.78 3.79605 25.2503 4.09205 26.7592 3.83641C28.2166 3.60768 28.1908 3.58076 29.0549 4.02478C30.1769 4.61679 32.1759 4.75134 34.0331 4.36115C34.5103 4.25351 35.0133 3.97096 35.5034 4.28042C35.9935 4.57643 35.0778 4.6437 34.7425 4.80516C34.3298 4.99353 33.2722 5.30299 33.8526 5.43754C35.7226 5.90846 34.9359 6.4332 34.4071 7.07903C35.6839 6.62156 37.9022 7.72487 38.431 6.55429C39.3854 6.63502 38.5858 7.36159 39.5014 7.1194C40.4042 6.87722 40.8169 7.1194 41.436 7.1194C41.6166 7.03867 41.7971 6.97139 41.9777 6.89066C40.9588 6.66193 41.3586 6.5812 42.184 6.50047C42.7128 6.44665 43.7317 6.63502 43.6027 6.19101C43.4995 5.82773 42.6999 6.02955 42.1711 6.02955C41.3715 6.02955 40.9975 5.8681 40.8556 5.57209C40.6235 5.04735 40.6106 5.04734 39.437 5.0608C39.7981 4.45981 39.1102 4.08308 37.3734 3.93059C37.2574 3.93059 37.1413 3.90368 37.0252 3.87677C37.799 3.13675 35.6324 3.36549 35.1938 2.98875C34.7425 2.61202 34.2266 3.21748 33.5043 3.06948C33.4657 2.88111 33.427 2.65237 33.3754 2.42364C31.6644 2.54025 30.8605 2.43261 30.9636 2.10073C30.3188 2.02 30.2285 2.36982 29.6997 2.36982C29.4676 1.8989 26.4626 0.849423 25.3921 0.997427C23.651 1.23962 23.1222 0.75524 22.3226 0.378504C21.9228 0.190135 21.5617 -0.159693 20.8137 0.0824946C19.9883 0.338137 20.9169 0.51305 21.2651 0.701418C21.5488 0.849422 22.3355 0.983974 21.8712 1.19925C21.3296 1.44144 20.8653 1.21271 20.4913 1.01088C20.1172 0.809062 19.7303 0.661052 19.5885 1.07815C19.4982 1.34725 19.0984 1.14543 18.9565 1.11852C17.6281 0.835964 17.3315 1.02433 17.8087 1.56253C16.9575 1.58944 16.2868 1.27997 15.5001 1.45489C15.2422 1.68362 15.7065 1.80472 15.9773 1.92582C17.2025 2.45056 16.4803 2.96184 15.7838 3.41931C15.4356 3.64804 15.4356 3.72876 15.9902 3.80949C16.9704 3.94404 15.758 4.18624 16.1579 4.33424C15.384 4.25351 15.0487 4.67061 14.507 4.63024C13.7461 4.57642 13.14 4.32078 12.9465 4.01132C12.8562 3.86331 13.3334 3.60768 12.4693 3.6615C11.9534 3.68841 11.6568 3.87677 11.7987 4.06514C12.0179 4.36115 11.8889 4.60333 11.2441 4.73788C10.4832 4.89934 10.2897 4.58988 9.90281 4.44187C9.73515 4.3746 9.49011 4.34769 9.27086 4.30733C8.72918 4.89934 7.65873 4.41497 6.85911 4.46879C6.44641 4.92626 7.63294 5.11462 7.8006 5.49135C6.5109 5.49135 5.71128 6.09683 4.13784 5.85464C5.09222 6.24483 5.85314 6.56775 4.55054 7.05212C4.04756 7.24049 5.02774 7.2674 5.35016 7.34813C5.96922 7.50959 4.93746 7.77869 5.59521 7.92669C5.04064 8.08815 5.1825 7.80559 4.93746 7.75177C4.12495 7.57686 4.3055 8.03433 3.4414 7.9536C4.43447 8.2227 5.11802 8.41106 6.0337 8.66671C4.97615 8.69362 3.91859 8.66671 4.46027 9.27218C3.37692 9.0569 2.71918 8.70708 1.63583 8.78781C1.23602 9.02999 1.84217 9.12418 2.07432 9.23182C2.70627 9.51437 3.14478 9.71619 2.04853 10.0257C0.797521 10.3755 1.54555 10.7926 2.13881 11.1559C1.40368 11.277 -0.143963 11.1559 0.010801 11.5326C0.204256 11.9766 0.771722 11.8421 1.61003 12.0304C1.76479 12.2995 1.94535 12.1515 1.98404 12.3937C2.00984 12.5417 2.07432 12.8243 2.40965 12.7704C3.85411 12.5014 4.95036 13.1741 6.31744 12.9454C8.07143 12.9588 7.50396 13.8334 8.78076 14.0218L8.83235 13.9948Z" fill="#539536"/>
<path d="M49.9997 12.2322C47.6524 12.0439 47.33 11.1693 45.95 10.6311C47.3042 10.7522 47.6137 9.98526 48.9937 10.3082C48.7358 9.93144 48.1554 9.93144 47.6782 9.86417C47.4977 9.83726 47.2526 9.81035 47.1882 9.74308C46.4014 8.9896 46.4014 8.98961 44.1831 8.59941C44.6345 8.47832 45.0343 8.37068 45.4986 8.24958C44.6474 7.8863 43.3706 8.04777 42.4936 7.79212C42.326 7.48266 43.2159 7.65757 43.319 7.4692C42.7129 7.37501 42.3776 6.98483 41.4232 7.11938C40.8041 7.11938 40.4043 6.87719 39.4886 7.11938C38.5729 7.37502 39.3726 6.635 38.4182 6.55427C37.8894 7.72484 35.6711 6.62154 34.3943 7.07901C34.936 6.44663 35.7098 5.90844 33.8397 5.43752C33.2723 5.28951 34.3298 4.99351 34.7296 4.80514C35.0779 4.64368 35.9807 4.58986 35.4906 4.2804C35.0005 3.97094 34.4975 4.25348 34.0203 4.36112C32.1631 4.75132 30.1641 4.61677 29.0421 4.02475C28.1651 3.56729 28.2037 3.5942 26.7464 3.83638C25.2374 4.07857 23.7672 3.79602 22.5807 3.51347C21.3425 3.21746 21.0588 3.39237 20.9169 3.80947C20.7622 4.3073 20.6332 4.76477 19.0082 4.80514C18.5826 4.80514 18.5568 4.9666 18.5568 5.10115C18.5568 5.22224 18.6342 5.47788 18.8405 5.42406C20.2592 5.07423 20.1689 6.00262 21.5102 5.88152C22.7612 5.76043 23.5092 5.4106 24.5281 5.20878C24.7474 5.16841 25.0053 5.14151 25.3664 5.08769C25.4567 5.45097 25.1085 5.72007 24.8247 6.00262C24.6829 6.13717 24.3089 6.28517 24.7345 6.41972C25.0956 6.52736 25.4825 6.43318 25.8178 6.35245C26.6303 6.15063 27.4686 5.89498 27.5847 6.56772C29.3 6.43317 29.4419 6.87718 29.4548 7.37501C31.2088 7.36156 31.183 7.79212 31.0024 8.3034C30.9508 8.43795 31.1185 8.66668 31.6344 8.61286C32.7951 8.47831 32.6145 8.78778 32.6274 9.04343C32.6532 9.63544 33.1046 9.93144 34.6394 9.54125C34.9876 9.46052 35.4132 9.42016 35.6324 9.60853C35.8001 9.75653 35.5293 9.82381 35.2068 9.90454C34.6265 10.0525 33.7753 9.90453 33.4915 10.4024C33.2078 10.9002 34.4072 11.0213 34.3427 11.3846C33.9816 11.6133 32.4469 11.2635 32.808 11.9228C32.937 12.165 31.8278 12.1515 31.6344 12.017C30.8218 11.4788 30.0222 12.1515 29.1968 11.99C28.8873 11.9228 28.8357 12.1515 28.9389 12.286C29.0163 12.3937 28.9776 12.5686 28.6938 12.5013C26.6819 11.9631 26.9656 12.8781 26.424 13.1337C25.8307 13.4028 25.4438 13.3894 25.044 13.201C23.7156 12.5821 21.6134 12.8377 20.027 12.461C19.1629 12.2591 18.0409 12.6628 17.2284 12.8646C16.1579 13.1337 15.3325 13.3759 14.0428 13.1203C13.3722 12.9857 12.7789 13.0395 12.65 13.4163C12.5468 13.7123 12.0309 13.9006 11.5021 14.1025C11.4505 14.089 11.3989 14.0621 11.3602 14.0486C11.3602 14.0486 11.3732 14.0352 11.386 14.0217C11.4247 13.8737 11.3861 13.7661 11.3087 13.6988C11.4505 13.5643 11.6182 13.4163 11.2571 13.2817C10.9476 13.2817 10.6122 13.3624 10.2511 13.3759C10.0448 13.2279 9.95448 13.0126 9.77392 12.8512C9.60626 12.7031 9.24515 12.4475 9.21935 12.461C7.90386 13.1875 6.38201 12.0708 4.92464 12.757C4.2669 13.0664 4.00896 13.3086 3.8155 13.9545C4.49904 14.2774 5.33735 14.6137 6.08538 15.0443C6.88499 15.5018 6.60126 15.5287 6.74313 15.3269C6.94948 15.0578 7.37508 15.0308 7.62012 15.1519C7.65882 15.1788 7.6975 15.1789 7.73619 15.1923C7.67171 15.2192 7.60722 15.2461 7.55564 15.2865C7.49115 15.3269 7.7104 15.4883 7.89096 15.5287C8.74216 15.6901 9.36122 14.8425 10.0834 14.7483C11.6569 14.5465 13.4625 14.6272 15.152 14.5868C15.397 14.8828 14.5071 14.8425 14.6103 15.0981C16.4804 14.8425 18.4665 15.3672 20.4526 14.8559C20.9814 14.7214 22.5033 15.1789 23.032 14.5196C23.8317 14.5868 23.5221 14.9905 24.1928 15.1116C24.8247 15.0174 24.7087 14.7483 24.9795 14.5196C25.5986 14.6945 26.2176 14.8694 26.8238 15.0443C27.5718 15.2596 28.2811 15.4345 28.7712 14.9097C29.0678 14.5868 29.674 14.6003 30.0093 14.8694C30.5639 15.3269 31.2474 15.2058 32.0471 15.0308C32.4469 14.9367 32.7048 14.7079 33.1175 15.1385C33.4786 15.5287 34.3169 15.1654 34.7038 14.9501C35.2326 14.6676 35.4777 14.5599 36.187 14.9232C36.8576 15.273 39.6047 14.9501 40.0432 14.4254C40.4043 13.9814 40.6881 14.0621 41.2813 14.2908C41.9907 14.5599 42.5452 14.4792 43.0095 14.1697C43.8994 13.5777 44.8151 13.1606 46.2983 13.9545C46.6594 14.1428 47.3558 14.2505 47.8201 14.0083C48.3876 13.7123 47.6137 13.6046 47.1495 13.5104C46.582 13.3894 45.95 13.3221 45.4857 13.1068C47.3171 13.0799 47.7685 12.0439 49.9868 12.2053L49.9997 12.2322Z" fill="#266726"/>
</svg>
