<svg width="43" height="13" viewBox="0 0 43 13" fill="none" xmlns="http://www.w3.org/2000/svg">
<path d="M34.9079 2.52785L34.9217 2.54159L34.9079 2.52785Z" fill="#539536"/>
<path d="M42.515 7.28147C41.8486 6.93838 41.8357 6.5727 42.4761 6.18446C42.1645 5.84588 41.6063 5.96777 41.126 5.95423C40.5678 5.94069 40.1783 5.79171 39.8538 5.45313C40.3731 5.39896 40.8404 5.34478 41.4895 5.26352C40.4769 4.8166 39.5941 4.4103 38.984 3.85503C38.6205 3.52999 37.9714 3.46227 37.4781 3.51645C35.9852 3.67897 35.466 3.09661 34.9078 2.5278C34.3106 2.2163 33.0514 2.52779 32.8956 1.78292C32.8826 1.68811 32.4412 1.67458 32.2076 1.86418C32.0128 2.01316 31.8181 2.29756 31.5195 1.82354C31.156 1.25473 30.1045 1.75583 29.9488 1.82354C28.8453 2.36527 28.4818 2.50071 27.8587 1.90481C27.1837 1.26828 26.2879 1.66103 25.8855 1.70166C23.8344 1.93189 22.705 1.41725 22.0169 0.415047C21.9131 0.266072 21.8092 0.238993 21.6405 0.211907C20.1865 -0.0995872 18.447 -0.0318768 17.2656 0.184815C16.0064 0.41505 14.6953 0.401506 13.5139 0.523395C11.8133 0.699457 11.1383 1.53914 9.76223 1.82354C9.56751 1.86417 9.60645 1.9048 9.65838 2.01315C10.2036 3.19141 9.59347 3.78732 7.63323 3.78732C6.95818 3.78732 6.82837 4.49156 6.04947 4.09881C5.99754 4.12589 5.94561 4.15299 5.89368 4.18007C5.37442 4.87078 4.42675 4.46448 3.99836 4.27487C3.55698 4.07173 3.36225 4.00401 2.9079 4.16653C2.21987 4.4103 1.71358 4.78952 0.752935 4.85723C0.220686 4.89786 0.246649 5.35833 0.610136 5.66983C0.311557 5.69691 0.129817 5.77817 0 5.88651C1.66166 7.79611 3.37524 9.63799 5.15373 11.4257C5.46529 11.4257 5.76387 11.358 6.07543 11.0736C6.60768 10.6131 7.94479 10.8975 8.33424 11.4934C8.61984 11.9268 8.9314 12.1299 9.8531 11.9539C11.3979 11.6559 13.1504 11.8591 14.6174 11.3986C15.8636 11.0059 16.6295 10.9381 16.5906 11.9674C16.5906 12.0622 16.8373 12.1841 17.006 12.2383C18.1873 12.5769 21.9131 11.7236 21.7703 11.0736C21.5626 10.112 22.4973 10.3016 23.3541 10.3152C23.9902 10.3152 24.4575 10.2068 24.808 9.90885C24.8729 9.85468 25.0806 9.85468 25.2104 9.84114C25.5869 10.0578 25.2494 10.4912 25.9764 10.5725C26.0283 10.4641 26.0542 10.3693 26.1192 10.2745C26.3398 9.94949 26.236 9.39421 26.924 9.39421C27.9236 9.39421 27.1187 9.89531 27.2615 10.1526C27.3265 10.261 27.612 10.437 27.677 10.4235C28.5337 10.2204 28.7674 10.6944 29.2867 10.8704C31.3638 11.534 32.7398 11.0736 32.9735 9.69216C33.0254 9.40776 33.1293 9.12335 33.2591 8.70351C34.3669 10.1933 35.9679 11.1639 38.0623 11.6153C38.0104 10.8163 37.543 9.94948 38.984 9.39421C39.0359 9.36713 38.997 9.19106 38.9061 9.12334C38.0234 8.5139 39.0489 8.45973 39.6071 8.40555C40.3731 8.32429 41.1909 8.36493 41.9828 8.33784C43.0992 8.10761 43.3199 7.67422 42.528 7.26793L42.515 7.28147ZM8.98333 8.02634C8.47704 8.1076 8.16548 7.80966 8.03566 7.56588C7.82796 7.15958 7.50341 6.84808 6.75047 6.75328C6.37401 6.6991 5.86772 6.72619 6.01052 6.37407C6.14034 6.07612 6.67259 6.21155 7.02309 6.13029C7.7241 6.07612 9.59347 6.95643 9.51558 7.34918C9.46365 7.57942 9.46365 7.94508 8.98333 8.0128V8.02634ZM21.8741 5.75108C21.7963 5.96777 21.3549 6.1032 21.1082 6.07612C20.0957 5.96777 19.2129 6.64494 18.1484 6.21156C17.9017 6.11675 17.4734 6.1303 17.2656 6.36053C17.1099 6.52305 17.3435 6.98351 16.5387 6.61785C15.7857 6.26572 14.9419 5.98132 14.2539 5.724C14.4486 5.18227 14.7083 4.99266 15.3703 4.73534C16.8502 4.16652 18.3691 5.08746 19.6932 4.49156C19.7192 4.49156 20.0827 4.69471 20.2514 4.8166C20.524 5.01974 20.589 5.3177 21.1342 5.37187C21.5366 5.4125 21.978 5.45314 21.8612 5.77817L21.8741 5.75108ZM32.7009 6.07612C31.2859 6.53659 28.0794 6.37408 26.937 5.68337C26.5605 5.45314 26.262 5.5073 25.8985 5.56148C24.3407 5.76463 24.6263 5.30416 25.0676 4.69471C25.3273 4.88432 25.522 5.01975 25.7167 5.14164C26.5995 4.57283 27.5082 6.11675 28.391 5.14164C28.5208 5.19581 28.6376 5.26353 28.7674 5.3177C29.806 5.73754 30.8315 5.76462 31.7922 5.26352C32.5062 4.89786 32.5321 5.34479 32.8437 5.52085C33.2721 5.77817 33.324 5.90006 32.7139 6.08966L32.7009 6.07612Z" fill="#539536"/>
</svg>
