<svg width="21" height="9" viewBox="0 0 21 9" fill="none" xmlns="http://www.w3.org/2000/svg">
<path d="M17.9176 7.73992C17.8789 7.41693 18.5368 7.44385 19.2333 7.49768C19.2462 7.37656 19.272 7.25544 19.2849 7.13432L19.2075 7.1074C18.6528 7.2016 18.1498 7.06703 17.6983 7.05357C17.0662 7.24198 18.2659 7.44384 17.479 7.63225C17.0017 7.48422 16.5373 7.34965 16.447 7.13432C16.3309 6.86517 15.802 6.82479 15.1957 6.91899C14.0347 7.1074 13.2866 6.91899 12.3191 6.73059C11.5967 6.58255 10.5647 6.29994 9.79072 6.44797C8.35884 6.71713 6.46258 6.52872 5.2629 6.97283C5.1339 7.0132 5.00491 7.04011 4.87591 7.05357C5.2371 7.48422 5.59829 7.91486 5.97239 8.34551C5.98529 8.34551 6.43678 8.89728 6.46258 8.89728C7.06887 8.81654 6.83667 8.19748 7.55906 8.14365C8.03635 8.61467 8.92643 8.0629 9.40372 8.1571C11.1968 8.53392 12.9899 8.15711 14.6797 8.33206C14.7829 8.15711 13.9702 8.18402 14.1895 7.9687C15.7117 7.99561 17.35 7.92832 18.7689 8.07636C19.4139 8.14365 19.9299 8.33205 20.691 8.21094C20.8458 8.18402 21.0522 8.0629 20.9877 8.03599C20.5491 7.80721 19.7106 7.88796 19.0914 7.80721C18.7044 7.75338 17.9563 8.04945 17.9176 7.69954V7.73992Z" fill="#266726"/>
<path d="M1.30287 2.59905C1.40607 2.35681 1.76726 2.18186 2.95404 2.26261C3.07014 1.77813 3.81833 1.96653 4.55361 2.10111C4.85031 2.15494 5.2115 2.22223 5.53399 2.15494C5.92098 2.06074 5.57269 1.95308 5.45659 1.85887C5.1986 1.65701 4.889 1.4686 4.9664 1.21291C5.2889 1.25328 5.52109 1.26673 5.71459 1.29365C6.63047 1.44168 7.31416 1.68392 8.44934 1.77813C9.66191 1.87233 9.57161 1.19945 10.8616 1.45515C11.0422 1.49552 11.1067 1.32056 11.1196 1.22636C11.1196 1.13215 11.1067 1.0245 10.7197 1.01104C9.24912 0.984122 9.14592 0.66114 8.99112 0.311239C8.87503 0.0151688 8.60413 -0.105953 7.49475 0.109371C6.42407 0.311237 5.0954 0.513101 3.72803 0.33815C2.41225 0.176657 2.43805 0.14974 1.65117 0.472726C1.22547 0.647676 0.644988 0.768799 0 0.82263C0.438592 1.41477 0.877184 2.02037 1.31578 2.59905H1.30287Z" fill="#266726"/>
</svg>
