<svg width="38" height="20" viewBox="0 0 38 20" fill="none" xmlns="http://www.w3.org/2000/svg">
<path d="M12.2623 5.24518C12.2623 5.24518 12.2756 5.24519 12.2889 5.23145L12.249 5.25892L12.2623 5.24518Z" fill="#539536"/>
<path d="M32.5169 0.439424C32.2574 0.520645 32.1017 0.561255 31.946 0.8726C30.908 2.94373 29.1693 4.01313 26.0551 3.53935C25.4453 3.44459 24.0569 2.61884 23.0448 3.94544C22.0846 5.17729 21.5397 4.90656 19.8529 3.78301C19.6193 3.62057 18.0103 2.60531 17.4653 3.76947C17.0112 4.75765 16.6998 4.16203 16.4143 3.85069C16.064 3.47166 15.3893 3.51226 15.3633 3.68824C15.1427 5.24497 13.2094 4.59521 12.3011 5.23144C11.4447 6.43622 10.6532 7.62745 8.38249 7.28903C7.61694 7.18073 6.63081 7.28903 6.08584 7.97941C5.15161 9.13003 3.81513 9.98284 2.27104 10.9033C3.27015 11.0522 3.9838 11.1605 4.7753 11.2824C4.26926 11.9727 3.67239 12.2841 2.82898 12.3112C2.10235 12.3382 1.24597 12.081 0.765877 12.785C1.75202 13.6062 1.73472 14.3688 0.713984 15.0727C-0.492739 15.912 -0.142408 16.8189 1.55738 17.2927C2.76411 17.3198 3.99677 17.2386 5.17754 17.4145C6.03392 17.5364 7.60397 17.6582 6.24154 18.9171C6.09881 19.0389 6.04691 19.4315 6.12477 19.4721C6.43618 19.6346 6.69568 19.8105 6.90329 20.0001C11.4577 17.9831 15.8564 15.6548 20.0864 13.0692C18.4255 13.1911 16.7258 13.0422 15.6747 12.5819C14.7405 12.1758 14.8184 11.9186 15.4671 11.3907C15.9342 11.0116 15.9732 10.1047 17.0631 10.8627C18.5423 11.8915 20.0994 11.8509 21.6824 10.9846C21.89 10.8763 22.0717 10.7409 22.2663 10.6191C22.4999 10.971 22.7334 11.1605 22.967 11.2418C28.0404 7.91172 32.8413 4.17557 37.3309 0.0739254C35.7998 -0.0749791 34.061 -0.0208262 32.5299 0.439424H32.5169Z" fill="#539536"/>
</svg>
