<svg width="7" height="3" viewBox="0 0 7 3" fill="none" xmlns="http://www.w3.org/2000/svg">
<path d="M5.95809 2.45843C5.94801 2.35761 6.16981 2.36769 6.40168 2.37777C6.40168 2.33745 6.41176 2.29712 6.42185 2.25679H6.40168C6.22021 2.27696 6.04883 2.23663 5.8976 2.23663C5.68589 2.29712 6.08915 2.35761 5.82703 2.4181C5.66573 2.36769 5.5145 2.32736 5.48426 2.25679C5.44393 2.17614 5.27255 2.15598 5.07091 2.18622C4.68781 2.24671 4.43577 2.18622 4.11316 2.12574C3.87121 2.08541 3.52843 1.98459 3.27639 2.035C2.80256 2.12574 2.16742 2.06524 1.77424 2.20639C1.73391 2.21647 1.69359 2.22655 1.64318 2.23663C1.76416 2.37777 1.88514 2.50883 2.00612 2.64997C2.00612 2.64997 2.15734 2.82136 2.16742 2.82136C2.36905 2.79112 2.2884 2.59957 2.53036 2.5794C2.69166 2.73063 2.98403 2.54916 3.14533 2.5794C3.74015 2.70038 4.33496 2.5794 4.89953 2.63989C4.92977 2.5794 4.66765 2.58949 4.73822 2.529C5.2423 2.529 5.78671 2.51892 6.26054 2.55924C6.47225 2.57941 6.64364 2.63989 6.89568 2.59957C6.94609 2.59957 7.01666 2.54916 6.9965 2.54916C6.85535 2.47859 6.57307 2.50883 6.36136 2.47859C6.2303 2.45843 5.98834 2.55924 5.96817 2.43826L5.95809 2.45843Z" fill="#266726"/>
<path d="M0.433508 0.825208C0.463752 0.744555 0.584731 0.694147 0.977913 0.71431C1.01824 0.563086 1.27028 0.613495 1.51224 0.663903C1.61305 0.684066 1.73403 0.704228 1.83485 0.684064C1.96591 0.65382 1.84493 0.623575 1.8046 0.59333C1.72395 0.532841 1.61305 0.472352 1.6433 0.381618C1.75419 0.3917 1.82476 0.401782 1.89534 0.411863C2.19778 0.462271 2.42966 0.542923 2.80268 0.563087C3.20594 0.593331 3.1757 0.381618 3.59912 0.46227C3.65961 0.472352 3.67978 0.421944 3.67978 0.3917C3.67978 0.361455 3.67978 0.331211 3.54871 0.321129C3.0648 0.321129 3.02447 0.21023 2.97406 0.0993331C2.93374 0.00859896 2.843 -0.031727 2.48007 0.0287624C2.12721 0.0892519 1.68362 0.159823 1.22995 0.0993331C0.796444 0.0489253 0.806525 0.0388446 0.544405 0.13966C0.403263 0.20015 0.211713 0.230395 0 0.250558C0.141142 0.442108 0.292366 0.633658 0.443589 0.815126L0.433508 0.825208Z" fill="#266726"/>
</svg>
