<svg width="126" height="8" viewBox="0 0 126 8" fill="none" xmlns="http://www.w3.org/2000/svg">
<path d="M2.53624 6.65629C1.07264 6.65629 0 5.50345 0 4.03985C0 2.57625 1.07264 1.41339 2.56631 1.41339C3.48858 1.41339 4.03994 1.73418 4.54117 2.21536L4.15021 2.6364C3.71915 2.23541 3.24799 1.9447 2.55629 1.9447C1.43352 1.9447 0.591452 2.84692 0.591452 4.02983C0.591452 5.21274 1.43352 6.12499 2.55629 6.12499C3.24799 6.12499 3.70912 5.85432 4.1903 5.39318L4.57125 5.7641C4.03994 6.2954 3.46853 6.65629 2.54626 6.65629H2.53624Z" fill="#231F20"/>
<path d="M7.7693 6.65629C6.2255 6.65629 5.19295 5.44331 5.19295 4.03985C5.19295 2.6364 6.24555 1.41339 7.78935 1.41339C9.33315 1.41339 10.3657 2.62638 10.3657 4.02983C10.3657 5.43328 9.3131 6.65629 7.7693 6.65629ZM7.7693 1.9447C6.60644 1.9447 5.78441 2.86697 5.78441 4.02983C5.78441 5.19269 6.62648 6.12499 7.77932 6.12499C8.93216 6.12499 9.76421 5.20271 9.76421 4.03985C9.76421 2.87699 8.92214 1.9447 7.7693 1.9447Z" fill="#231F20"/>
<path d="M14.0045 5.18276H13.9744L12.1299 2.4761V6.57619H11.5685V1.51373H12.1499L13.9945 4.28054L15.839 1.51373H16.4205V6.57619H15.849V2.4761L14.0045 5.19279V5.18276Z" fill="#231F20"/>
<path d="M19.6584 4.78177H18.4254V6.56616H17.854V1.5037H19.7487C20.8915 1.5037 21.6433 2.11521 21.6433 3.11767C21.6433 4.22039 20.7311 4.78177 19.6484 4.78177H19.6584ZM19.7086 2.03501H18.4254V4.26048H19.6785C20.5206 4.26048 21.0719 3.80938 21.0719 3.13772C21.0719 2.40592 20.5306 2.03501 19.7086 2.03501Z" fill="#231F20"/>
<path d="M26.355 2.02499H23.2674V3.75926H26.0342V4.28054H23.2674V6.05491H26.3951V6.57619H22.696V1.51373H26.355V2.03502V2.02499Z" fill="#231F20"/>
<path d="M31.2669 1.5037H31.8283V6.56616H31.3772L28.1091 2.41594V6.56616H27.5478V1.5037H28.0791L31.2669 5.56369V1.5037Z" fill="#231F20"/>
<path d="M35.0762 3.75916C36.2089 4.00978 36.7302 4.42079 36.7302 5.20271C36.7302 6.07486 36.0085 6.64627 34.996 6.64627C34.194 6.64627 33.5324 6.3756 32.9209 5.83427L33.2717 5.41323C33.803 5.89441 34.3043 6.12499 35.006 6.12499C35.7077 6.12499 36.1388 5.77412 36.1388 5.25284C36.1388 4.77165 35.8882 4.51101 34.8255 4.28045C33.6627 4.02983 33.1213 3.64889 33.1213 2.80682C33.1213 1.96475 33.8231 1.41339 34.7854 1.41339C35.5273 1.41339 36.0486 1.62391 36.5698 2.03492L36.239 2.476C35.7679 2.09507 35.2967 1.92465 34.7754 1.92465C34.1138 1.92465 33.6928 2.28554 33.6928 2.74667C33.6928 3.20781 33.9534 3.49852 35.0661 3.73911L35.0762 3.75916Z" fill="#231F20"/>
<path d="M42.5046 6.56612H41.8931L41.3017 5.22281H38.5449L37.9434 6.56612H37.362L39.6676 1.46356H40.1989L42.5046 6.56612ZM39.9183 2.13522L38.7554 4.72158H41.0611L39.9082 2.13522H39.9183Z" fill="#231F20"/>
<path d="M43.2764 4.03985C43.2764 2.5963 44.3491 1.41339 45.8427 1.41339C46.765 1.41339 47.3164 1.73418 47.8176 2.21536L47.4266 2.6364C46.9956 2.23541 46.5244 1.9447 45.8327 1.9447C44.7099 1.9447 43.8679 2.84692 43.8679 4.02983C43.8679 5.21274 44.7099 6.12499 45.8327 6.12499C46.5244 6.12499 46.9855 5.85432 47.4667 5.39318L47.8477 5.7641C47.3364 6.27535 46.7951 6.61619 45.9329 6.65629L45.4518 7.68883L44.9104 7.43821L45.4718 6.62622C44.1887 6.4558 43.2764 5.38316 43.2764 4.02983V4.03985Z" fill="#231F20"/>
<path d="M53.5616 6.56611H52.9501L52.3586 5.2228H49.6019L49.0004 6.56611H48.419L50.7246 1.46355H51.2559L53.5616 6.56611ZM51.4865 1.05254C51.1657 1.05254 50.7647 0.761827 50.5141 0.761827C50.3236 0.761827 50.2434 0.852048 50.1332 1.11269L49.7923 1.02247C49.9327 0.481135 50.1332 0.260594 50.484 0.260594C50.8148 0.260594 51.2058 0.551308 51.4564 0.551308C51.6469 0.551308 51.7271 0.461086 51.8374 0.200444L52.1782 0.290667C52.0379 0.831999 51.8374 1.05254 51.4865 1.05254ZM50.9752 2.13521L49.8124 4.72157H52.118L50.9652 2.13521H50.9752Z" fill="#231F20"/>
<path d="M56.9102 6.65629C55.3664 6.65629 54.3339 5.44331 54.3339 4.03985C54.3339 2.6364 55.3865 1.41339 56.9303 1.41339C58.4741 1.41339 59.5066 2.62638 59.5066 4.02983C59.5066 5.43328 58.454 6.65629 56.9102 6.65629ZM56.9102 1.9447C55.7474 1.9447 54.9254 2.86697 54.9254 4.02983C54.9254 5.19269 55.7674 6.12499 56.9203 6.12499C58.0731 6.12499 58.9051 5.20271 58.9051 4.03985C58.9051 2.87699 58.0631 1.9447 56.9102 1.9447Z" fill="#231F20"/>
<path d="M66.5437 2.02499H63.4561V3.75926H66.2229V4.28054H63.4561V6.05491H66.5838V6.57619H62.8847V1.51373H66.5437V2.03502V2.02499Z" fill="#231F20"/>
<path d="M69.5511 3.75916C70.6839 4.00978 71.2052 4.42079 71.2052 5.20271C71.2052 6.07486 70.4834 6.64627 69.4709 6.64627C68.669 6.64627 68.0073 6.3756 67.3958 5.83427L67.7467 5.41323C68.278 5.89441 68.7792 6.12499 69.481 6.12499C70.1827 6.12499 70.6138 5.77412 70.6138 5.25284C70.6138 4.77165 70.3631 4.51101 69.3005 4.28045C68.1376 4.02983 67.5963 3.64889 67.5963 2.80682C67.5963 1.96475 68.298 1.41339 69.2604 1.41339C70.0022 1.41339 70.5235 1.62391 71.0448 2.03492L70.714 2.476C70.2428 2.09507 69.7717 1.92465 69.2504 1.92465C68.5888 1.92465 68.1677 2.28554 68.1677 2.74667C68.1677 3.20781 68.4284 3.49852 69.5411 3.73911L69.5511 3.75916Z" fill="#231F20"/>
<path d="M74.1627 4.78177H72.9296V6.56616H72.3582V1.5037H74.2529C75.3957 1.5037 76.1476 2.11521 76.1476 3.11767C76.1476 4.22039 75.2353 4.78177 74.1527 4.78177H74.1627ZM74.2128 2.03501H72.9296V4.26048H74.1827C75.0248 4.26048 75.5762 3.80938 75.5762 3.13772C75.5762 2.40592 75.0348 2.03501 74.2128 2.03501Z" fill="#231F20"/>
<path d="M80.8588 2.02499H77.7712V3.75926H80.538V4.28054H77.7712V6.05491H80.8988V6.57619H77.1997V1.51373H80.8588V2.03502V2.02499Z" fill="#231F20"/>
<path d="M82.052 1.5037H82.6234V6.04487H85.4804V6.57618H82.052V1.51373V1.5037Z" fill="#231F20"/>
<path d="M90.1918 2.02499H87.1042V3.75926H89.871V4.28054H87.1042V6.05491H90.2319V6.57619H86.5328V1.51373H90.1918V2.03502V2.02499Z" fill="#231F20"/>
<path d="M93.7308 6.65629C92.187 6.65629 91.1545 5.44331 91.1545 4.03985C91.1545 2.6364 92.2071 1.41339 93.7509 1.41339C95.2947 1.41339 96.3272 2.62638 96.3272 4.02983C96.3272 5.43328 95.2746 6.65629 93.7308 6.65629ZM93.7308 1.9447C92.568 1.9447 91.7459 2.86697 91.7459 4.02983C91.7459 5.19269 92.588 6.12499 93.7409 6.12499C94.8937 6.12499 95.7257 5.20271 95.7257 4.03985C95.7257 2.87699 94.8837 1.9447 93.7308 1.9447Z" fill="#231F20"/>
<path d="M97.53 1.5037H98.1015V6.04487H100.958V6.57618H97.53V1.51373V1.5037Z" fill="#231F20"/>
<path d="M104.367 6.65638C102.823 6.65638 101.791 5.44339 101.791 4.03994C101.791 2.63649 102.843 1.41348 104.387 1.41348C105.931 1.41348 106.963 2.62646 106.963 4.02992C106.963 5.43337 105.911 6.65638 104.367 6.65638ZM104.367 1.94478C103.204 1.94478 102.382 2.86706 102.382 4.02992C102.382 5.19278 103.224 6.12507 104.377 6.12507C105.53 6.12507 106.362 5.2028 106.362 4.03994C106.362 2.87708 105.52 1.94478 104.367 1.94478ZM104.186 1.05259L104.878 0L105.46 0.270665L104.638 1.05259H104.186Z" fill="#231F20"/>
<path d="M110.512 6.65629C108.918 6.65629 107.936 5.49343 107.936 4.03985C107.936 2.58628 108.958 1.41339 110.472 1.41339C111.324 1.41339 111.855 1.66401 112.356 2.08504L111.985 2.5161C111.595 2.17527 111.163 1.93467 110.442 1.93467C109.319 1.93467 108.517 2.88701 108.517 4.0198C108.517 5.23279 109.289 6.13501 110.522 6.13501C111.103 6.13501 111.635 5.91447 111.985 5.62375V4.36064H110.442V3.84938H112.537V5.86434C112.066 6.28538 111.354 6.63624 110.502 6.63624L110.512 6.65629Z" fill="#231F20"/>
<path d="M114.462 1.5037V6.56616H113.89V1.5037H114.462Z" fill="#231F20"/>
<path d="M118.261 6.65629C116.797 6.65629 115.725 5.50345 115.725 4.03985C115.725 2.57625 116.797 1.41339 118.291 1.41339C119.213 1.41339 119.765 1.73418 120.266 2.21536L119.875 2.6364C119.444 2.23541 118.973 1.9447 118.281 1.9447C117.158 1.9447 116.316 2.84692 116.316 4.02983C116.316 5.21274 117.158 6.12499 118.281 6.12499C118.973 6.12499 119.434 5.85432 119.915 5.39318L120.296 5.7641C119.765 6.2954 119.193 6.65629 118.271 6.65629H118.261Z" fill="#231F20"/>
<path d="M126 6.56612H125.389L124.797 5.22281H122.04L121.439 6.56612H120.857L123.163 1.46356H123.694L126 6.56612ZM123.424 2.13522L122.261 4.72158H124.567L123.414 2.13522H123.424Z" fill="#231F20"/>
</svg>
