<svg width="8" height="27" viewBox="0 0 8 27" fill="none" xmlns="http://www.w3.org/2000/svg">
<path d="M0.869513 13.007C0.869513 13.007 0.940288 12.9665 0.97062 12.9362C1.51659 12.5621 1.74914 12.2082 1.56715 11.6522C0.879624 9.54916 0.940288 7.42592 1.38516 5.31281C1.53681 4.59495 1.24361 3.90743 1.11217 3.19969C1.09195 3.09858 0.990841 2.91659 0.920067 2.91659C0.556084 2.91659 0.272987 2.87615 0.0606637 2.82559C0.0202212 3.52323 0 4.23097 0 4.94882C0 7.71913 0.303319 10.4086 0.869513 13.007Z" fill="#72808A"/>
<path d="M7.76477 0.0451761C7.71422 -0.00537705 7.65355 -0.0154877 7.58278 0.0249548C5.58088 0.196835 4.46871 1.35956 2.99256 2.10774C2.62857 2.28973 2.7499 2.66383 2.76001 2.95704C2.82068 4.53429 2.59824 6.08122 2.21404 7.63825C1.7995 9.3065 2.34548 10.995 2.57802 12.6632C2.88134 14.8269 2.60835 16.9906 3.033 19.1441C3.09366 19.4475 3.13411 19.7508 3.17455 20.0541C4.25638 22.5211 5.6011 24.8465 7.16824 27.0001C7.13791 25.0993 7.00647 23.1884 7.23902 21.3078C7.70411 17.5871 7.10758 13.8563 7.75466 10.1457C7.95687 8.98297 7.15813 7.90113 7.14802 6.7283C7.1278 4.48374 8.01754 2.29984 7.77488 0.0552867L7.76477 0.0451761Z" fill="#72808A"/>
</svg>
