<svg width="8" height="27" viewBox="0 0 8 27" fill="none" xmlns="http://www.w3.org/2000/svg">
<path d="M0.86951 13.0069C0.86951 13.0069 0.940285 12.9665 0.970616 12.9362C1.51659 12.5621 1.74913 12.2082 1.56714 11.6521C0.879621 9.54912 0.940285 7.4259 1.38515 5.31279C1.53681 4.59494 1.2436 3.90742 1.11216 3.19967C1.09194 3.09857 0.990838 2.91658 0.920063 2.91658C0.556082 2.91658 0.272986 2.87614 0.0606635 2.82558C0.0202212 3.52321 0 4.23095 0 4.94881C0 7.71911 0.303318 10.4085 0.86951 13.0069Z" fill="#72808A"/>
<path d="M7.76474 0.0451759C7.71419 -0.00537703 7.65353 -0.0154876 7.58275 0.0249547C5.58086 0.196835 4.46869 1.35955 2.99255 2.10774C2.62857 2.28973 2.74989 2.66382 2.76 2.95703C2.82067 4.53428 2.59823 6.0812 2.21403 7.63823C1.7995 9.30647 2.34547 10.9949 2.57801 12.6632C2.88133 14.8269 2.60834 16.9905 3.03299 19.1441C3.09365 19.4474 3.13409 19.7507 3.17454 20.054C4.25637 22.521 5.60108 24.8464 7.16822 27C7.13789 25.0992 7.00645 23.1883 7.23899 21.3077C7.70408 17.587 7.10756 13.8562 7.75463 10.1457C7.95684 8.98294 7.15811 7.9011 7.148 6.72827C7.12778 4.48372 8.01751 2.29984 7.77485 0.0552865L7.76474 0.0451759Z" fill="#72808A"/>
</svg>
