<svg width="9" height="6" viewBox="0 0 9 6" fill="none" xmlns="http://www.w3.org/2000/svg">
<path d="M8.14816 5.77359C8.44637 5.77359 8.72329 5.77359 9.00021 5.76294H8.14816V5.77359Z" fill="#203232"/>
<path d="M7.58326 4.30385C7.58326 4.30385 7.4874 4.18669 7.4661 4.12278C7.28504 3.40919 7.08268 2.6956 6.94422 1.9607C6.84836 1.40687 6.7099 1.0128 6.21997 0.980845C6.12412 0.980845 6.00696 0.938242 5.95371 0.863687C5.54898 0.213998 5.11231 -0.126821 4.39872 0.0435892C3.57862 0.235301 3.13129 0.948892 2.67331 1.67314C2.439 2.03526 2.37509 2.7595 2.10883 2.87666C1.13962 3.30269 0.692292 4.32515 0.181061 5.305L0 5.77363H8.13709V5.57127C8.11579 5.08134 8.17969 4.421 7.58326 4.30385Z" fill="#203232"/>
</svg>
