<svg width="13" height="7" viewBox="0 0 13 7" fill="none" xmlns="http://www.w3.org/2000/svg">
<path d="M4.29145 1.71688L4.30208 1.70625L4.29145 1.71688Z" fill="#539536"/>
<path d="M11.3409 0.111493C11.2452 0.132758 11.192 0.154022 11.1389 0.260348C10.7774 0.951466 10.1713 1.30234 9.08678 1.15349C8.87413 1.12159 8.39567 0.845142 8.03416 1.29171C7.70455 1.70638 7.51316 1.61068 6.91773 1.23854C6.83267 1.18538 6.27978 0.845139 6.08839 1.23854C5.9289 1.56815 5.82258 1.36614 5.71625 1.27044C5.5993 1.14285 5.36538 1.15348 5.35475 1.21728C5.28032 1.73828 4.61046 1.52563 4.29149 1.72765C3.99377 2.13168 3.71732 2.52509 2.93051 2.41876C2.6647 2.38686 2.32446 2.41876 2.13307 2.65268C1.81409 3.03545 1.34626 3.32253 0.803996 3.63088C1.15487 3.68404 1.39942 3.71594 1.67587 3.75847C1.50575 3.99239 1.2931 4.08808 0.995383 4.09871C0.7402 4.09871 0.442488 4.02428 0.272366 4.2582C0.612609 4.53465 0.605524 4.78983 0.251105 5.02375C-0.174199 5.30019 -0.0466114 5.60854 0.538181 5.76803C0.963484 5.76803 1.38879 5.74676 1.80346 5.81056C2.10117 5.85309 2.64343 5.89562 2.1756 6.31029C2.12244 6.35282 2.1118 6.48041 2.13307 6.49105C2.23939 6.54421 2.33509 6.608 2.39888 6.6718C3.98314 6.00194 5.51423 5.22577 6.99216 4.35389C6.40737 4.39642 5.82258 4.3539 5.46107 4.19441C5.13146 4.05618 5.16336 3.97112 5.38664 3.801C5.54613 3.67341 5.5674 3.3757 5.93954 3.62025C6.4499 3.96049 7.00279 3.94986 7.54506 3.66278C7.61948 3.62025 7.68328 3.57772 7.74708 3.54582C7.83214 3.66278 7.90657 3.72657 7.99163 3.75847C9.75664 2.64205 11.426 1.39803 12.9996 0.02643C12.4679 -0.026733 11.8619 -0.00546715 11.3303 0.143389L11.3409 0.111493Z" fill="#539536"/>
</svg>
