<svg width="166" height="14" viewBox="0 0 166 14" fill="none" xmlns="http://www.w3.org/2000/svg">
<path d="M10.8453 4.99629H8.46754V2.92957H7.11314V9.94238H8.45751V12.0894H2.44796V9.94238H3.77227V2.92957H2.37773V4.99629H0V0.792618H10.8453V4.99629Z" fill="#56666E"/>
<path d="M21.9314 10.0727C20.8278 11.2867 19.1523 12.3502 17.0355 12.3502C13.6043 12.3502 11.3269 10.153 11.3269 6.55129C11.3269 2.94957 14.126 0.601934 16.2429 0.601934C17.8581 0.601934 18.5905 1.50487 18.731 1.70552L19.1022 0.802586H21.6404V5.39753H18.751C18.7009 4.34411 18.1892 3.36091 17.0355 3.36091C15.8817 3.36091 15.1092 4.79558 15.1092 6.56132C15.1092 8.16654 15.9319 9.60121 17.4669 9.60121C18.8213 9.60121 19.8948 8.17658 20.0352 8.01605L21.9214 10.0828L21.9314 10.0727Z" fill="#56666E"/>
<path d="M33.0173 10.0727C31.9137 11.2867 30.2382 12.3502 28.1213 12.3502C24.6902 12.3502 22.4128 10.153 22.4128 6.55129C22.4128 2.94957 25.2119 0.601934 27.3288 0.601934C28.944 0.601934 29.6764 1.50487 29.8168 1.70552L30.1881 0.802586H32.7263V5.39753H29.8369C29.7867 4.34411 29.2751 3.36091 28.1213 3.36091C26.9676 3.36091 26.1951 4.79558 26.1951 6.56132C26.1951 8.16654 27.0177 9.60121 28.5527 9.60121C29.9071 9.60121 30.9806 8.17658 31.1211 8.01605L33.0072 10.0828L33.0173 10.0727Z" fill="#56666E"/>
<path d="M43.4113 0.792618V4.36424H40.6122V2.92957H38.0238V5.15682H41.0937V7.3038H38.0238V9.94238H40.6122V8.43749H43.4113V12.0894H33.6696V9.94238H34.6829V2.92957H33.6696V0.792618H43.4113Z" fill="#56666E"/>
<path d="M53.6246 0.792618V2.92957H52.6213V9.94238H53.6246V12.0894H48.2571V9.94238H49.2704V2.92957H48.2571V0.792618H53.6246Z" fill="#56666E"/>
<path d="M64.8812 10.0727C63.7776 11.2867 62.1021 12.3502 59.9852 12.3502C56.5541 12.3502 54.2767 10.153 54.2767 6.55129C54.2767 2.94957 57.0758 0.601934 59.1927 0.601934C60.8079 0.601934 61.5403 1.50487 61.6808 1.70552L62.052 0.802586H64.5902V5.39753H61.7008C61.6507 4.34411 61.139 3.36091 59.9852 3.36091C58.8315 3.36091 58.059 4.79558 58.059 6.56132C58.059 8.16654 58.8817 9.60121 60.4167 9.60121C61.7711 9.60121 62.8446 8.17658 62.985 8.01605L64.8712 10.0828L64.8812 10.0727Z" fill="#56666E"/>
<path d="M76.7397 3.6419C76.6093 4.36425 76.3886 5.43774 76.2682 5.80895L74.5727 12.0994H71.1917L69.3858 5.64842C69.3055 5.37754 69.0948 4.45454 69.0447 3.6419H68.9845V10.0126H69.9075V12.0994H65.5232V10.0126H66.3961V2.88945H65.5433V0.80266H71.6732L73.3085 6.85234L74.8636 0.80266H81.0236V2.88945H80.1307V10.0026H81.0236V12.0994H75.917V10.0026H76.82V3.65193H76.7598L76.7397 3.6419Z" fill="#56666E"/>
<path d="M81.816 9.99255H82.749V2.87941H81.816V0.792618H87.8456C90.5243 0.792618 91.8085 1.79588 91.8085 3.55159C91.8085 4.906 91.4373 5.56815 90.2233 6.05975C91.3871 6.3808 92.3603 7.2436 92.3603 8.8087C92.3603 11.0861 91.0861 12.0894 87.966 12.0894H81.826V9.99255H81.816ZM86.0999 5.34744H87.0831C87.9359 5.34744 88.1867 4.8759 88.1867 4.10339C88.1867 3.33088 87.7352 2.91954 87.1232 2.91954H86.1099V5.34744H86.0999ZM87.3941 9.99255C88.0763 9.99255 88.7084 9.47085 88.7084 8.59801C88.7084 7.77533 88.2369 7.17338 87.354 7.17338H86.1099V9.98251H87.4041L87.3941 9.99255Z" fill="#56666E"/>
<path d="M92.9224 12.0893V9.97244H93.6046V6.10988H92.9224V4.01306H96.6746V9.97244H97.4471V12.0893H92.9224ZM95.1196 0C96.2332 0 96.8953 0.902938 96.8953 1.64535C96.8953 2.53826 96.2633 3.28067 95.1196 3.28067C94.1063 3.28067 93.3739 2.4279 93.3739 1.64535C93.3739 0.862807 93.9859 0 95.1196 0Z" fill="#56666E"/>
<path d="M98.0289 8.01613C98.049 5.31735 100.226 3.81245 102.453 3.81245C105.012 3.84255 106.898 5.37754 106.948 8.07632C106.978 10.755 104.992 12.3001 102.534 12.3001C100.226 12.3001 97.9888 10.8754 98.0289 8.01613ZM103.637 8.08636C103.637 6.87241 103.216 5.93937 102.453 5.91931C101.821 5.91931 101.34 6.85234 101.34 8.03619C101.34 9.3605 101.861 10.2333 102.534 10.2333C103.206 10.2333 103.637 9.30031 103.637 8.08636Z" fill="#56666E"/>
<path d="M116.7 0.943009L112.707 13.1327H110.48L114.473 0.943009H116.7Z" fill="#56666E"/>
<path d="M127.063 8.46759C127.093 8.01612 127.324 7.22354 127.645 6.4109L129.12 2.88944H128.267V0.792618H132.862V2.88944H132.07L128.187 12.0894H125.217L120.933 2.88944H120.04V0.792618H125.99V2.88944H125.117L126.491 6.51122C126.752 7.3038 126.963 8.01612 126.993 8.46759H127.073H127.063Z" fill="#56666E"/>
<path d="M139.263 12.0894V9.97248H140.798L140.457 8.86889H137.146L136.805 9.97248H138.069V12.0894H132.932V9.97248H134.036L136.223 2.87941H135.561V0.792618H141.771L144.631 9.97248H145.764V12.0894H139.283H139.263ZM139.865 6.93259L138.802 3.44123L137.748 6.93259H139.865Z" fill="#56666E"/>
<path d="M151.503 0.792618V2.92957H150.65V9.94238H152.737V7.88569H155.456V12.0894H146.406V9.94238H147.299V2.92957H146.406V0.792618H151.513H151.503Z" fill="#56666E"/>
<path d="M166 0.792618V4.36424H163.201V2.92957H160.613V5.15682H163.682V7.3038H160.613V9.94238H163.201V8.43749H166V12.0894H156.258V9.94238H157.272V2.92957H156.258V0.792618H166Z" fill="#56666E"/>
</svg>
