<svg width="127" height="94" viewBox="0 0 127 94" fill="none" xmlns="http://www.w3.org/2000/svg">
<path d="M67.8866 22.8112C75.8628 29.5953 83.5437 35.2537 91.7858 35.2537C106.97 35.2537 114.06 25.7145 114.06 25.7145L62.7759 94L0 9.80586C0 9.80586 10.2509 0 27.3555 0C43.4557 0 55.9813 12.6499 67.8866 22.8112Z" fill="#05867B"/>
<path d="M126.97 8.79859C126.97 8.79859 121.121 3.91047 113.292 3.91047C97.6645 3.91047 87.8863 19.5821 67.8866 22.7816C75.8628 29.5657 83.5437 35.2241 91.7858 35.2241C106.97 35.2241 114.06 25.6848 114.06 25.6848L126.94 8.73934L126.97 8.79859Z" fill="#F3C417"/>
</svg>
