<svg width="166" height="14" viewBox="0 0 166 14" fill="none" xmlns="http://www.w3.org/2000/svg">
<path d="M10.8453 4.99629H8.46754V2.92957H7.11314V9.94238H8.45751V12.0894H2.44796V9.94238H3.77227V2.92957H2.37773V4.99629H0V0.792618H10.8453V4.99629Z" fill="#56666E"/>
<path d="M21.9314 10.0729C20.8278 11.2868 19.1523 12.3503 17.0355 12.3503C13.6043 12.3503 11.3269 10.1531 11.3269 6.55141C11.3269 2.94969 14.126 0.602056 16.2429 0.602056C17.8581 0.602056 18.5905 1.50499 18.731 1.70565L19.1022 0.802709H21.6404V5.39766H18.751C18.7009 4.34423 18.1892 3.36103 17.0355 3.36103C15.8817 3.36103 15.1092 4.7957 15.1092 6.56144C15.1092 8.16667 15.9319 9.60133 17.4669 9.60133C18.8213 9.60133 19.8948 8.1767 20.0352 8.01618L21.9214 10.0829L21.9314 10.0729Z" fill="#56666E"/>
<path d="M33.0173 10.0729C31.9137 11.2868 30.2382 12.3503 28.1213 12.3503C24.6902 12.3503 22.4128 10.1531 22.4128 6.55141C22.4128 2.94969 25.2119 0.602056 27.3288 0.602056C28.944 0.602056 29.6764 1.50499 29.8168 1.70565L30.1881 0.802709H32.7263V5.39766H29.8369C29.7867 4.34423 29.2751 3.36103 28.1213 3.36103C26.9676 3.36103 26.1951 4.7957 26.1951 6.56144C26.1951 8.16667 27.0177 9.60133 28.5527 9.60133C29.9071 9.60133 30.9806 8.1767 31.1211 8.01618L33.0072 10.0829L33.0173 10.0729Z" fill="#56666E"/>
<path d="M43.4108 0.792618V4.36424H40.6117V2.92957H38.0233V5.15682H41.0933V7.3038H38.0233V9.94238H40.6117V8.43749H43.4108V12.0894H33.6691V9.94238H34.6824V2.92957H33.6691V0.792618H43.4108Z" fill="#56666E"/>
<path d="M53.6241 0.792618V2.92957H52.6208V9.94238H53.6241V12.0894H48.2566V9.94238H49.2699V2.92957H48.2566V0.792618H53.6241Z" fill="#56666E"/>
<path d="M64.8807 10.0729C63.7771 11.2868 62.1016 12.3503 59.9848 12.3503C56.5536 12.3503 54.2762 10.1531 54.2762 6.55141C54.2762 2.94969 57.0753 0.602056 59.1922 0.602056C60.8074 0.602056 61.5398 1.50499 61.6803 1.70565L62.0515 0.802709H64.5897V5.39766H61.7003C61.6502 4.34423 61.1385 3.36103 59.9848 3.36103C58.831 3.36103 58.0585 4.7957 58.0585 6.56144C58.0585 8.16667 58.8812 9.60133 60.4162 9.60133C61.7706 9.60133 62.8441 8.1767 62.9845 8.01618L64.8707 10.0829L64.8807 10.0729Z" fill="#56666E"/>
<path d="M76.7392 3.6419C76.6088 4.36425 76.3881 5.43774 76.2677 5.80895L74.5722 12.0994H71.1912L69.3853 5.64842C69.305 5.37754 69.0943 4.45454 69.0442 3.6419H68.984V10.0126H69.907V12.0994H65.5227V10.0126H66.3956V2.88945H65.5428V0.80266H71.6727L73.3081 6.85234L74.8631 0.80266H81.0232V2.88945H80.1303V10.0026H81.0232V12.0994H75.9165V10.0026H76.8195V3.65193H76.7593L76.7392 3.6419Z" fill="#56666E"/>
<path d="M81.816 9.99255H82.749V2.87941H81.816V0.792618H87.8456C90.5243 0.792618 91.8085 1.79588 91.8085 3.55159C91.8085 4.906 91.4373 5.56815 90.2233 6.05975C91.3871 6.3808 92.3603 7.2436 92.3603 8.8087C92.3603 11.0861 91.0861 12.0894 87.966 12.0894H81.826V9.99255H81.816ZM86.0999 5.34744H87.0831C87.9359 5.34744 88.1867 4.8759 88.1867 4.10339C88.1867 3.33088 87.7352 2.91954 87.1232 2.91954H86.1099V5.34744H86.0999ZM87.3941 9.99255C88.0763 9.99255 88.7084 9.47085 88.7084 8.59801C88.7084 7.77533 88.2369 7.17338 87.354 7.17338H86.1099V9.98251H87.4041L87.3941 9.99255Z" fill="#56666E"/>
<path d="M92.9224 12.0893V9.97244H93.6046V6.10988H92.9224V4.01306H96.6746V9.97244H97.4471V12.0893H92.9224ZM95.1196 0C96.2332 0 96.8953 0.902938 96.8953 1.64535C96.8953 2.53826 96.2633 3.28067 95.1196 3.28067C94.1063 3.28067 93.3739 2.4279 93.3739 1.64535C93.3739 0.862807 93.9859 0 95.1196 0Z" fill="#56666E"/>
<path d="M98.0284 8.01613C98.0485 5.31735 100.226 3.81245 102.453 3.81245C105.011 3.84255 106.897 5.37754 106.947 8.07632C106.978 10.755 104.991 12.3001 102.533 12.3001C100.226 12.3001 97.9883 10.8754 98.0284 8.01613ZM103.637 8.08636C103.637 6.87241 103.215 5.93937 102.453 5.91931C101.821 5.91931 101.339 6.85234 101.339 8.03619C101.339 9.3605 101.861 10.2333 102.533 10.2333C103.205 10.2333 103.637 9.30031 103.637 8.08636Z" fill="#56666E"/>
<path d="M116.7 0.943009L112.707 13.1327H110.48L114.473 0.943009H116.7Z" fill="#56666E"/>
<path d="M127.064 8.46759C127.094 8.01612 127.325 7.22354 127.646 6.4109L129.12 2.88944H128.268V0.792618H132.863V2.88944H132.07L128.187 12.0894H125.218L120.934 2.88944H120.041V0.792618H125.99V2.88944H125.117L126.492 6.51122C126.753 7.3038 126.963 8.01612 126.994 8.46759H127.074H127.064Z" fill="#56666E"/>
<path d="M139.263 12.0894V9.97248H140.798L140.457 8.86889H137.146L136.805 9.97248H138.069V12.0894H132.932V9.97248H134.036L136.223 2.87941H135.561V0.792618H141.771L144.631 9.97248H145.764V12.0894H139.283H139.263ZM139.865 6.93259L138.802 3.44123L137.748 6.93259H139.865Z" fill="#56666E"/>
<path d="M151.503 0.792618V2.92957H150.65V9.94238H152.737V7.88569H155.455V12.0894H146.406V9.94238H147.299V2.92957H146.406V0.792618H151.513H151.503Z" fill="#56666E"/>
<path d="M166 0.792618V4.36424H163.201V2.92957H160.613V5.15682H163.682V7.3038H160.613V9.94238H163.201V8.43749H166V12.0894H156.258V9.94238H157.272V2.92957H156.258V0.792618H166Z" fill="#56666E"/>
</svg>
