<svg width="8" height="27" viewBox="0 0 8 27" fill="none" xmlns="http://www.w3.org/2000/svg">
<path d="M0.869513 13.007C0.869513 13.007 0.940288 12.9665 0.97062 12.9362C1.51659 12.5621 1.74914 12.2082 1.56715 11.6522C0.879624 9.54916 0.940288 7.42592 1.38516 5.31281C1.53681 4.59495 1.24361 3.90743 1.11217 3.19969C1.09195 3.09858 0.990841 2.91659 0.920067 2.91659C0.556084 2.91659 0.272987 2.87615 0.0606637 2.82559C0.0202212 3.52323 0 4.23097 0 4.94882C0 7.71913 0.303319 10.4086 0.869513 13.007Z" fill="#72808A"/>
<path d="M7.76526 0.0451761C7.71471 -0.00537705 7.65405 -0.0154877 7.58327 0.0249548C5.58137 0.196835 4.4692 1.35956 2.99305 2.10774C2.62907 2.28973 2.7504 2.66383 2.76051 2.95704C2.82117 4.53429 2.59874 6.08122 2.21453 7.63825C1.8 9.3065 2.34597 10.995 2.57851 12.6632C2.88183 14.8269 2.60885 16.9906 3.03349 19.1441C3.09416 19.4475 3.1346 19.7508 3.17504 20.0541C4.25688 22.5211 5.60159 24.8465 7.16874 27.0001C7.1384 25.0993 7.00697 23.1884 7.23951 21.3078C7.7046 17.5871 7.10807 13.8563 7.75515 10.1457C7.95737 8.98297 7.15863 7.90113 7.14852 6.7283C7.12829 4.48374 8.01803 2.29984 7.77537 0.0552867L7.76526 0.0451761Z" fill="#72808A"/>
</svg>
