<svg width="15" height="4" viewBox="0 0 15 4" fill="none" xmlns="http://www.w3.org/2000/svg">
<path d="M14.3285 2.34623C14.1018 2.23635 14.0984 2.11618 14.3182 1.9857C14.2152 1.87239 14.0194 1.9136 13.8649 1.9136C13.6795 1.9136 13.5456 1.86209 13.4323 1.74878C13.6074 1.72818 13.7619 1.71788 13.9885 1.68698C13.6486 1.54276 13.3499 1.40885 13.1439 1.23374C13.0203 1.13073 12.8039 1.11013 12.6391 1.13073C12.1344 1.18223 11.9593 0.996819 11.7739 0.811404C11.5781 0.708395 11.1455 0.811404 11.094 0.574485C11.094 0.543582 10.9395 0.543583 10.8674 0.595087C10.8056 0.646591 10.7335 0.739298 10.6305 0.584786C10.5069 0.399371 10.1566 0.564184 10.1051 0.584786C9.73429 0.7599 9.61068 0.801104 9.39437 0.615689C9.16775 0.409672 8.85872 0.533281 8.72481 0.553883C8.03465 0.625989 7.65352 0.461176 7.4166 0.14185C7.3857 0.0903453 7.3445 0.0903456 7.29299 0.069744C6.79855 -0.0332644 6.22171 -0.0126628 5.81997 0.069744C5.39764 0.14185 4.9547 0.14185 4.55297 0.183054C3.97612 0.234558 3.74951 0.512681 3.28597 0.605388C3.22416 0.615689 3.23446 0.63629 3.25507 0.667193C3.44048 1.04832 3.23446 1.24404 2.57521 1.24404C2.34859 1.24404 2.30739 1.47066 2.03957 1.34705C2.01896 1.34705 1.99836 1.36765 1.98806 1.36765C1.81295 1.59427 1.49362 1.46036 1.34941 1.39855C1.2052 1.33675 1.13309 1.30584 0.97858 1.35735C0.74166 1.43976 0.576847 1.56337 0.257521 1.58397C0.0824067 1.59427 0.0824065 1.74878 0.206017 1.84149C0.103008 1.84149 0.0412034 1.87239 0 1.9136C0.556245 2.53165 1.14339 3.12909 1.74084 3.70594C1.84385 3.70594 1.94686 3.68534 2.04987 3.59263C2.22498 3.43812 2.67822 3.53083 2.81213 3.72654C2.90484 3.87075 3.01815 3.93256 3.32717 3.88106C3.84221 3.78835 4.43966 3.85015 4.9341 3.70594C5.35644 3.58233 5.61396 3.56173 5.59336 3.89135C5.59336 3.92226 5.67576 3.96346 5.73757 3.97376C6.1393 4.08707 7.3857 3.80895 7.3445 3.59263C7.27239 3.2836 7.59172 3.34541 7.88014 3.34541C8.09646 3.34541 8.25097 3.31451 8.37458 3.2115C8.39518 3.1909 8.46729 3.1909 8.50849 3.1909C8.6321 3.263 8.51879 3.39691 8.76601 3.42782C8.78662 3.39691 8.79692 3.36601 8.81752 3.33511C8.88962 3.2321 8.85872 3.04669 9.09564 3.05699C9.43557 3.05699 9.15745 3.2218 9.20895 3.30421C9.22955 3.33511 9.32226 3.39691 9.34286 3.39691C9.63128 3.33511 9.71369 3.48962 9.88881 3.54113C10.5893 3.75744 11.0528 3.60293 11.1352 3.16C11.1558 3.06729 11.1867 2.97458 11.2279 2.84067C11.5987 3.32137 12.1378 3.63727 12.8451 3.78835C12.8245 3.53083 12.67 3.2527 13.1542 3.06729C13.1748 3.06729 13.1542 3.00549 13.1336 2.98488C12.8348 2.78917 13.1851 2.76856 13.3705 2.74796C13.628 2.71706 13.9061 2.73766 14.174 2.72736C14.5551 2.65526 14.6272 2.51104 14.3594 2.37713L14.3285 2.34623ZM3.01815 2.59345C2.85333 2.61405 2.74002 2.52135 2.69882 2.44924C2.62671 2.31533 2.5134 2.22262 2.26618 2.18142C2.14257 2.16081 1.96746 2.18142 2.01896 2.05781C2.06017 1.9651 2.24558 2.0063 2.35889 1.9857C2.59581 1.9651 3.22416 2.25352 3.20356 2.37713C3.18296 2.44924 3.18296 2.57285 3.02845 2.59345H3.01815ZM7.3651 1.85179C7.3342 1.92389 7.18999 1.9651 7.10758 1.9548C6.76765 1.9136 6.46893 2.14021 6.1084 1.996C6.02599 1.9651 5.88178 1.9754 5.80967 2.0475C5.75817 2.09901 5.83027 2.25352 5.56245 2.12991C5.31523 2.0166 5.02681 1.9239 4.78989 1.84149C4.85169 1.66638 4.9444 1.60457 5.16072 1.52216C5.65516 1.33675 6.1702 1.63547 6.62344 1.43976C6.62344 1.43976 6.75735 1.50156 6.80885 1.54276C6.90156 1.60457 6.92216 1.70758 7.10758 1.71788C7.24149 1.72818 7.396 1.73848 7.3548 1.85179H7.3651ZM11.0116 1.9651C10.5378 2.10931 9.45617 2.05781 9.06474 1.84149C8.93083 1.76938 8.83812 1.78998 8.71451 1.80029C8.18917 1.86209 8.28187 1.71788 8.43639 1.52216C8.52909 1.58397 8.5909 1.62517 8.65271 1.66637C8.95143 1.48096 9.25015 1.9754 9.54888 1.66637C9.59008 1.68697 9.63129 1.70758 9.68279 1.72818C10.033 1.86209 10.3729 1.87239 10.7026 1.70758C10.9395 1.59427 10.9498 1.72818 11.0528 1.78998C11.197 1.87239 11.2176 1.91359 11.0116 1.9754V1.9651Z" fill="#539536"/>
</svg>
