<svg width="126" height="8" viewBox="0 0 126 8" fill="none" xmlns="http://www.w3.org/2000/svg">
<path d="M2.53625 6.65632C1.07264 6.65632 0 5.50348 0 4.03987C0 2.57626 1.07264 1.4134 2.56632 1.4134C3.4886 1.4134 4.03996 1.73419 4.54119 2.21537L4.15023 2.63641C3.71917 2.23542 3.248 1.9447 2.5563 1.9447C1.43353 1.9447 0.591454 2.84693 0.591454 4.02984C0.591454 5.21276 1.43353 6.12501 2.5563 6.12501C3.248 6.12501 3.70913 5.85434 4.19032 5.39321L4.57126 5.76412C4.03995 6.29543 3.46854 6.65632 2.54627 6.65632H2.53625Z" fill="#231F20"/>
<path d="M7.76884 6.65632C6.22504 6.65632 5.19249 5.44333 5.19249 4.03987C5.19249 2.63641 6.24508 1.4134 7.78889 1.4134C9.33269 1.4134 10.3652 2.62639 10.3652 4.02984C10.3652 5.4333 9.31265 6.65632 7.76884 6.65632ZM7.76884 1.9447C6.60598 1.9447 5.78395 2.86698 5.78395 4.02984C5.78395 5.19271 6.62602 6.12501 7.77886 6.12501C8.9317 6.12501 9.76376 5.20273 9.76376 4.03987C9.76376 2.877 8.92168 1.9447 7.76884 1.9447Z" fill="#231F20"/>
<path d="M14.0046 5.18278H13.9745L12.1299 2.47611V6.57622H11.5686V1.51374H12.15L13.9945 4.28056L15.8391 1.51374H16.4205V6.57622H15.8491V2.47611L14.0046 5.19281V5.18278Z" fill="#231F20"/>
<path d="M19.658 4.78179H18.425V6.56618H17.8536V1.50371H19.7482C20.8911 1.50371 21.6429 2.11521 21.6429 3.11768C21.6429 4.2204 20.7307 4.78179 19.648 4.78179H19.658ZM19.7081 2.03501H18.425V4.2605H19.6781C20.5201 4.2605 21.0715 3.80939 21.0715 3.13773C21.0715 2.40593 20.5302 2.03501 19.7081 2.03501Z" fill="#231F20"/>
<path d="M26.3546 2.025H23.267V3.75927H26.0338V4.28056H23.267V6.05493H26.3947V6.57622H22.6956V1.51374H26.3546V2.03502V2.025Z" fill="#231F20"/>
<path d="M31.2675 1.50371H31.8289V6.56618H31.3778L28.1097 2.41595V6.56618H27.5484V1.50371H28.0797L31.2675 5.56371V1.50371Z" fill="#231F20"/>
<path d="M35.0763 3.75918C36.2091 4.0098 36.7304 4.42081 36.7304 5.20273C36.7304 6.07488 36.0086 6.64629 34.9961 6.64629C34.1941 6.64629 33.5325 6.37563 32.921 5.83429L33.2718 5.41325C33.8032 5.89444 34.3044 6.12501 35.0061 6.12501C35.7079 6.12501 36.1389 5.77414 36.1389 5.25286C36.1389 4.77167 35.8883 4.51103 34.8257 4.28046C33.6628 4.02984 33.1215 3.6489 33.1215 2.80683C33.1215 1.96475 33.8232 1.4134 34.7856 1.4134C35.5274 1.4134 36.0487 1.62391 36.57 2.03493L36.2392 2.47601C35.768 2.09508 35.2968 1.92466 34.7756 1.92466C34.1139 1.92466 33.6929 2.28555 33.6929 2.74668C33.6929 3.20782 33.9535 3.49853 35.0663 3.73913L35.0763 3.75918Z" fill="#231F20"/>
<path d="M42.5043 6.56614H41.8928L41.3013 5.22283H38.5445L37.943 6.56614H37.3616L39.6673 1.46357H40.1986L42.5043 6.56614ZM39.9179 2.13522L38.755 4.7216H41.0607L39.9079 2.13522H39.9179Z" fill="#231F20"/>
<path d="M43.2766 4.03987C43.2766 2.59631 44.3492 1.4134 45.8429 1.4134C46.7652 1.4134 47.3165 1.73419 47.8178 2.21537L47.4268 2.63641C46.9957 2.23542 46.5246 1.9447 45.8329 1.9447C44.7101 1.9447 43.868 2.84693 43.868 4.02984C43.868 5.21276 44.7101 6.12501 45.8329 6.12501C46.5246 6.12501 46.9857 5.85434 47.4669 5.39321L47.8478 5.76412C47.3366 6.27538 46.7953 6.61622 45.9331 6.65632L45.4519 7.68886L44.9106 7.43824L45.472 6.62624C44.1888 6.45582 43.2766 5.38318 43.2766 4.02984V4.03987Z" fill="#231F20"/>
<path d="M53.5618 6.56613H52.9503L52.3588 5.22282H49.602L49.0006 6.56613H48.4191L50.7248 1.46356H51.2561L53.5618 6.56613ZM51.4867 1.05255C51.1659 1.05255 50.7649 0.76183 50.5143 0.76183C50.3238 0.76183 50.2436 0.852051 50.1334 1.11269L49.7925 1.02247C49.9329 0.481137 50.1334 0.260595 50.4842 0.260595C50.815 0.260595 51.206 0.55131 51.4566 0.55131C51.6471 0.55131 51.7273 0.461088 51.8376 0.200445L52.1784 0.290668C52.0381 0.832002 51.8376 1.05255 51.4867 1.05255ZM50.9754 2.13521L49.8126 4.72159H52.1182L50.9654 2.13521H50.9754Z" fill="#231F20"/>
<path d="M56.9105 6.65632C55.3666 6.65632 54.3341 5.44333 54.3341 4.03987C54.3341 2.63641 55.3867 1.4134 56.9305 1.4134C58.4743 1.4134 59.5069 2.62639 59.5069 4.02984C59.5069 5.4333 58.4543 6.65632 56.9105 6.65632ZM56.9105 1.9447C55.7476 1.9447 54.9256 2.86698 54.9256 4.02984C54.9256 5.19271 55.7676 6.12501 56.9205 6.12501C58.0733 6.12501 58.9054 5.20273 58.9054 4.03987C58.9054 2.877 58.0633 1.9447 56.9105 1.9447Z" fill="#231F20"/>
<path d="M66.5445 2.025H63.4569V3.75927H66.2237V4.28056H63.4569V6.05493H66.5846V6.57622H62.8855V1.51374H66.5445V2.03502V2.025Z" fill="#231F20"/>
<path d="M69.5519 3.75918C70.6847 4.0098 71.206 4.42081 71.206 5.20273C71.206 6.07488 70.4842 6.64629 69.4717 6.64629C68.6697 6.64629 68.0081 6.37563 67.3966 5.83429L67.7474 5.41325C68.2788 5.89444 68.78 6.12501 69.4817 6.12501C70.1834 6.12501 70.6145 5.77414 70.6145 5.25286C70.6145 4.77167 70.3639 4.51103 69.3013 4.28046C68.1384 4.02984 67.5971 3.6489 67.5971 2.80683C67.5971 1.96475 68.2988 1.4134 69.2612 1.4134C70.003 1.4134 70.5243 1.62391 71.0456 2.03493L70.7148 2.47601C70.2436 2.09508 69.7724 1.92466 69.2512 1.92466C68.5895 1.92466 68.1685 2.28555 68.1685 2.74668C68.1685 3.20782 68.4291 3.49853 69.5419 3.73913L69.5519 3.75918Z" fill="#231F20"/>
<path d="M74.1625 4.78179H72.9294V6.56618H72.358V1.50371H74.2527C75.3955 1.50371 76.1474 2.11521 76.1474 3.11768C76.1474 4.2204 75.2351 4.78179 74.1525 4.78179H74.1625ZM74.2126 2.03501H72.9294V4.2605H74.1825C75.0246 4.2605 75.576 3.80939 75.576 3.13773C75.576 2.40593 75.0346 2.03501 74.2126 2.03501Z" fill="#231F20"/>
<path d="M80.8591 2.025H77.7715V3.75927H80.5383V4.28056H77.7715V6.05493H80.8992V6.57622H77.2V1.51374H80.8591V2.03502V2.025Z" fill="#231F20"/>
<path d="M82.0518 1.50371H82.6233V6.0449H85.4803V6.57621H82.0518V1.51373V1.50371Z" fill="#231F20"/>
<path d="M90.1926 2.025H87.105V3.75927H89.8718V4.28056H87.105V6.05493H90.2327V6.57622H86.5336V1.51374H90.1926V2.03502V2.025Z" fill="#231F20"/>
<path d="M93.7307 6.65632C92.1869 6.65632 91.1544 5.44333 91.1544 4.03987C91.1544 2.63641 92.2069 1.4134 93.7507 1.4134C95.2946 1.4134 96.3271 2.62639 96.3271 4.02984C96.3271 5.4333 95.2745 6.65632 93.7307 6.65632ZM93.7307 1.9447C92.5678 1.9447 91.7458 2.86698 91.7458 4.02984C91.7458 5.19271 92.5879 6.12501 93.7407 6.12501C94.8936 6.12501 95.7256 5.20273 95.7256 4.03987C95.7256 2.877 94.8836 1.9447 93.7307 1.9447Z" fill="#231F20"/>
<path d="M97.5304 1.50371H98.1018V6.0449H100.959V6.57621H97.5304V1.51373V1.50371Z" fill="#231F20"/>
<path d="M104.367 6.65641C102.823 6.65641 101.791 5.44342 101.791 4.03996C101.791 2.6365 102.844 1.41348 104.387 1.41348C105.931 1.41348 106.964 2.62647 106.964 4.02993C106.964 5.43339 105.911 6.65641 104.367 6.65641ZM104.367 1.94479C103.204 1.94479 102.382 2.86707 102.382 4.02993C102.382 5.1928 103.224 6.1251 104.377 6.1251C105.53 6.1251 106.362 5.20282 106.362 4.03996C106.362 2.87709 105.52 1.94479 104.367 1.94479ZM104.187 1.05259L104.879 0L105.46 0.270666L104.638 1.05259H104.187Z" fill="#231F20"/>
<path d="M110.512 6.65632C108.918 6.65632 107.936 5.49345 107.936 4.03987C107.936 2.58629 108.958 1.4134 110.472 1.4134C111.324 1.4134 111.856 1.66401 112.357 2.08505L111.986 2.51611C111.595 2.17527 111.164 1.93468 110.442 1.93468C109.319 1.93468 108.517 2.88703 108.517 4.01982C108.517 5.23281 109.289 6.13503 110.522 6.13503C111.104 6.13503 111.635 5.91449 111.986 5.62377V4.36066H110.442V3.8494H112.537V5.86436C112.066 6.2854 111.354 6.63627 110.502 6.63627L110.512 6.65632Z" fill="#231F20"/>
<path d="M114.462 1.50371V6.56618H113.891V1.50371H114.462Z" fill="#231F20"/>
<path d="M118.262 6.65632C116.798 6.65632 115.726 5.50348 115.726 4.03987C115.726 2.57626 116.798 1.4134 118.292 1.4134C119.214 1.4134 119.766 1.73419 120.267 2.21537L119.876 2.63641C119.445 2.23542 118.974 1.9447 118.282 1.9447C117.159 1.9447 116.317 2.84693 116.317 4.02984C116.317 5.21276 117.159 6.12501 118.282 6.12501C118.974 6.12501 119.435 5.85434 119.916 5.39321L120.297 5.76412C119.766 6.29543 119.194 6.65632 118.272 6.65632H118.262Z" fill="#231F20"/>
<path d="M126 6.56614H125.389L124.797 5.22283H122.04L121.439 6.56614H120.857L123.163 1.46357H123.694L126 6.56614ZM123.424 2.13522L122.261 4.7216H124.567L123.414 2.13522H123.424Z" fill="#231F20"/>
</svg>
