<svg width="145" height="111" viewBox="0 0 145 111" fill="none" xmlns="http://www.w3.org/2000/svg">
<path d="M22.1844 0H22.1697C20.7978 0 19.5089 0.538122 18.5325 1.50674C17.5463 2.49004 17.0044 3.8011 17.0044 5.19533V83.1595C17.0044 86.0164 19.3332 88.3499 22.199 88.3548C34.2775 88.3842 54.5091 90.9036 68.4721 105.545V23.9611C68.4721 22.9925 68.2231 22.0826 67.7593 21.3292C56.3057 2.83737 34.2921 0.0293521 22.1844 0Z" fill="#808B94"/>
<path d="M128 83.1595V5.20021C128 3.80598 127.458 2.49492 126.472 1.51163C125.501 0.538113 124.207 0.00488281 122.835 0.00488281H122.82C110.718 0.0342349 88.699 2.84226 77.2406 21.3292C76.7719 22.0826 76.5278 22.9925 76.5278 23.9611V105.55C90.4859 90.9133 110.722 88.3891 122.801 88.3597C125.667 88.3548 127.996 86.0213 127.996 83.1644L128 83.1595Z" fill="#808B94"/>
<path d="M139.815 17.9783H136.051V83.1596C136.051 90.4585 130.114 96.4121 122.82 96.4268C112.578 96.4512 95.6854 98.4569 83.7241 109.802C104.415 104.724 126.223 108.026 138.653 110.863C140.206 111.215 141.807 110.853 143.052 109.86C144.292 108.872 145 107.39 145 105.8V23.1785C145 20.3118 142.671 17.9783 139.81 17.9783H139.815Z" fill="#808B94"/>
<path d="M8.95387 83.1596V17.9783H5.18973C2.32879 17.9783 0 20.3118 0 23.1785V105.805C0 107.395 0.712795 108.877 1.94798 109.865C3.19293 110.858 4.79428 111.225 6.3468 110.868C18.7768 108.031 40.5902 104.729 61.2759 109.806C49.3146 98.4618 32.4224 96.4561 22.1796 96.4316C14.8857 96.4121 8.94899 90.4634 8.94899 83.1645L8.95387 83.1596Z" fill="#808B94"/>
</svg>
