<svg width="83" height="83" viewBox="0 0 83 83" fill="none" xmlns="http://www.w3.org/2000/svg">
<path d="M68.7349 0H14.2651C6.37985 0 0 6.40741 0 14.2651V68.7349C0 76.5943 6.37985 83 14.2651 83H68.7349C76.5943 83 83 76.5926 83 68.7349V14.2651C83 6.40568 76.5926 0 68.7349 0ZM31.1259 7.7819H35.0168C37.144 7.7819 38.9078 9.51982 38.9078 11.6728C38.9078 13.8259 37.144 15.5638 35.0168 15.5638H31.1259C28.9728 15.5638 27.2349 13.8259 27.2349 11.6728C27.2349 9.51982 28.9728 7.7819 31.1259 7.7819ZM53.3795 39.3987C54.0547 39.8913 54.4681 40.6698 54.4681 41.5C54.4681 42.3302 54.053 43.1346 53.3795 43.6272L35.2235 56.5953C34.7567 56.9071 34.2383 57.0621 33.7198 57.0621C33.3047 57.0621 32.8896 56.9846 32.5262 56.7762C31.6701 56.3352 31.1259 55.4533 31.1259 54.4681V28.5302C31.1259 27.5708 31.6701 26.6889 32.5262 26.248C33.3822 25.807 34.4191 25.8587 35.2235 26.4288L53.3795 39.3969V39.3987ZM18.156 75.2198H14.2651C12.1121 75.2198 10.3741 73.4819 10.3741 71.3289C10.3741 69.1759 12.1121 67.4379 14.2651 67.4379H18.156C20.2832 67.4379 22.047 69.1759 22.047 71.3289C22.047 73.4819 20.2832 75.2198 18.156 75.2198ZM18.156 15.5621H14.2651C12.1121 15.5621 10.3741 13.8241 10.3741 11.6711C10.3741 9.5181 12.1121 7.78017 14.2651 7.78017H18.156C20.2832 7.78017 22.047 9.5181 22.047 11.6711C22.047 13.8241 20.2832 15.5621 18.156 15.5621ZM35.0151 75.2198H31.1241C28.9711 75.2198 27.2332 73.4819 27.2332 71.3289C27.2332 69.1759 28.9711 67.4379 31.1241 67.4379H35.0151C37.1423 67.4379 38.906 69.1759 38.906 71.3289C38.906 73.4819 37.1423 75.2198 35.0151 75.2198ZM51.8759 75.2198H47.9849C45.8319 75.2198 44.094 73.4819 44.094 71.3289C44.094 69.1759 45.8319 67.4379 47.9849 67.4379H51.8759C54.0031 67.4379 55.7668 69.1759 55.7668 71.3289C55.7668 73.4819 54.0031 75.2198 51.8759 75.2198ZM51.8759 15.5621H47.9849C45.8319 15.5621 44.094 13.8241 44.094 11.6711C44.094 9.5181 45.8319 7.78017 47.9849 7.78017H51.8759C54.0031 7.78017 55.7668 9.5181 55.7668 11.6711C55.7668 13.8241 54.0031 15.5621 51.8759 15.5621ZM68.7349 75.2198H64.844C62.6909 75.2198 60.953 73.4819 60.953 71.3289C60.953 69.1759 62.6909 67.4379 64.844 67.4379H68.7349C70.8621 67.4379 72.6259 69.1759 72.6259 71.3289C72.6259 73.4819 70.8621 75.2198 68.7349 75.2198ZM68.7349 15.5621H64.844C62.6909 15.5621 60.953 13.8241 60.953 11.6711C60.953 9.5181 62.6909 7.78017 64.844 7.78017H68.7349C70.8621 7.78017 72.6259 9.5181 72.6259 11.6711C72.6259 13.8241 70.8621 15.5621 68.7349 15.5621Z" fill="#55616C"/>
</svg>
