<svg width="245" height="94" viewBox="0 0 245 94" fill="none" xmlns="http://www.w3.org/2000/svg">
<g clip-path="url(#clip0_308_726)">
<path d="M67.8652 22.804C75.839 29.586 83.5174 35.2426 91.7569 35.2426C106.936 35.2426 114.024 25.7064 114.024 25.7064L62.7561 93.9704L0 9.80277C0 9.80277 10.2477 0 27.3469 0C43.442 0 55.9637 12.6459 67.8652 22.804Z" fill="#05867B"/>
<path d="M126.93 8.79582C126.93 8.79582 121.082 3.90924 113.256 3.90924C97.6338 3.90924 87.8586 19.5759 67.8652 22.7744C75.839 29.5564 83.5174 35.213 91.7569 35.213C106.936 35.213 114.024 25.6767 114.024 25.6767L126.9 8.73659L126.93 8.79582Z" fill="#F3C417"/>
<path d="M157.968 47.7996H151.708L143.557 69.8633C143.084 71.1368 142.789 71.9956 142.789 71.9956H142.7C142.7 71.9956 136.292 55.8551 132.984 47.7996H126.398L137.975 76.1714C138.625 77.8299 140.751 80.5545 144.886 80.5545L157.939 47.77L157.968 47.7996Z" fill="#7D7C7C"/>
<path d="M217.948 80.1103V75.0164H203.596V47.7996H197.719V80.1103H217.948Z" fill="#7D7C7C"/>
<path d="M244.291 80.1103V75.0164H230.677V65.7467H242.195V60.8305H230.677V52.8935H238.503C244.646 52.8935 245 47.7996 245 47.7996H224.771V80.1103H244.262H244.291Z" fill="#7D7C7C"/>
<path d="M178.434 46.615H172.469L158.264 81.0284H164.968L168.393 72.2621H181.624L185.049 81.0284H192.078L178.434 46.615ZM170.608 66.8425L175.068 55.2331L175.127 55.0258L179.586 66.8425H170.608Z" fill="#7D7C7C"/>
</g>
<defs>
<clipPath id="clip0_308_726">
<rect width="245" height="94" fill="white"/>
</clipPath>
</defs>
</svg>
